<svg xmlns="http://www.w3.org/2000/svg" viewBox="0 0 100 80"><defs><style>.cls-1{fill:#ccc;}.cls-2{fill:#fff;}.cls-3,.cls-5{fill:#e1e1e1;}.cls-4{fill:#666;}.cls-5{stroke:#b3b3b3;stroke-miterlimit:10;}.cls-6{fill:#feeb57;}.cls-7{fill:#b3b3b3;}.cls-8{fill:#8c8c8c;}</style></defs><title>VisualIndex_v3</title><g id="All"><rect class="cls-1" width="100" height="80"/><rect class="cls-2" x="7.5" y="15.5" width="85" height="49" rx="2.5" ry="2.5"/><path class="cls-1" d="M90,16a2,2,0,0,1,2,2V62a2,2,0,0,1-2,2H10a2,2,0,0,1-2-2V18a2,2,0,0,1,2-2H90m0-1H10a3,3,0,0,0-3,3V62a3,3,0,0,0,3,3H90a3,3,0,0,0,3-3V18a3,3,0,0,0-3-3Z"/><path class="cls-3" d="M7.5,25.5V18A2.5,2.5,0,0,1,10,15.5H90A2.5,2.5,0,0,1,92.5,18v7.5Z"/><path class="cls-4" d="M90,16a2,2,0,0,1,2,2v7H8V18a2,2,0,0,1,2-2H90m0-1H10a3,3,0,0,0-3,3v8H93V18a3,3,0,0,0-3-3Z"/><path class="cls-4" d="M90,16a2,2,0,0,1,2,2V62a2,2,0,0,1-2,2H10a2,2,0,0,1-2-2V18a2,2,0,0,1,2-2H90m0-1H10a3,3,0,0,0-3,3V62a3,3,0,0,0,3,3H90a3,3,0,0,0,3-3V18a3,3,0,0,0-3-3Z"/><rect class="cls-5" x="76.5" y="54.5" width="12" height="6" rx="1" ry="1"/><rect class="cls-5" x="61.5" y="54.5" width="12" height="6" rx="1" ry="1"/><path class="cls-6" d="M15.19,43.5a.69.69,0,0,1-.59-1l5.19-8.62a.69.69,0,0,1,1.18,0l5.12,8.62a.69.69,0,0,1-.59,1Z"/><path class="cls-4" d="M20.38,34a.18.18,0,0,1,.16.09l5.12,8.62a.18.18,0,0,1,0,.19.18.18,0,0,1-.16.1H15.19a.18.18,0,0,1-.16-.1.18.18,0,0,1,0-.19l5.19-8.62a.18.18,0,0,1,.16-.09m0-1a1.18,1.18,0,0,0-1,.58l-5.19,8.62a1.19,1.19,0,0,0,1,1.81H25.5a1.19,1.19,0,0,0,1-1.8l-5.12-8.62a1.18,1.18,0,0,0-1-.58Z"/><circle class="cls-4" cx="20.34" cy="41.75" r="0.68"/><path class="cls-4" d="M20.6,40.55h-.52l-.42-4a.68.68,0,0,1,.68-.68h0a.68.68,0,0,1,.68.68Z"/><circle class="cls-7" cx="13" cy="20.5" r="2"/><circle class="cls-7" cx="19.6" cy="20.5" r="2"/><circle class="cls-7" cx="26.2" cy="20.5" r="2"/><path class="cls-8" d="M32,33.18a1.88,1.88,0,0,1,2,2.11,1.88,1.88,0,0,1-2,2.12H30.54V33.18Zm-.92,3.75H32a1.43,1.43,0,0,0,1.49-1.63A1.44,1.44,0,0,0,32,33.66h-.89Z"/><path class="cls-8" d="M34.85,35.83a1.47,1.47,0,1,1,2.91,0,1.47,1.47,0,1,1-2.91,0Zm2.39,0c0-.75-.34-1.18-.93-1.18s-.93.43-.93,1.18.34,1.18.93,1.18S37.24,36.58,37.24,35.83Z"/><path class="cls-8" d="M38.77,33h.5v4.41h-.5Z"/><path class="cls-8" d="M40.27,35.83a1.47,1.47,0,1,1,2.91,0,1.47,1.47,0,1,1-2.91,0Zm2.39,0c0-.75-.34-1.18-.93-1.18s-.93.43-.93,1.18.34,1.18.93,1.18S42.66,36.58,42.66,35.83Z"/><path class="cls-8" d="M44.15,34.25h.48v.47h0a.88.88,0,0,1,.88-.52h.25v.5l-.32,0a.77.77,0,0,0-.83.77v2h-.5Z"/><path class="cls-8" d="M49.13,36.59a1.26,1.26,0,0,1-1.33.87c-.88,0-1.42-.63-1.42-1.63A1.44,1.44,0,0,1,47.8,34.2c.85,0,1.37.61,1.37,1.59V36H46.9v0c0,.62.38,1,.91,1a.82.82,0,0,0,.81-.43Zm-2.23-1h1.74a.85.85,0,0,0-.85-.93A.9.9,0,0,0,46.9,35.57Z"/><path class="cls-8" d="M54.61,36.59a1.26,1.26,0,0,1-1.33.87c-.88,0-1.42-.63-1.42-1.63a1.44,1.44,0,0,1,1.42-1.64c.85,0,1.37.61,1.37,1.59V36H52.38v0c0,.62.38,1,.91,1a.82.82,0,0,0,.81-.43Zm-2.23-1h1.74a.85.85,0,0,0-.85-.93A.9.9,0,0,0,52.38,35.57Z"/><path class="cls-8" d="M58.17,37.41h-.48v-.5h0a1,1,0,0,1-1,.55c-.71,0-1.08-.42-1.08-1.17v-2h.5v1.92c0,.57.21.83.71.83a.79.79,0,0,0,.86-.88V34.25h.5Z"/><path class="cls-8" d="M61.39,34.68h-.52v-.42h.52v-.31c0-.65.34-.92.95-.92l.31,0v.42l-.28,0c-.3,0-.47.15-.47.51v.29h.72v.42h-.72v2.74h-.5Z"/><path class="cls-8" d="M66,36.59a1.26,1.26,0,0,1-1.33.87c-.88,0-1.42-.63-1.42-1.63a1.44,1.44,0,0,1,1.42-1.64c.85,0,1.37.61,1.37,1.59V36H63.76v0c0,.62.38,1,.91,1a.82.82,0,0,0,.81-.43Zm-2.23-1H65.5a.85.85,0,0,0-.85-.93A.9.9,0,0,0,63.76,35.57Z"/><path class="cls-8" d="M69.56,37.41h-.48v-.5h0a1,1,0,0,1-1,.55C67.34,37.47,67,37,67,36.3v-2h.5v1.92c0,.57.21.83.71.83a.79.79,0,0,0,.86-.88V34.25h.5Z"/><path class="cls-8" d="M70.66,37.76h.53c.06.26.34.42.79.42s.9-.28.9-.74v-.62h0a1.1,1.1,0,0,1-1,.54c-.82,0-1.32-.63-1.32-1.58S71,34.2,71.85,34.2a1.13,1.13,0,0,1,1,.56h0v-.5h.48v3.21c0,.71-.54,1.16-1.41,1.16S70.74,38.28,70.66,37.76Zm2.24-2c0-.69-.35-1.13-.94-1.13S71,35.1,71,35.79s.33,1.13.91,1.13S72.9,36.47,72.9,35.79Z"/><path class="cls-8" d="M74.44,33.26a.35.35,0,1,1,.35.35A.35.35,0,0,1,74.44,33.26Zm.1,1H75v3.16h-.5Z"/><path class="cls-8" d="M76,36.53c0-.57.42-.89,1.15-.93l.91-.06v-.29c0-.39-.24-.6-.71-.6s-.64.14-.71.39h-.51c.07-.51.57-.84,1.24-.84s1.2.4,1.2,1.05v2.16h-.48v-.47h0a1.09,1.09,0,0,1-1,.52A1,1,0,0,1,76,36.53Zm2.06-.29v-.29l-.85.06c-.48,0-.69.2-.69.52s.27.51.64.51A.83.83,0,0,0,78.05,36.23Z"/><path class="cls-8" d="M80.38,33.44v.82h.7v.42h-.7v1.79c0,.37.14.53.47.53h.23v.42l-.3,0c-.65,0-.91-.24-.91-.84V34.68h-.51v-.42h.51v-.82Z"/><path class="cls-8" d="M30.47,42.25H31v.5h0A1,1,0,0,1,32,42.2a1,1,0,0,1,1.1,1.17v2h-.5V43.49c0-.57-.24-.84-.74-.84a.8.8,0,0,0-.83.89v1.87h-.5Z"/><path class="cls-8" d="M36.71,45.41h-.48v-.5h0a1,1,0,0,1-1,.55c-.71,0-1.08-.42-1.08-1.17v-2h.5v1.92c0,.57.21.83.71.83a.79.79,0,0,0,.86-.88V42.25h.5Z"/><path class="cls-8" d="M37.87,41h.5v4.41h-.5Z"/><path class="cls-8" d="M39.56,41h.5v4.41h-.5Z"/><path class="cls-8" d="M41,44.53c0-.57.42-.89,1.15-.93l.91-.06v-.29c0-.39-.24-.6-.71-.6s-.64.14-.71.39h-.51c.07-.51.57-.84,1.24-.84s1.2.4,1.2,1.05v2.16h-.48v-.47h0a1.09,1.09,0,0,1-1,.52A1,1,0,0,1,41,44.53Zm2.06-.29v-.29l-.85.06c-.48,0-.69.2-.69.52s.27.51.64.51A.83.83,0,0,0,43.1,44.23Z"/><path class="cls-8" d="M46.59,42.25h.48v.5h0a1,1,0,0,1,.95-.55,1,1,0,0,1,1.1,1.17v2h-.5V43.49c0-.57-.24-.84-.74-.84a.8.8,0,0,0-.83.89v1.87h-.5Z"/><path class="cls-8" d="M50.18,41.26a.35.35,0,1,1,.35.35A.35.35,0,0,1,50.18,41.26Zm.1,1h.5v3.16h-.5Z"/><path class="cls-8" d="M53,42.2a1.06,1.06,0,0,1,1.19.85h-.5a.64.64,0,0,0-.69-.42c-.37,0-.67.19-.67.47s.18.35.55.44l.49.12c.59.14.88.4.88.86s-.55,1-1.27,1-1.19-.34-1.24-.86h.52A.7.7,0,0,0,53,45c.42,0,.73-.2.73-.49s-.16-.36-.5-.45L52.71,44c-.59-.14-.86-.4-.86-.86S52.36,42.2,53,42.2Z"/><path class="cls-8" d="M55.27,41h.5v4.41h-.5Z"/><path class="cls-8" d="M58.62,44.53c0-.57.42-.89,1.15-.93l.91-.06v-.29c0-.39-.24-.6-.71-.6s-.64.14-.71.39h-.51c.07-.51.57-.84,1.24-.84s1.2.4,1.2,1.05v2.16h-.48v-.47h0a1.09,1.09,0,0,1-1,.52A1,1,0,0,1,58.62,44.53Zm2.06-.29v-.29l-.85.06c-.48,0-.69.2-.69.52s.27.51.64.51A.83.83,0,0,0,60.69,44.23Z"/><path class="cls-8" d="M63,41.44v.82h.7v.42H63v1.79c0,.37.14.53.47.53h.23v.42l-.3,0c-.65,0-.91-.24-.91-.84V42.68H62v-.42h.51v-.82Z"/></g><g id="Borders"><path class="cls-8" d="M99,1V79H1V1H99m1-1H0V80H100V0Z"/></g></svg>