<svg xmlns="http://www.w3.org/2000/svg" viewBox="0 0 100 80"><defs><style>.cls-1{fill:#e1e1e1;}.cls-2{fill:#ccc;}.cls-3{fill:#b3b3b3;}.cls-4{fill:#666;}.cls-5{fill:#feeb57;}.cls-6{fill:#8c8c8c;}</style></defs><title>VisualIndex_v3</title><g id="All"><rect class="cls-1" x="0.5" y="0.5" width="99" height="79"/><path class="cls-2" d="M99,1V79H1V1H99m1-1H0V80H100V0Z"/><rect class="cls-3" x="25.5" y="29.5" width="48" height="20"/><path class="cls-4" d="M73,30V49H26V30H73m1-1H25V50H74V29Z"/><rect class="cls-5" x="30.5" y="34.5" width="38" height="10"/><path class="cls-4" d="M68,35v9H31V35H68m1-1H30V45H69V34Z"/></g><g id="Borders"><path class="cls-6" d="M99,1V79H1V1H99m1-1H0V80H100V0Z"/></g></svg>