<svg xmlns="http://www.w3.org/2000/svg" viewBox="0 0 100 80"><defs><style>.cls-1{fill:#e1e1e1;}.cls-2{fill:#fff;}.cls-3{fill:#666;}.cls-4{fill:#3083fb;}.cls-5,.cls-7{fill:none;stroke-linecap:round;stroke-miterlimit:10;}.cls-5{stroke:#9fbfe9;stroke-width:5px;opacity:0.9;}.cls-6{fill:#b8d7fb;}.cls-7{stroke:#fafafa;stroke-width:1.5px;}.cls-8{fill:#8c8c8c;}</style></defs><title>VisualIndex_v3</title><g id="All"><rect class="cls-1" width="100" height="80"/><rect class="cls-2" x="19.5" y="35.5" width="62" height="44"/><path class="cls-3" d="M81,36V79H20V36H81m1-1H19V80H82V35Z"/><rect class="cls-4" x="19" y="57" width="63" height="18"/><path class="cls-3" d="M24.52,50.9h1.26a2,2,0,0,0,2,1.48c1.61,0,2.52-1.42,2.58-4h-.11a2.83,2.83,0,0,1-2.62,1.52,3.16,3.16,0,0,1-3.24-3.3,3.3,3.3,0,0,1,3.46-3.4,3.37,3.37,0,0,1,3.23,2.24,7,7,0,0,1,.48,2.75c0,3.39-1.38,5.33-3.79,5.33A3.12,3.12,0,0,1,24.52,50.9Zm5.56-4.35a2.23,2.23,0,1,0-4.46,0,2.23,2.23,0,1,0,4.46,0Z"/><path class="cls-2" d="M27,62.43h-.11l-2.51,1.82V63L27,61.07h1.22v9.86H27Z"/><path class="cls-2" d="M30.94,66c0-3.25,1.29-5.16,3.5-5.16s3.49,1.91,3.49,5.18-1.27,5.15-3.49,5.15S30.94,69.28,30.94,66Zm5.75,0c0-2.62-.81-4.08-2.25-4.08S32.18,63.39,32.18,66s.81,4.09,2.26,4.09S36.69,68.64,36.69,66Z"/><path class="cls-5" d="M78.5,13h-56a4,4,0,0,0-4,4V33a4,4,0,0,0,4,4h56a4,4,0,0,0,4-4V17A4,4,0,0,0,78.5,13Z"/><rect class="cls-2" x="19.5" y="14.5" width="45" height="21"/><path class="cls-3" d="M64,15V35H20V15H64m1-1H19V36H65V14Z"/><path class="cls-4" d="M67,14H82a0,0,0,0,1,0,0V36a0,0,0,0,1,0,0H67a3,3,0,0,1-3-3V17A3,3,0,0,1,67,14Z" transform="translate(146 50) rotate(180)"/><rect class="cls-6" x="22.5" y="16" width="18" height="18"/><path class="cls-3" d="M27,21.75h-.11l-2.51,1.82v-1.3L27,20.39h1.22v9.86H27Z"/><path class="cls-3" d="M30.94,25.31c0-3.25,1.29-5.16,3.5-5.16s3.49,1.91,3.49,5.18-1.27,5.15-3.49,5.15S30.94,28.6,30.94,25.31Zm5.75,0c0-2.62-.81-4.08-2.25-4.08s-2.26,1.48-2.26,4.08.81,4.09,2.26,4.09S36.69,28,36.69,25.31Z"/><polyline class="cls-7" points="69.5 24 73 27.5 76.5 24"/></g><g id="Borders"><path class="cls-8" d="M99,1V79H1V1H99m1-1H0V80H100V0Z"/></g></svg>