<svg xmlns="http://www.w3.org/2000/svg" viewBox="0 0 100 80"><defs><style>.cls-1{fill:#ccc;}.cls-2{fill:#e1e1e1;}.cls-3{fill:#b3b3b3;}.cls-4{fill:#fff;fill-opacity:0.95;stroke:#666;}.cls-4,.cls-5,.cls-7,.cls-8{stroke-miterlimit:10;}.cls-5{fill:none;stroke:#e1e1e1;}.cls-6{fill:#8c8c8c;}.cls-7,.cls-8{fill:#666;stroke:#fafafa;}.cls-8{stroke-width:0.75px;}</style></defs><title>VisualIndex_v3</title><g id="All"><rect class="cls-1" width="100" height="80"/><path class="cls-2" d="M8.21,33.5a.71.71,0,0,1-.71-.71V7.71a1.45,1.45,0,0,1,0-.24h0l.16,0H18.09l.15-.17a.39.39,0,0,1,.14-.11s0,0,.1.15l0,0L20.36,9.5H40.79a.71.71,0,0,1,.71.71V32.79a.71.71,0,0,1-.71.71Z"/><path class="cls-3" d="M18.34,8l1.5,1.69.3.34H40.79a.21.21,0,0,1,.21.21V32.79a.21.21,0,0,1-.21.21H8.21A.21.21,0,0,1,8,32.79V8h9.86l.47,0h0m0-1.26a.69.69,0,0,0-.5.28H7.71a.5.5,0,0,0-.29-.12C7,6.88,7,7.71,7,7.71V32.79A1.21,1.21,0,0,0,8.21,34H40.79A1.21,1.21,0,0,0,42,32.79V10.21A1.21,1.21,0,0,0,40.79,9H20.58L18.91,7.12a.68.68,0,0,0-.55-.4Z"/><rect class="cls-4" x="22.5" y="13.5" width="70" height="59.07" rx="3" ry="3"/><line class="cls-5" x1="24" y1="50.5" x2="91" y2="50.5"/><polygon class="cls-6" points="82 37 82 43.86 88 40.43 82 37"/><path class="cls-7" d="M28.82,18.72,21.5,11.88l.16,10L24,19.8l1.78,4a.1.1,0,0,0,.13.05l1.48-.66a.1.1,0,0,0,.05-.13l-1.78-4Z"/><path class="cls-8" d="M28.66,18.57,21.5,11.88l.16,9.8a.1.1,0,0,0,.17.07L24,19.8l1.78,4a.1.1,0,0,0,.13.05l1.48-.66a.1.1,0,0,0,.05-.13l-1.78-4,2.91-.32A.1.1,0,0,0,28.66,18.57Z"/><path class="cls-6" d="M34.62,27.28V23h0l-1.78,4.27H32.2L30.42,23h0v4.3h-.66V21.65h.82l1.93,4.66h.06l1.93-4.66h.82v5.64Z"/><path class="cls-6" d="M36.72,21.75a.47.47,0,1,1,.47.47A.47.47,0,0,1,36.72,21.75Zm.13,1.32h.67v4.21h-.67Z"/><path class="cls-6" d="M39,23.07h.64v.66h.06A1.27,1.27,0,0,1,41,23a1.37,1.37,0,0,1,1.47,1.56v2.73h-.67V24.72c0-.76-.32-1.12-1-1.12a1.07,1.07,0,0,0-1.11,1.19v2.49H39Z"/><path class="cls-6" d="M43.77,21.75a.47.47,0,1,1,.47.47A.47.47,0,0,1,43.77,21.75Zm.13,1.32h.67v4.21H43.9Z"/><path class="cls-6" d="M46.06,23.07h.64v.66h.06A1.19,1.19,0,0,1,47.94,23a1.22,1.22,0,0,1,1.16.74h.06A1.41,1.41,0,0,1,50.46,23a1.23,1.23,0,0,1,1.34,1.38v2.91h-.67V24.53c0-.62-.29-.93-.89-.93a1,1,0,0,0-1,1v2.71h-.67V24.42a.8.8,0,0,0-.88-.82,1,1,0,0,0-1,1.07v2.61h-.67Z"/><path class="cls-6" d="M59.28,27.28H55.78V21.65h3.49v.63H56.49v1.81h2.64v.63H56.49v1.94h2.79Z"/><path class="cls-6" d="M62.14,23a1.42,1.42,0,0,1,1.59,1.13h-.66a.86.86,0,0,0-.93-.56c-.5,0-.89.25-.89.63s.23.47.73.59l.65.16c.79.19,1.18.54,1.18,1.14s-.73,1.27-1.69,1.27-1.58-.45-1.66-1.15h.69a.93.93,0,0,0,1,.58c.57,0,1-.27,1-.66s-.22-.48-.67-.59l-.72-.18c-.79-.19-1.15-.53-1.15-1.14S61.25,23,62.14,23Z"/><path class="cls-6" d="M66.46,23A1.42,1.42,0,0,1,68,24.13h-.66a.86.86,0,0,0-.93-.56c-.5,0-.89.25-.89.63s.23.47.73.59l.65.16c.79.19,1.18.54,1.18,1.14s-.73,1.27-1.69,1.27-1.58-.45-1.66-1.15h.69a.93.93,0,0,0,1,.58c.57,0,1-.27,1-.66s-.22-.48-.67-.59L66,25.36c-.79-.19-1.15-.53-1.15-1.14S65.57,23,66.46,23Z"/><path class="cls-6" d="M72.84,26.19a1.68,1.68,0,0,1-1.77,1.16c-1.17,0-1.9-.84-1.9-2.18A1.92,1.92,0,0,1,71.07,23c1.14,0,1.83.81,1.83,2.12v.26h-3v0c0,.83.5,1.36,1.21,1.36a1.09,1.09,0,0,0,1.09-.57Zm-3-1.36h2.32a1.13,1.13,0,0,0-1.13-1.24A1.2,1.2,0,0,0,69.87,24.83Z"/><path class="cls-6" d="M29.72,63.08V57.45h.68l3.06,4.39h.06V57.45h.7v5.64h-.68l-3.06-4.37h-.06v4.37Z"/><path class="cls-6" d="M39.18,63.08h-.64v-.66h-.06a1.31,1.31,0,0,1-1.3.73c-.95,0-1.44-.56-1.44-1.56V58.87h.67v2.56c0,.76.28,1.11,1,1.11a1.06,1.06,0,0,0,1.15-1.18V58.87h.67Z"/><path class="cls-6" d="M40.7,57.2h.67v5.88H40.7Z"/><path class="cls-6" d="M42.92,57.2h.67v5.88h-.67Z"/><path class="cls-6" d="M44.86,61.9c0-.75.55-1.19,1.54-1.25l1.21-.07V60.2c0-.52-.32-.8-1-.8s-.86.19-.95.52H45c.09-.68.75-1.12,1.65-1.12s1.6.53,1.6,1.4v2.88h-.64v-.62h-.06a1.45,1.45,0,0,1-1.3.7A1.28,1.28,0,0,1,44.86,61.9Zm2.75-.39v-.39l-1.13.07c-.64,0-.92.27-.92.69s.36.68.85.68A1.11,1.11,0,0,0,47.61,61.51Z"/><path class="cls-6" d="M53.91,63.08l-2.08-5.64h.74l1.66,4.73h.06l1.66-4.73h.74L54.6,63.08Z"/><path class="cls-6" d="M60.86,62a1.68,1.68,0,0,1-1.77,1.16c-1.17,0-1.9-.84-1.9-2.18a1.92,1.92,0,0,1,1.9-2.18c1.14,0,1.83.81,1.83,2.12v.26h-3v0c0,.83.5,1.36,1.21,1.36A1.09,1.09,0,0,0,60.19,62Zm-3-1.36h2.32a1.13,1.13,0,0,0-1.13-1.24A1.2,1.2,0,0,0,57.89,60.63Z"/><path class="cls-6" d="M62.22,57.2h.67v5.88h-.67Z"/><path class="cls-6" d="M29.72,42.28V36.65h.7v5.64Z"/><path class="cls-6" d="M32,36.4h.67v5.88H32Z"/><path class="cls-6" d="M34.24,36.4h.67v5.88h-.67Z"/><path class="cls-6" d="M39.83,42.28h-.64v-.66h-.06a1.31,1.31,0,0,1-1.3.73c-.95,0-1.44-.56-1.44-1.56V38.07h.67v2.56c0,.76.28,1.11,1,1.11a1.06,1.06,0,0,0,1.15-1.18V38.07h.67Z"/><path class="cls-6" d="M41.31,38.07h.64v.66H42A1.19,1.19,0,0,1,43.19,38a1.22,1.22,0,0,1,1.16.74h.06A1.41,1.41,0,0,1,45.7,38,1.23,1.23,0,0,1,47,39.37v2.91h-.67V39.53c0-.62-.29-.93-.89-.93a1,1,0,0,0-1,1v2.71h-.67V39.42A.8.8,0,0,0,43,38.6a1,1,0,0,0-1,1.07v2.61h-.67Z"/><path class="cls-6" d="M54.52,42.28H51V36.65h3.49v.63H51.73v1.81h2.64v.63H51.73v1.94h2.79Z"/><path class="cls-6" d="M55.92,38.07h.64v.63h.06a1.18,1.18,0,0,1,1.17-.7l.34,0v.67a2.7,2.7,0,0,0-.43,0,1,1,0,0,0-1.11,1v2.61h-.67Z"/><path class="cls-6" d="M58.92,41.1c0-.75.55-1.19,1.54-1.25l1.21-.07V39.4c0-.52-.32-.8-1-.8s-.86.19-.95.52h-.68c.09-.68.75-1.12,1.65-1.12s1.6.53,1.6,1.4v2.88H61.7v-.62h-.06a1.45,1.45,0,0,1-1.3.7A1.28,1.28,0,0,1,58.92,41.1Zm2.75-.39v-.39l-1.13.07c-.64,0-.92.27-.92.69s.36.68.85.68A1.11,1.11,0,0,0,61.67,40.71Z"/><path class="cls-6" d="M64.75,37v1.09h.94v.56h-.94V41c0,.5.19.71.63.71l.31,0v.57a2.25,2.25,0,0,1-.39,0c-.87,0-1.21-.32-1.21-1.12V38.63H63.4v-.56h.68V37Z"/></g><g id="Borders"><path class="cls-6" d="M99,1V79H1V1H99m1-1H0V80H100V0Z"/></g></svg>