<svg xmlns="http://www.w3.org/2000/svg" viewBox="0 0 100 80"><defs><style>.cls-1{fill:#e1e1e1;}.cls-2{fill:#ccc;}.cls-3{fill:#fff;}.cls-3,.cls-4{stroke:#666;stroke-linecap:round;stroke-miterlimit:10;}.cls-4{fill:none;}.cls-5{fill:#b8d7fb;}.cls-6{fill:#666;}.cls-7{fill:#8c8c8c;}</style></defs><title>VisualIndex_v3</title><g id="All"><rect class="cls-1" x="0.5" y="0.5" width="99" height="79"/><path class="cls-2" d="M99,1V79H1V1H99m1-1H0V80H100V0Z"/><rect class="cls-3" x="81.5" y="28.5" width="12" height="22" rx="5.76" ry="5.76"/><polyline class="cls-4" points="85 43.04 87.5 45.28 90 43.04"/><polyline class="cls-4" points="90 36.23 87.5 34 85 36.23"/><rect class="cls-3" x="6.5" y="28.5" width="69" height="22"/><rect class="cls-5" x="10" y="31" width="12" height="16" rx="2.5" ry="2.5"/><path class="cls-6" d="M14.72,36.7h-.09l-2,1.43v-1l2.06-1.48h1v7.75h-1Z"/><path class="cls-6" d="M19.85,36.7h-.09l-2,1.43v-1l2.06-1.48h1v7.75h-1Z"/><path class="cls-6" d="M22.58,45.12l2.36-9.5h.82l-2.37,9.5Z"/><path class="cls-6" d="M28.8,36.7h-.09l-2,1.43v-1l2.06-1.48h1v7.75h-1Z"/><path class="cls-6" d="M35.62,41.77H31.84v-.88c.69-1.23,1.92-3.17,3.32-5.26h1.4V40.9h1.1v.86h-1.1v1.61h-.95Zm-2.79-.86h2.79V36.52h-.06c-.79,1.15-1.8,2.75-2.73,4.32Z"/><path class="cls-6" d="M38.61,45.12,41,35.62h.82l-2.37,9.5Z"/><path class="cls-6" d="M48.52,35.44A2.29,2.29,0,0,1,51,37.62c0,.81-.37,1.43-1.64,2.8l-1.86,2v.09H51.1v.87h-5v-.67l2.68-2.93c1-1.09,1.24-1.5,1.24-2.13a1.52,1.52,0,0,0-3,.15H46A2.34,2.34,0,0,1,48.52,35.44Z"/><path class="cls-6" d="M52.58,39.5c0-2.56,1-4.06,2.75-4.06s2.74,1.5,2.74,4.07-1,4-2.74,4S52.58,42.08,52.58,39.5Zm4.52,0c0-2.06-.63-3.21-1.77-3.21s-1.78,1.16-1.78,3.21.63,3.22,1.78,3.22S57.1,41.58,57.1,39.5Z"/><path class="cls-6" d="M61.51,36.7h-.09l-2,1.43v-1l2.06-1.48h1v7.75h-1Z"/><path class="cls-6" d="M68.59,36.56v-.08H64.44v-.87h5.13v.9l-3.45,6.85h-1Z"/></g><g id="Borders"><path class="cls-7" d="M99,1V79H1V1H99m1-1H0V80H100V0Z"/></g></svg>