<svg xmlns="http://www.w3.org/2000/svg" viewBox="0 0 100 80"><defs><style>.cls-1{fill:#fff;}.cls-2{fill:#666;}.cls-3{fill:#e1e1e1;}.cls-4{fill:#529af5;}.cls-5{fill:#8c8c8c;}</style></defs><title>VisualIndex_v3</title><g id="All"><path class="cls-1" d="M38,54.5A10.5,10.5,0,1,1,48.5,44,10.51,10.51,0,0,1,38,54.5Z"/><path class="cls-2" d="M38,34A10,10,0,1,1,28,44,10,10,0,0,1,38,34m0-1A11,11,0,0,0,27,44h0a11,11,0,0,0,22,0h0A11,11,0,0,0,38,33Z"/><path class="cls-2" d="M38,37.56c2.11,0,3.54,1.3,3.54,3a3.24,3.24,0,0,1-1.75,2.88c-1.06.63-1.36,1.09-1.36,2V46H37v-.77a2.8,2.8,0,0,1,1.67-2.54c1-.59,1.35-1.12,1.35-2a1.84,1.84,0,0,0-2-1.8,2,2,0,0,0-2.16,1.94H34.39A3.31,3.31,0,0,1,38,37.56ZM36.69,48.69a1.16,1.16,0,1,1,1.16,1.16A1.12,1.12,0,0,1,36.69,48.69Z"/><rect class="cls-3" width="100" height="80"/><path class="cls-1" d="M50,53.5A13.5,13.5,0,1,1,63.5,40,13.52,13.52,0,0,1,50,53.5Z"/><path class="cls-2" d="M50,27A13,13,0,1,1,37,40,13,13,0,0,1,50,27m0-1A14,14,0,0,0,36,40h0a14,14,0,0,0,28,0h0A14,14,0,0,0,50,26Z"/><path class="cls-4" d="M50,31.8c2.68,0,4.51,1.66,4.51,3.85a4.12,4.12,0,0,1-2.22,3.67c-1.35.8-1.73,1.39-1.73,2.51v.69H48.73v-1c0-1.4.67-2.36,2.13-3.23,1.23-.75,1.71-1.42,1.71-2.56A2.34,2.34,0,0,0,50,33.46a2.53,2.53,0,0,0-2.74,2.47H45.41C45.52,33.63,47.05,31.8,50,31.8ZM48.33,46a1.47,1.47,0,1,1,1.48,1.48A1.43,1.43,0,0,1,48.33,46Z"/></g><g id="Borders"><path class="cls-5" d="M99,1V79H1V1H99m1-1H0V80H100V0Z"/></g></svg>