<svg xmlns="http://www.w3.org/2000/svg" viewBox="0 0 100 80"><defs><style>.cls-1{fill:#fff;}.cls-2{fill:#ccc;}.cls-3{fill:#e1e1e1;}.cls-4{fill:#83d654;}.cls-5{fill:none;stroke:#ccc;stroke-miterlimit:10;}.cls-6{fill:#8c8c8c;}</style></defs><title>VisualIndex_v3</title><g id="All"><rect class="cls-1" x="0.5" y="0.5" width="99" height="79"/><path class="cls-2" d="M99,1V79H1V1H99m1-1H0V80H100V0Z"/><path class="cls-3" d="M40,47H89a3,3,0,0,0,3-3V33a3,3,0,0,0-3-3H40Z"/><path class="cls-4" d="M10.5,30H64a0,0,0,0,1,0,0V46a0,0,0,0,1,0,0H10.5A3.5,3.5,0,0,1,7,42.5v-9A3.5,3.5,0,0,1,10.5,30Z"/><path class="cls-5" d="M92.5,33.5a3,3,0,0,0-3-3H10.47a3,3,0,0,0-3,3v10a3,3,0,0,0,3,3H89.53a3,3,0,0,0,3-3Z"/></g><g id="Borders"><path class="cls-6" d="M99,1V79H1V1H99m1-1H0V80H100V0Z"/></g></svg>