<svg xmlns="http://www.w3.org/2000/svg" viewBox="0 0 100 80"><defs><style>.cls-1{fill:#ccc;}.cls-2,.cls-3{fill:#fff;}.cls-3{fill-opacity:0.95;}.cls-3,.cls-6{stroke:#666;}.cls-3,.cls-4,.cls-6{stroke-miterlimit:10;}.cls-4{fill:none;stroke:#e1e1e1;}.cls-5{fill:#8c8c8c;}.cls-6,.cls-8{fill:#e1e1e1;}.cls-7{fill:#666;}</style></defs><title>VisualIndex_v3</title><g id="All"><rect class="cls-1" width="100" height="80"/><rect class="cls-2" width="100" height="12"/><path class="cls-3" d="M7.5,12.5h85a0,0,0,0,1,0,0v58a3,3,0,0,1-3,3h-79a3,3,0,0,1-3-3v-58A0,0,0,0,1,7.5,12.5Z"/><line class="cls-4" x1="9" y1="48.5" x2="91" y2="48.5"/><polygon class="cls-5" points="82 35 82 41.86 88 38.43 82 35"/><polygon class="cls-5" points="82 56 82 62.86 88 59.43 82 56"/><path class="cls-5" d="M19.62,25.88v-4.3h0l-1.78,4.27H17.2l-1.78-4.27h0v4.3h-.66V20.25h.82l1.93,4.66h.06l1.93-4.66h.82v5.64Z"/><path class="cls-5" d="M21.72,20.35a.47.47,0,1,1,.47.47A.47.47,0,0,1,21.72,20.35Zm.13,1.32h.67v4.21h-.67Z"/><path class="cls-5" d="M24,21.67h.64v.66h.06A1.27,1.27,0,0,1,26,21.6a1.37,1.37,0,0,1,1.47,1.56v2.73h-.67V23.32c0-.76-.32-1.12-1-1.12a1.07,1.07,0,0,0-1.11,1.19v2.49H24Z"/><path class="cls-5" d="M28.77,20.35a.47.47,0,1,1,.47.47A.47.47,0,0,1,28.77,20.35Zm.13,1.32h.67v4.21H28.9Z"/><path class="cls-5" d="M31.06,21.67h.64v.66h.06a1.19,1.19,0,0,1,1.18-.74,1.22,1.22,0,0,1,1.16.74h.06a1.41,1.41,0,0,1,1.29-.74A1.23,1.23,0,0,1,36.8,23v2.91h-.67V23.13c0-.62-.29-.93-.89-.93a1,1,0,0,0-1,1v2.71h-.67V23a.8.8,0,0,0-.88-.82,1,1,0,0,0-1,1.07v2.61h-.67Z"/><path class="cls-5" d="M44.28,25.88H40.78V20.25h3.49v.63H41.49v1.81h2.64v.63H41.49v1.94h2.79Z"/><path class="cls-5" d="M47.14,21.6a1.42,1.42,0,0,1,1.59,1.13h-.66a.86.86,0,0,0-.93-.56c-.5,0-.89.25-.89.63s.23.47.73.59l.65.16c.79.19,1.18.54,1.18,1.14S48.07,26,47.12,26s-1.58-.45-1.66-1.15h.69a.93.93,0,0,0,1,.58c.57,0,1-.27,1-.66s-.22-.48-.67-.59L46.72,24c-.79-.19-1.15-.53-1.15-1.14S46.25,21.6,47.14,21.6Z"/><path class="cls-5" d="M51.46,21.6A1.42,1.42,0,0,1,53,22.73h-.66a.86.86,0,0,0-.93-.56c-.5,0-.89.25-.89.63s.23.47.73.59l.65.16c.79.19,1.18.54,1.18,1.14S52.39,26,51.43,26s-1.58-.45-1.66-1.15h.69a.93.93,0,0,0,1,.58c.57,0,1-.27,1-.66s-.22-.48-.67-.59L51,24c-.79-.19-1.15-.53-1.15-1.14S50.57,21.6,51.46,21.6Z"/><path class="cls-5" d="M57.84,24.79A1.68,1.68,0,0,1,56.07,26c-1.17,0-1.9-.84-1.9-2.18a1.92,1.92,0,0,1,1.9-2.18c1.14,0,1.83.81,1.83,2.12V24h-3v0c0,.83.5,1.36,1.21,1.36a1.09,1.09,0,0,0,1.09-.57Zm-3-1.36h2.32a1.13,1.13,0,0,0-1.13-1.24A1.2,1.2,0,0,0,54.87,23.43Z"/><line class="cls-6" x1="100" y1="12.5" y2="12.5"/><rect class="cls-7" x="7" y="1" width="25" height="11"/><rect class="cls-2" x="12" y="4" width="15" height="5"/><rect class="cls-8" x="37" y="4" width="15" height="5"/><rect class="cls-8" x="61.5" y="4" width="15" height="5"/><rect class="cls-8" x="87" y="4" width="13" height="5"/><path class="cls-1" d="M99,1V79H1V1H99m1-1H0V80H100V0Z"/><path class="cls-5" d="M16.32,41.25V35.93H14.39v-.67H19v.67H17.07v5.32Z"/><path class="cls-5" d="M20.16,35.37a.5.5,0,1,1,.5.5A.5.5,0,0,1,20.16,35.37Zm.14,1.41H21v4.47H20.3Z"/><path class="cls-5" d="M22.59,36.78h.68v.71h.07a1.35,1.35,0,0,1,1.34-.78,1.46,1.46,0,0,1,1.56,1.66v2.9h-.71V38.53c0-.81-.34-1.19-1.05-1.19a1.13,1.13,0,0,0-1.17,1.26v2.65h-.71Z"/><path class="cls-5" d="M30.75,38.15a1.11,1.11,0,0,0-1.15-.81c-.81,0-1.31.64-1.31,1.66s.51,1.69,1.31,1.69a1.08,1.08,0,0,0,1.15-.78h.72a1.73,1.73,0,0,1-1.87,1.43A2.06,2.06,0,0,1,27.55,39a2,2,0,0,1,2.05-2.3,1.76,1.76,0,0,1,1.88,1.45Z"/><path class="cls-5" d="M32.63,35.37a.5.5,0,1,1,.5.5A.5.5,0,0,1,32.63,35.37Zm.14,1.41h.71v4.47h-.71Z"/><path class="cls-5" d="M34.84,39c0-1.4.74-2.32,1.88-2.32a1.53,1.53,0,0,1,1.4.78h.06V35h.71v6.25h-.68v-.71h-.07a1.6,1.6,0,0,1-1.43.79C35.57,41.33,34.84,40.42,34.84,39Zm.74,0c0,1,.49,1.67,1.31,1.67S38.2,40,38.2,39s-.51-1.67-1.32-1.67S35.58,38,35.58,39Z"/><path class="cls-5" d="M44.13,41.25h-.68v-.7h-.07a1.4,1.4,0,0,1-1.39.78c-1,0-1.53-.6-1.53-1.66v-2.9h.71V39.5c0,.81.3,1.18,1,1.18a1.13,1.13,0,0,0,1.22-1.25V36.78h.71Z"/><path class="cls-5" d="M45.69,36.78h.68v.71h.07a1.35,1.35,0,0,1,1.34-.78,1.46,1.46,0,0,1,1.56,1.66v2.9h-.71V38.53c0-.81-.34-1.19-1.05-1.19A1.13,1.13,0,0,0,46.4,38.6v2.65h-.71Z"/><path class="cls-5" d="M51.88,35.62v1.16h1v.6h-1v2.53c0,.53.2.75.66.75l.33,0v.6a2.39,2.39,0,0,1-.42,0c-.92,0-1.29-.34-1.29-1.2V37.37h-.72v-.6h.72V35.62Z"/><path class="cls-5" d="M14.72,61.88V56.25h.68l3.06,4.39h.06V56.25h.7v5.64h-.68l-3.06-4.37h-.06v4.37Z"/><path class="cls-5" d="M24.18,61.88h-.64v-.66h-.06a1.31,1.31,0,0,1-1.3.73c-.95,0-1.44-.56-1.44-1.56V57.67h.67v2.56c0,.76.28,1.11,1,1.11a1.06,1.06,0,0,0,1.15-1.18V57.67h.67Z"/><path class="cls-5" d="M25.7,56h.67v5.88H25.7Z"/><path class="cls-5" d="M27.92,56h.67v5.88h-.67Z"/><path class="cls-5" d="M29.86,60.7c0-.75.55-1.19,1.54-1.25l1.21-.07V59c0-.52-.32-.8-1-.8s-.86.19-.95.52H30c.09-.68.75-1.12,1.65-1.12s1.6.53,1.6,1.4v2.88h-.64v-.62h-.06a1.45,1.45,0,0,1-1.3.7A1.28,1.28,0,0,1,29.86,60.7Zm2.75-.39v-.39L31.47,60c-.64,0-.92.27-.92.69s.36.68.85.68A1.11,1.11,0,0,0,32.61,60.31Z"/><path class="cls-5" d="M38.91,61.88l-2.08-5.64h.74L39.22,61h.06l1.66-4.73h.74L39.6,61.88Z"/><path class="cls-5" d="M45.86,60.79A1.68,1.68,0,0,1,44.09,62c-1.17,0-1.9-.84-1.9-2.18a1.92,1.92,0,0,1,1.9-2.18c1.14,0,1.83.81,1.83,2.12V60h-3v0c0,.83.5,1.36,1.21,1.36a1.09,1.09,0,0,0,1.09-.57Zm-3-1.36h2.32a1.13,1.13,0,0,0-1.13-1.24A1.2,1.2,0,0,0,42.89,59.43Z"/><path class="cls-5" d="M47.22,56h.67v5.88h-.67Z"/></g><g id="Borders"><path class="cls-5" d="M99,1V79H1V1H99m1-1H0V80H100V0Z"/></g></svg>