<svg xmlns="http://www.w3.org/2000/svg" viewBox="0 0 100 80"><defs><style>.cls-1{fill:#ededed;}.cls-2{fill:#fff;}.cls-3{fill:#666;}.cls-4{fill:#ccc;}.cls-5{fill:#8c8c8c;}</style></defs><title>VisualIndex_v3</title><g id="All"><rect class="cls-1" y="20" width="100" height="20"/><rect class="cls-2" y="40" width="100" height="20"/><rect class="cls-1" y="60" width="100" height="20"/><rect class="cls-2" width="100" height="20"/><polygon class="cls-3" points="21 67 27 70.43 21 73.86 21 67"/><path class="cls-4" d="M99,1V79H1V1H99m1-1H0V80H100V0Z"/><polygon class="cls-3" points="21 27 27 30.43 21 33.86 21 27"/><polygon class="cls-3" points="14.86 7.5 11.43 13.5 8 7.5 14.86 7.5"/><polygon class="cls-3" points="21 47 27 50.43 21 53.86 21 47"/><path class="cls-3" d="M21.72,12.88V7.25h.7v5.64Z"/><path class="cls-3" d="M24,7h.67v5.88H24Z"/><path class="cls-3" d="M26.24,7h.67v5.88h-.67Z"/><path class="cls-3" d="M31.83,12.88h-.64v-.66h-.06a1.31,1.31,0,0,1-1.3.73c-.95,0-1.44-.56-1.44-1.56V8.67h.67v2.56c0,.76.28,1.11,1,1.11a1.06,1.06,0,0,0,1.15-1.18V8.67h.67Z"/><path class="cls-3" d="M33.31,8.67h.64v.66H34a1.19,1.19,0,0,1,1.18-.74,1.22,1.22,0,0,1,1.16.74h.06A1.41,1.41,0,0,1,37.7,8.6,1.23,1.23,0,0,1,39,10v2.91h-.67V10.13c0-.62-.29-.93-.89-.93a1,1,0,0,0-1,1v2.71h-.67V10A.8.8,0,0,0,35,9.2a1,1,0,0,0-1,1.07v2.61h-.67Z"/><path class="cls-3" d="M46.52,12.88H43V7.25h3.49v.63H43.73V9.69h2.64v.63H43.73v1.94h2.79Z"/><path class="cls-3" d="M47.92,8.67h.64V9.3h.06a1.18,1.18,0,0,1,1.17-.7l.34,0v.67a2.7,2.7,0,0,0-.43,0,1,1,0,0,0-1.11,1v2.61h-.67Z"/><path class="cls-3" d="M50.92,11.7c0-.75.55-1.19,1.54-1.25l1.21-.07V10c0-.52-.32-.8-1-.8s-.86.19-.95.52h-.68c.09-.68.75-1.12,1.65-1.12s1.6.53,1.6,1.4v2.88H53.7v-.62h-.06a1.45,1.45,0,0,1-1.3.7A1.28,1.28,0,0,1,50.92,11.7Zm2.75-.39v-.39L52.54,11c-.64,0-.92.27-.92.69s.36.68.85.68A1.11,1.11,0,0,0,53.67,11.31Z"/><path class="cls-3" d="M56.75,7.58V8.67h.94v.56h-.94v2.38c0,.5.19.71.63.71l.31,0v.57a2.25,2.25,0,0,1-.39,0c-.87,0-1.21-.32-1.21-1.12V9.23H55.4V8.67h.68V7.58Z"/><path class="cls-3" d="M34.18,32.88v-5H32.37v-.63H36.7v.63H34.89v5Z"/><path class="cls-3" d="M37.79,27.35a.47.47,0,1,1,.47.47A.47.47,0,0,1,37.79,27.35Zm.13,1.32h.67v4.21h-.67Z"/><path class="cls-3" d="M40.09,28.67h.64v.66h.06a1.27,1.27,0,0,1,1.27-.74,1.37,1.37,0,0,1,1.47,1.56v2.73h-.67V30.32c0-.76-.32-1.12-1-1.12a1.07,1.07,0,0,0-1.11,1.19v2.49h-.67Z"/><path class="cls-3" d="M47.77,30a1,1,0,0,0-1.09-.76c-.76,0-1.23.61-1.23,1.56s.48,1.59,1.23,1.59a1,1,0,0,0,1.09-.74h.68A1.63,1.63,0,0,1,46.69,33a1.94,1.94,0,0,1-1.93-2.2,1.92,1.92,0,0,1,1.93-2.16A1.65,1.65,0,0,1,48.45,30Z"/><path class="cls-3" d="M49.53,27.35a.47.47,0,1,1,.47.47A.47.47,0,0,1,49.53,27.35Zm.13,1.32h.67v4.21h-.67Z"/><path class="cls-3" d="M51.61,30.78c0-1.32.7-2.18,1.77-2.18a1.44,1.44,0,0,1,1.32.74h.06V27h.67v5.88h-.64v-.67h-.06a1.51,1.51,0,0,1-1.35.75C52.31,33,51.61,32.1,51.61,30.78Zm.7,0c0,1,.46,1.57,1.23,1.57s1.24-.6,1.24-1.57-.48-1.57-1.24-1.57S52.31,29.8,52.31,30.78Z"/><path class="cls-3" d="M60.35,32.88h-.64v-.66h-.06a1.31,1.31,0,0,1-1.3.73c-.95,0-1.44-.56-1.44-1.56V28.67h.67v2.56c0,.76.28,1.11,1,1.11a1.06,1.06,0,0,0,1.15-1.18V28.67h.67Z"/><path class="cls-3" d="M61.83,28.67h.64v.66h.06a1.27,1.27,0,0,1,1.27-.74,1.37,1.37,0,0,1,1.47,1.56v2.73H64.6V30.32c0-.76-.32-1.12-1-1.12a1.07,1.07,0,0,0-1.11,1.19v2.49h-.67Z"/><path class="cls-3" d="M67.66,27.58v1.09h.94v.56h-.94v2.38c0,.5.19.71.63.71l.31,0v.57a2.25,2.25,0,0,1-.39,0c-.87,0-1.21-.32-1.21-1.12V29.23H66.3v-.56H67V27.58Z"/><path class="cls-3" d="M32.72,52.88V47.25h.68l3.06,4.39h.06V47.25h.7v5.64h-.68l-3.06-4.37h-.06v4.37Z"/><path class="cls-3" d="M42.18,52.88h-.64v-.66h-.06a1.31,1.31,0,0,1-1.3.73c-.95,0-1.44-.56-1.44-1.56V48.67h.67v2.56c0,.76.28,1.11,1,1.11a1.06,1.06,0,0,0,1.15-1.18V48.67h.67Z"/><path class="cls-3" d="M43.7,47h.67v5.88H43.7Z"/><path class="cls-3" d="M45.92,47h.67v5.88h-.67Z"/><path class="cls-3" d="M47.86,51.7c0-.75.55-1.19,1.54-1.25l1.21-.07V50c0-.52-.32-.8-1-.8s-.86.19-.95.52H48c.09-.68.75-1.12,1.65-1.12s1.6.53,1.6,1.4v2.88h-.64v-.62h-.06a1.45,1.45,0,0,1-1.3.7A1.28,1.28,0,0,1,47.86,51.7Zm2.75-.39v-.39L49.47,51c-.64,0-.92.27-.92.69s.36.68.85.68A1.11,1.11,0,0,0,50.61,51.31Z"/><path class="cls-3" d="M56.91,52.88l-2.08-5.64h.74L57.22,52h.06l1.66-4.73h.74L57.6,52.88Z"/><path class="cls-3" d="M63.86,51.79A1.68,1.68,0,0,1,62.09,53c-1.17,0-1.9-.84-1.9-2.18a1.92,1.92,0,0,1,1.9-2.18c1.14,0,1.83.81,1.83,2.12V51h-3v0c0,.83.5,1.36,1.21,1.36a1.09,1.09,0,0,0,1.09-.57Zm-3-1.36h2.32a1.13,1.13,0,0,0-1.13-1.24A1.2,1.2,0,0,0,60.89,50.43Z"/><path class="cls-3" d="M65.22,47h.67v5.88h-.67Z"/><path class="cls-3" d="M37.62,72.88v-4.3h0l-1.78,4.27H35.2l-1.78-4.27h0v4.3h-.66V67.25h.82l1.93,4.66h.06l1.93-4.66h.82v5.64Z"/><path class="cls-3" d="M39.72,67.35a.47.47,0,1,1,.47.47A.47.47,0,0,1,39.72,67.35Zm.13,1.32h.67v4.21h-.67Z"/><path class="cls-3" d="M42,68.67h.64v.66h.06A1.27,1.27,0,0,1,44,68.6a1.37,1.37,0,0,1,1.47,1.56v2.73h-.67V70.32c0-.76-.32-1.12-1-1.12a1.07,1.07,0,0,0-1.11,1.19v2.49H42Z"/><path class="cls-3" d="M46.77,67.35a.47.47,0,1,1,.47.47A.47.47,0,0,1,46.77,67.35Zm.13,1.32h.67v4.21H46.9Z"/><path class="cls-3" d="M49.06,68.67h.64v.66h.06a1.19,1.19,0,0,1,1.18-.74,1.22,1.22,0,0,1,1.16.74h.06a1.41,1.41,0,0,1,1.29-.74A1.23,1.23,0,0,1,54.8,70v2.91h-.67V70.13c0-.62-.29-.93-.89-.93a1,1,0,0,0-1,1v2.71h-.67V70a.8.8,0,0,0-.88-.82,1,1,0,0,0-1,1.07v2.61h-.67Z"/><path class="cls-3" d="M62.28,72.88H58.78V67.25h3.49v.63H59.49v1.81h2.64v.63H59.49v1.94h2.79Z"/><path class="cls-3" d="M65.14,68.6a1.42,1.42,0,0,1,1.59,1.13h-.66a.86.86,0,0,0-.93-.56c-.5,0-.89.25-.89.63s.23.47.73.59l.65.16c.79.19,1.18.54,1.18,1.14S66.07,73,65.12,73s-1.58-.45-1.66-1.15h.69a.93.93,0,0,0,1,.58c.57,0,1-.27,1-.66s-.22-.48-.67-.59L64.72,71c-.79-.19-1.15-.53-1.15-1.14S64.25,68.6,65.14,68.6Z"/><path class="cls-3" d="M69.46,68.6A1.42,1.42,0,0,1,71,69.73h-.66a.86.86,0,0,0-.93-.56c-.5,0-.89.25-.89.63s.23.47.73.59l.65.16c.79.19,1.18.54,1.18,1.14S70.39,73,69.43,73s-1.58-.45-1.66-1.15h.69a.93.93,0,0,0,1,.58c.57,0,1-.27,1-.66s-.22-.48-.67-.59L69,71c-.79-.19-1.15-.53-1.15-1.14S68.57,68.6,69.46,68.6Z"/><path class="cls-3" d="M75.84,71.79A1.68,1.68,0,0,1,74.07,73c-1.17,0-1.9-.84-1.9-2.18a1.92,1.92,0,0,1,1.9-2.18c1.14,0,1.83.81,1.83,2.12V71h-3v0c0,.83.5,1.36,1.21,1.36a1.09,1.09,0,0,0,1.09-.57Zm-3-1.36h2.32a1.13,1.13,0,0,0-1.13-1.24A1.2,1.2,0,0,0,72.87,70.43Z"/></g><g id="Borders"><path class="cls-5" d="M99,1V79H1V1H99m1-1H0V80H100V0Z"/></g></svg>