<svg xmlns="http://www.w3.org/2000/svg" viewBox="0 0 100 80"><defs><style>.cls-1{fill:#ccc;}.cls-2{fill:#fff;opacity:0.95;}.cls-3{fill:#666;}.cls-4{fill:#b3b3b3;}.cls-5{fill:none;stroke:#e1e1e1;stroke-miterlimit:10;}.cls-6{fill:#8c8c8c;}</style></defs><title>VisualIndex_v3</title><g id="All"><rect class="cls-1" width="100" height="80"/><path class="cls-2" d="M31.38,72.5a3.88,3.88,0,0,1-3.88-3.88V47.23a4.23,4.23,0,0,0-1.8-3.46l-7.89-5.55a1.09,1.09,0,0,1,0-1.78l7.9-5.56a4.22,4.22,0,0,0,1.79-3.45v-15A3.88,3.88,0,0,1,31.38,8.5H72.62a3.88,3.88,0,0,1,3.88,3.88V68.62a3.88,3.88,0,0,1-3.88,3.88Z"/><path class="cls-3" d="M72.62,9A3.38,3.38,0,0,1,76,12.38V68.62A3.38,3.38,0,0,1,72.62,72H31.38A3.39,3.39,0,0,1,28,68.62V47.23a4.73,4.73,0,0,0-2-3.87L18.1,37.81a.59.59,0,0,1,0-1L26,31.29a4.72,4.72,0,0,0,2-3.86v-15A3.38,3.38,0,0,1,31.38,9H72.62m0-1H31.38A4.38,4.38,0,0,0,27,12.38v15a3.72,3.72,0,0,1-1.58,3L17.52,36a1.59,1.59,0,0,0,0,2.6l7.89,5.55A3.74,3.74,0,0,1,27,47.23V68.62A4.38,4.38,0,0,0,31.38,73H72.62A4.38,4.38,0,0,0,77,68.62V12.38A4.38,4.38,0,0,0,72.62,8Z"/><path class="cls-4" d="M33.89,19V13.31h.7V19Z"/><path class="cls-4" d="M36.22,13.07h.67V19h-.67Z"/><path class="cls-4" d="M38.48,13.07h.67V19h-.67Z"/><path class="cls-4" d="M44.1,19h-.64v-.66H43.4a1.31,1.31,0,0,1-1.3.73c-.95,0-1.44-.56-1.44-1.56V14.74h.67V17.3c0,.76.28,1.11,1,1.11a1.06,1.06,0,0,0,1.15-1.18V14.74h.67Z"/><path class="cls-4" d="M45.61,14.74h.64v.66h.06a1.19,1.19,0,0,1,1.18-.74,1.22,1.22,0,0,1,1.16.74h.06A1.41,1.41,0,0,1,50,14.67,1.23,1.23,0,0,1,51.34,16V19h-.67V16.2c0-.62-.29-.93-.89-.93a1,1,0,0,0-1,1V19h-.67V16.09a.8.8,0,0,0-.88-.82,1,1,0,0,0-1,1.07V19h-.67Z"/><path class="cls-4" d="M58.88,19H55.39V13.31h3.49v.63H56.1v1.81h2.64v.63H56.1v1.94h2.79Z"/><path class="cls-4" d="M60.31,14.74H61v.63H61a1.18,1.18,0,0,1,1.17-.7l.34,0v.67a2.7,2.7,0,0,0-.43,0,1,1,0,0,0-1.11,1V19h-.67Z"/><path class="cls-4" d="M63.35,17.77c0-.75.55-1.19,1.54-1.25l1.21-.07v-.38c0-.52-.32-.8-1-.8s-.86.19-.95.52h-.68c.09-.68.75-1.12,1.65-1.12s1.6.53,1.6,1.4V19h-.64v-.62h-.06a1.45,1.45,0,0,1-1.3.7A1.28,1.28,0,0,1,63.35,17.77Zm2.75-.39V17L65,17.07c-.64,0-.92.27-.92.69s.36.68.85.68A1.11,1.11,0,0,0,66.1,17.38Z"/><path class="cls-4" d="M69.21,13.65v1.09h.94v.56h-.94v2.38c0,.5.19.71.63.71l.31,0v.57a2.25,2.25,0,0,1-.39,0c-.87,0-1.21-.32-1.21-1.12V15.3h-.68v-.56h.68V13.65Z"/><path class="cls-4" d="M35.06,39.88,33.5,35.65h.55l1.24,3.54h0l1.24-3.54h.55l-1.56,4.23Z"/><path class="cls-4" d="M40.3,39.06a1.26,1.26,0,0,1-1.33.87c-.88,0-1.42-.63-1.42-1.63A1.44,1.44,0,0,1,39,36.66c.85,0,1.37.61,1.37,1.59v.19H38.07v0c0,.62.38,1,.91,1a.82.82,0,0,0,.81-.43Zm-2.23-1h1.74a.85.85,0,0,0-.85-.93A.9.9,0,0,0,38.07,38Z"/><path class="cls-4" d="M41.34,35.46h.5v4.41h-.5Z"/><path class="cls-4" d="M42.92,41l.28-1.67h.59L43.36,41Z"/><path class="cls-4" d="M49.52,39.88H46.9V35.65h2.62v.47H47.43v1.36h2v.47h-2V39.4h2.09Z"/><path class="cls-4" d="M53.15,39.88h-.48v-.5h0a1,1,0,0,1-1,.55c-.71,0-1.08-.42-1.08-1.17v-2h.5v1.92c0,.57.21.83.71.83a.79.79,0,0,0,.86-.88V36.72h.5Z"/><path class="cls-4" d="M54.27,36.72h.48v.5h0a.89.89,0,0,1,.88-.55.91.91,0,0,1,.87.55h0a1.06,1.06,0,0,1,1-.55.92.92,0,0,1,1,1v2.18h-.5V37.81c0-.47-.22-.69-.67-.69a.71.71,0,0,0-.73.73v2h-.5V37.73a.6.6,0,0,0-.66-.62.76.76,0,0,0-.73.8v2h-.5Z"/><path class="cls-4" d="M37.51,54.52V51.29h0l-1.33,3.2H35.7l-1.33-3.2h0v3.23h-.49V50.29h.61l1.45,3.5h0l1.45-3.5H38v4.23Z"/><path class="cls-4" d="M39.11,50.36a.35.35,0,1,1,.35.35A.35.35,0,0,1,39.11,50.36Zm.1,1h.5v3.16h-.5Z"/><path class="cls-4" d="M40.85,51.36h.48v.5h0a1,1,0,0,1,.95-.55,1,1,0,0,1,1.1,1.17v2h-.5V52.59c0-.57-.24-.84-.74-.84a.8.8,0,0,0-.83.89v1.87h-.5Z"/><path class="cls-4" d="M44.45,50.36a.35.35,0,1,1,.35.35A.35.35,0,0,1,44.45,50.36Zm.1,1H45v3.16h-.5Z"/><path class="cls-4" d="M46.19,51.36h.48v.5h0a.89.89,0,0,1,.88-.55.91.91,0,0,1,.87.55h0a1.06,1.06,0,0,1,1-.55.92.92,0,0,1,1,1v2.18H50V52.45c0-.47-.22-.69-.67-.69a.71.71,0,0,0-.73.73v2h-.5V52.37a.6.6,0,0,0-.66-.62.76.76,0,0,0-.73.8v2h-.5Z"/><path class="cls-4" d="M56.15,54.52H53.53V50.29h2.62v.47H54.06v1.36h2v.47h-2V54h2.09Z"/><path class="cls-4" d="M58.32,51.3a1.06,1.06,0,0,1,1.19.85H59a.64.64,0,0,0-.69-.42c-.37,0-.67.19-.67.47s.18.35.55.44l.49.12c.59.14.88.4.88.86s-.55,1-1.27,1-1.19-.34-1.24-.86h.52a.7.7,0,0,0,.74.44c.42,0,.73-.2.73-.49s-.16-.36-.5-.45L58,53.08c-.59-.14-.86-.4-.86-.86S57.65,51.3,58.32,51.3Z"/><path class="cls-4" d="M61.59,51.3a1.06,1.06,0,0,1,1.19.85h-.5a.64.64,0,0,0-.69-.42c-.37,0-.67.19-.67.47s.18.35.55.44l.49.12c.59.14.88.4.88.86s-.55,1-1.27,1-1.19-.34-1.24-.86h.52a.7.7,0,0,0,.74.44c.42,0,.73-.2.73-.49s-.16-.36-.5-.45l-.54-.13c-.59-.14-.86-.4-.86-.86S60.92,51.3,61.59,51.3Z"/><path class="cls-4" d="M66.4,53.7a1.26,1.26,0,0,1-1.33.87c-.88,0-1.42-.63-1.42-1.63a1.44,1.44,0,0,1,1.42-1.64c.85,0,1.37.61,1.37,1.59v.19H64.17v0c0,.62.38,1,.91,1a.82.82,0,0,0,.81-.43Zm-2.23-1h1.74a.85.85,0,0,0-.85-.93A.9.9,0,0,0,64.17,52.68Z"/><path class="cls-4" d="M33.84,66.78V62.55h.51l2.29,3.29h0V62.55h.52v4.23H36.7L34.41,63.5h0v3.28Z"/><path class="cls-4" d="M41,66.78h-.48v-.5h0a1,1,0,0,1-1,.55c-.71,0-1.08-.42-1.08-1.17v-2h.5v1.92c0,.57.21.83.71.83a.79.79,0,0,0,.86-.88V63.62H41Z"/><path class="cls-4" d="M42.12,62.37h.5v4.41h-.5Z"/><path class="cls-4" d="M43.81,62.37h.5v4.41h-.5Z"/><path class="cls-4" d="M45.29,65.89c0-.57.42-.89,1.15-.93l.91-.06v-.29c0-.39-.24-.6-.71-.6s-.64.14-.71.39h-.51c.07-.51.57-.84,1.24-.84s1.2.4,1.2,1.05v2.16h-.48v-.47h0a1.09,1.09,0,0,1-1,.52A1,1,0,0,1,45.29,65.89Zm2.06-.29v-.29l-.85.06c-.48,0-.69.2-.69.52s.27.51.64.51A.83.83,0,0,0,47.35,65.6Z"/><line class="cls-5" x1="28" y1="28.5" x2="76" y2="28.5"/><line class="cls-5" x1="28" y1="46.5" x2="76" y2="46.5"/><line class="cls-5" x1="28" y1="58.5" x2="76" y2="58.5"/></g><g id="Borders"><path class="cls-6" d="M99,1V79H1V1H99m1-1H0V80H100V0Z"/></g></svg>