<svg xmlns="http://www.w3.org/2000/svg" viewBox="0 0 100 80"><defs><style>.cls-1{fill:#e1e1e1;}.cls-2{fill:#fff;}.cls-3{fill:#666;}.cls-4{fill:#3083fb;}.cls-5{fill:none;stroke:#fafafa;stroke-linecap:round;stroke-miterlimit:10;stroke-width:1.5px;}.cls-6{fill:#8c8c8c;}</style></defs><title>VisualIndex_v3</title><g id="All"><rect class="cls-1" width="100" height="80"/><path class="cls-2" d="M27,50.5A2.5,2.5,0,0,1,24.5,48V32A2.5,2.5,0,0,1,27,29.5H58.5v21Z"/><path class="cls-3" d="M58,30V50H27a2,2,0,0,1-2-2V32a2,2,0,0,1,2-2H58m1-1H27a3,3,0,0,0-3,3V48a3,3,0,0,0,3,3H59V29Z"/><path class="cls-4" d="M61,29H76a0,0,0,0,1,0,0V51a0,0,0,0,1,0,0H61a3,3,0,0,1-3-3V32A3,3,0,0,1,61,29Z" transform="translate(134 80) rotate(180)"/><polyline class="cls-5" points="63 37.41 66.5 34 70 37.41"/><polyline class="cls-5" points="63 41.59 66.5 45 70 41.59"/><path class="cls-3" d="M39,38.93l-3.57-5.25H37l2.78,4.2h.12l2.83-4.2h1.5L40.61,39l3.58,5.26H42.61l-2.77-4.17h-.12L36.9,44.25H35.41Z"/><path class="cls-3" d="M45.79,47.06V46a3,3,0,0,0,.53,0c.73,0,1.12-.34,1.45-1.3l.15-.47L45,36.35h1.36l2.17,6.5h.12l2.16-6.5h1.34l-3.08,8.38c-.67,1.83-1.3,2.37-2.7,2.37A3.74,3.74,0,0,1,45.79,47.06Z"/></g><g id="Borders"><path class="cls-6" d="M99,1V79H1V1H99m1-1H0V80H100V0Z"/></g></svg>