<?xml version="1.0" encoding="UTF-8"?>
<svg width="100px" height="80px" viewBox="0 0 100 80" version="1.1" xmlns="http://www.w3.org/2000/svg" xmlns:xlink="http://www.w3.org/1999/xlink">
    <!-- Generator: Sketch 53.1 (72631) - https://sketchapp.com -->
    <title>SVG Layer</title>
    <desc>Created with Sketch.</desc>
    <defs>
        <rect id="path-1" x="0" y="0" width="100" height="80"></rect>
        <polygon id="path-3" points="0 0 100 0 100 80 0 80"></polygon>
        <polygon id="path-5" points="0 0 100 0 100 80 0 80"></polygon>
        <path d="M15.027,0.812 C7.176,0.812 0.812,7.176 0.812,15.027 C1.75,15 2.625,15 3.527,14.992 C5.375,15 12.875,15 14.992,15.027 C15,13.5 15.013,14.927 15.013,14.927 C15.013,14.927 15,3.562 15.027,0.812" id="path-7"></path>
    </defs>
    <g id="Page-1" stroke="none" stroke-width="1" fill="none" fill-rule="evenodd">
        <g id="SVG-Layer">
            <g id="Clipped">
                <mask id="mask-2" fill="white">
                    <use xlink:href="#path-1"></use>
                </mask>
                <g id="Rectangle"></g>
                <g mask="url(#mask-2)">
                    <mask id="mask-4" fill="white">
                        <use xlink:href="#path-3"></use>
                    </mask>
                    <g id="Path"></g>
                    <g id="Group" mask="url(#mask-4)">
                        <g fill-rule="nonzero">
                            <g fill="#E0E0E0" id="Path">
                                <path d="M0.5,79.499 C0.5,79.499 99.5,79.499 99.5,79.499 C99.5,79.499 99.5,0.501 99.5,0.501 C99.5,0.501 0.5,0.501 0.5,0.501 C0.5,0.501 0.5,79.499 0.5,79.499 Z"></path>
                            </g>
                            <g fill="#8B8B8B" id="Shape">
                                <path d="M1,1 C1,1 99,1 99,1 C99,1 99,79 99,79 C99,79 1,79 1,79 C1,79 1,1 1,1 Z M0,80 C0,80 100,80 100,80 C100,80 100,0 100,0 C100,0 0,0 0,0 C0,0 0,80 0,80 Z"></path>
                            </g>
                        </g>
                        <g transform="translate(36.000000, 26.000000)" fill-rule="nonzero" id="Path">
                            <g>
                                <path d="M14,28 C14,28 14,28 14,28 C6.268,28 0,21.732 0,14 C0,6.268 6.268,0 14,0 C21.732,0 28,6.268 28,14 C28,21.732 21.732,28 14,28 Z" fill="#8B8B8B"></path>
                                <path d="M14,28 C14,28 14,28 14,28 C6.268,28 0,21.732 0,14 C0,6.268 6.268,0 14,0 C21.732,0 28,6.268 28,14 C28,21.732 21.732,28 14,28 Z" stroke="#666666" fill-opacity="0" fill="#000000"></path>
                            </g>
                        </g>
                        <g id="Clipped">
                            <mask id="mask-6" fill="white">
                                <use xlink:href="#path-5"></use>
                            </mask>
                            <g id="Path"></g>
                            <g id="Group" opacity="0" mask="url(#mask-6)">
                                <g transform="translate(35.000000, 25.000000)" id="Clipped">
                                    <g>
                                        <mask id="mask-8" fill="white">
                                            <use xlink:href="#path-7"></use>
                                        </mask>
                                        <g id="Path"></g>
                                        <g id="Group" mask="url(#mask-8)">
                                            <g transform="translate(15.878696, 16.114717) rotate(-132.000000) translate(-15.878696, -16.114717) translate(2.378696, 2.114717)">
                                                <g transform="translate(0.193000, 0.000000)">
                                                    <path d="M25.193,23.388 C22.63,26.22 18.927,28 14.807,28 C7.075,28 0.807,21.733 0.807,14 C0.807,6.268 7.075,0 14.807,0 C14.807,0 14.807,14 14.807,14 C14.807,14 25.193,23.388 25.193,23.388 Z" id="Path" fill="#E0E0E0" fill-rule="nonzero"></path>
                                                </g>
                                            </g>
                                        </g>
                                    </g>
                                </g>
                            </g>
                        </g>
                        <g opacity="0.959999732" transform="translate(35.000000, 26.000000)" fill="#E0E0E0" fill-rule="nonzero" id="Path">
                            <g transform="translate(0.193000, 0.000000)">
                                <path d="M25.193,23.388 C22.63,26.22 18.927,28 14.807,28 C7.075,28 0.807,21.733 0.807,14 C0.807,6.268 7.075,0 14.807,0 C14.807,0 14.807,14 14.807,14 C14.807,14 25.193,23.388 25.193,23.388 Z"></path>
                            </g>
                        </g>
                        <g transform="translate(36.000000, 26.000000)" fill="#000000" fill-opacity="0" fill-rule="nonzero" id="Path" stroke="#666666">
                            <g>
                                <path d="M28,14 C28,21.732 21.732,28 14,28 C6.268,28 0,21.732 0,14 C0,6.268 6.268,0 14,0 C21.732,0 28,6.268 28,14 Z"></path>
                            </g>
                        </g>
                    </g>
                </g>
            </g>
        </g>
    </g>
</svg>