<?xml version="1.0" encoding="UTF-8"?>
<svg width="100px" height="80px" viewBox="0 0 100 80" version="1.1" xmlns="http://www.w3.org/2000/svg" xmlns:xlink="http://www.w3.org/1999/xlink">
    <!-- Generator: Sketch 53.1 (72631) - https://sketchapp.com -->
    <title>SVG Layer</title>
    <desc>Created with Sketch.</desc>
    <defs>
        <rect id="path-1" x="0" y="0" width="100" height="80"></rect>
        <polygon id="path-3" points="0 0 100 0 100 80 0 80"></polygon>
        <path d="M24.5,0.422 C24.5,0.422 0.625,0.422 0.625,0.422 C0.625,0.422 0.625,8.531 0.625,8.531 C0.625,8.531 24.5,8.531 24.5,8.531 C24.5,8.531 24.5,0.422 24.5,0.422" id="path-5"></path>
        <path d="M85.406,0.422 C85.406,0.422 0.625,0.422 0.625,0.422 C0.625,0.422 0.625,8.531 0.625,8.531 C0.625,8.531 85.406,8.531 85.406,8.531 C85.406,8.531 85.406,0.422 85.406,0.422" id="path-7"></path>
    </defs>
    <g id="Page-1" stroke="none" stroke-width="1" fill="none" fill-rule="evenodd">
        <g id="SVG-Layer">
            <g id="Clipped">
                <mask id="mask-2" fill="white">
                    <use xlink:href="#path-1"></use>
                </mask>
                <g id="Rectangle"></g>
                <g mask="url(#mask-2)">
                    <mask id="mask-4" fill="white">
                        <use xlink:href="#path-3"></use>
                    </mask>
                    <g id="Path"></g>
                    <g id="Group" mask="url(#mask-4)">
                        <g fill-rule="nonzero">
                            <g fill="#E0E0E0" id="Path">
                                <path d="M0.5,79.499 C0.5,79.499 99.5,79.499 99.5,79.499 C99.5,79.499 99.5,0.501 99.5,0.501 C99.5,0.501 0.5,0.501 0.5,0.501 C0.5,0.501 0.5,79.499 0.5,79.499 Z"></path>
                            </g>
                            <g fill="#8B8B8B" id="Shape">
                                <path d="M1,1 C1,1 99,1 99,1 C99,1 99,79 99,79 C99,79 1,79 1,79 C1,79 1,1 1,1 Z M0,80 C0,80 100,80 100,80 C100,80 100,0 100,0 C100,0 0,0 0,0 C0,0 0,80 0,80 Z"></path>
                            </g>
                        </g>
                        <g transform="translate(11.000000, 40.125000)" fill="#000000" fill-opacity="0" fill-rule="nonzero" id="Path" stroke="#B3B3B3" stroke-linecap="round" stroke-width="5">
                            <g>
                                <path d="M0.5,0.5 C0.5,0.5 78,0.5 78,0.5"></path>
                            </g>
                        </g>
                        <g id="Clipped" transform="translate(7.000000, 36.000000)">
                            <mask id="mask-6" fill="white">
                                <use xlink:href="#path-5"></use>
                            </mask>
                            <g id="Path"></g>
                            <g id="Group" mask="url(#mask-6)" fill-opacity="0" stroke-linecap="round">
                                <g transform="translate(4.000000, 4.125000)">
                                    <g>
                                        <path d="M0,0.5 C0,0.5 78,0.5 78,0.5" id="Path" stroke="#2F83FA" stroke-width="5" fill="#000000" fill-rule="nonzero"></path>
                                    </g>
                                </g>
                            </g>
                        </g>
                        <g id="Clipped" transform="translate(7.000000, 36.000000)">
                            <mask id="mask-8" fill="white">
                                <use xlink:href="#path-7"></use>
                            </mask>
                            <g id="Path"></g>
                            <g id="Group" opacity="2.58931669e-07" mask="url(#mask-8)" fill-opacity="0" stroke-linecap="round">
                                <g transform="translate(4.000000, 4.125000)">
                                    <g>
                                        <path d="M0,0.5 C0,0.5 78,0.5 78,0.5" id="Path" stroke="#2F83FA" stroke-width="5" fill="#000000" fill-rule="nonzero"></path>
                                    </g>
                                </g>
                            </g>
                        </g>
                    </g>
                </g>
            </g>
        </g>
    </g>
</svg>