<svg xmlns="http://www.w3.org/2000/svg" viewBox="0 0 100 80"><defs><style>.cls-1{fill:#e1e1e1;}.cls-2,.cls-4{fill:#fff;}.cls-2{stroke:#666;}.cls-2,.cls-3{stroke-miterlimit:10;}.cls-3{fill:#3083fb;stroke:#3083fb;}.cls-5{fill:#ccc;}.cls-6{fill:#8c8c8c;}</style></defs><title>VisualIndex_v3</title><g id="All"><rect class="cls-1" width="100" height="80"/><rect class="cls-2" x="39.27" y="44" width="22" height="22" rx="11" ry="11"/><path class="cls-3" d="M50,14h.16A10.92,10.92,0,0,1,61.05,24.92v0A11.08,11.08,0,0,1,50,36h0A10.92,10.92,0,0,1,39.05,25.08v-.16A10.92,10.92,0,0,1,50,14Z"/><path class="cls-4" d="M49.85,20h.29A4.85,4.85,0,0,1,55,24.85v.24A4.91,4.91,0,0,1,50.09,30h-.24A4.85,4.85,0,0,1,45,25.15v-.29A4.85,4.85,0,0,1,49.85,20Z"/><path class="cls-5" d="M99,1V79H1V1H99m1-1H0V80H100V0Z"/><path class="cls-5" d="M99,1V79H1V1H99m1-1H0V80H100V0Z"/></g><g id="Borders"><path class="cls-6" d="M99,1V79H1V1H99m1-1H0V80H100V0Z"/></g></svg>