<svg xmlns="http://www.w3.org/2000/svg" viewBox="0 0 100 80"><defs><style>.cls-1{fill:#e1e1e1;}.cls-2{fill:#b3b3b3;}.cls-3{fill:#ccc;}.cls-4{fill:#666;}.cls-5{fill:#fff;}.cls-6{fill:#8c8c8c;}</style></defs><title>VisualIndex_v3</title><g id="All"><rect class="cls-1" x="0.5" y="17.5" width="99" height="22"/><path class="cls-2" d="M99,18V39H1V18H99m1-1H0V40H100V17Z"/><rect class="cls-1" x="0.5" y="39.5" width="99" height="22"/><path class="cls-2" d="M99,40V61H1V40H99m1-1H0V62H100V39Z"/><rect class="cls-3" width="100" height="17"/><rect class="cls-1" x="0.5" y="61.5" width="99" height="18"/><path class="cls-2" d="M99,62V79H1V62H99m1-1H0V80H100V61Z"/><rect class="cls-1" x="5.5" y="44.5" width="34" height="13" rx="2" ry="2"/><path class="cls-2" d="M37.5,45A1.5,1.5,0,0,1,39,46.5v9A1.5,1.5,0,0,1,37.5,57H7.5A1.5,1.5,0,0,1,6,55.5v-9A1.5,1.5,0,0,1,7.5,45h30m0-1H7.5A2.5,2.5,0,0,0,5,46.5v9A2.5,2.5,0,0,0,7.5,58h30A2.5,2.5,0,0,0,40,55.5v-9A2.5,2.5,0,0,0,37.5,44Z"/><path class="cls-1" d="M59.5,57.5a2,2,0,0,1-2-2v-9a2,2,0,0,1,2-2h40v13Z"/><path class="cls-2" d="M99,45V57H59.5A1.5,1.5,0,0,1,58,55.5v-9A1.5,1.5,0,0,1,59.5,45H99m1-1H59.5A2.5,2.5,0,0,0,57,46.5v9A2.5,2.5,0,0,0,59.5,58H100V44Z"/><path class="cls-4" d="M7.42,29.29c.06.5.56.83,1.28.83s1.14-.34,1.14-.81-.31-.64-1-.81l-.73-.17c-1-.23-1.5-.74-1.5-1.58,0-1,.84-1.7,2.1-1.7a1.88,1.88,0,0,1,2.09,1.65h-1a1,1,0,0,0-1.12-.81c-.65,0-1.08.31-1.08.79s.29.6,1,.76l.65.15c1.14.26,1.63.73,1.63,1.59,0,1.1-.85,1.78-2.21,1.78s-2.15-.65-2.2-1.67Z"/><path class="cls-4" d="M15.59,29.64a1.77,1.77,0,0,1-1.9,1.26,2,2,0,0,1-2-2.21,2,2,0,0,1,2-2.24,1.89,1.89,0,0,1,1.95,2.16v.31h-3V29a1.06,1.06,0,0,0,1.07,1.16,1,1,0,0,0,1-.49Zm-2.94-1.37h2a1,1,0,0,0-1-1A1,1,0,0,0,12.65,28.27Z"/><path class="cls-4" d="M16.36,29.61c0-.77.58-1.22,1.62-1.28l1.1-.07V27.9c0-.42-.28-.65-.8-.65s-.75.16-.84.45h-.91c.08-.75.79-1.23,1.8-1.23S20,27,20,27.9v2.92h-.93v-.59H19a1.41,1.41,0,0,1-1.27.66A1.28,1.28,0,0,1,16.36,29.61Zm2.72-.36v-.34l-1,.06c-.54,0-.8.23-.8.58s.31.57.74.57A.94.94,0,0,0,19.09,29.25Z"/><path class="cls-4" d="M21.21,26.54h.93v.66h.07a1.13,1.13,0,0,1,1.13-.73,1.67,1.67,0,0,1,.4,0v.9a2.21,2.21,0,0,0-.5-.05,1,1,0,0,0-1.07,1v2.47h-1Z"/><path class="cls-4" d="M27.2,28a.89.89,0,0,0-.94-.71c-.66,0-1.06.51-1.06,1.4s.4,1.42,1.06,1.42a.87.87,0,0,0,.94-.68h.92a1.69,1.69,0,0,1-1.86,1.5,2,2,0,0,1-2-2.23,2,2,0,0,1,2-2.21A1.7,1.7,0,0,1,28.12,28Z"/><path class="cls-4" d="M29.08,24.89h1v2.34h.07a1.31,1.31,0,0,1,1.3-.77,1.4,1.4,0,0,1,1.47,1.59v2.76h-1V28.29c0-.65-.3-1-.86-1a.93.93,0,0,0-1,1v2.48h-1Z"/><path class="cls-4" d="M34.12,27.36a.63.63,0,1,1,.63.61A.6.6,0,0,1,34.12,27.36Zm0,2.93a.63.63,0,1,1,.63.62A.6.6,0,0,1,34.12,30.28Z"/><path class="cls-2" d="M45.49,48.78a.6.6,0,1,1,.6.54A.55.55,0,0,1,45.49,48.78ZM45.61,50h1v4.27h-1Z"/><path class="cls-2" d="M49.38,49.92c1,0,1.65.45,1.72,1.23H50.2c-.07-.3-.36-.49-.81-.49s-.77.21-.77.52.2.39.63.49l.75.17c.82.18,1.2.54,1.2,1.16,0,.82-.75,1.37-1.82,1.37s-1.74-.46-1.81-1.24h1c.09.32.39.5.88.5s.83-.21.83-.53-.18-.39-.59-.48l-.76-.18c-.82-.19-1.21-.57-1.21-1.21S48.38,49.92,49.38,49.92Z"/><rect class="cls-4" x="39" y="21" width="45" height="14" rx="2.5" ry="2.5"/><path class="cls-5" d="M45.1,30.82V26.05H43.36v-.87h4.48v.87H46.11v4.77Z"/><path class="cls-5" d="M48.84,24.89h1v2.34h.07a1.31,1.31,0,0,1,1.3-.77,1.4,1.4,0,0,1,1.47,1.59v2.76h-1V28.29c0-.65-.3-1-.86-1a.93.93,0,0,0-1,1v2.48h-1Z"/><path class="cls-5" d="M53.67,25.31a.6.6,0,1,1,.6.54A.55.55,0,0,1,53.67,25.31Zm.12,1.23h1v4.27h-1Z"/><path class="cls-5" d="M57.56,26.46c1,0,1.65.45,1.72,1.23h-.91c-.07-.3-.36-.49-.81-.49s-.77.21-.77.52.2.39.63.49l.75.17c.82.18,1.2.54,1.2,1.16,0,.82-.75,1.37-1.82,1.37s-1.74-.46-1.81-1.24h1c.09.32.39.5.88.5s.83-.21.83-.53-.18-.39-.59-.48L57.06,29c-.82-.19-1.21-.57-1.21-1.21S56.55,26.46,57.56,26.46Z"/><path class="cls-5" d="M67.47,30.82v-4h-.05L65.86,30.6h-.72l-1.56-3.75h-.05v4h-.94V25.18h1.18l1.7,4.11h.07l1.7-4.11h1.18v5.64Z"/><path class="cls-5" d="M69.46,29.61c0-.77.58-1.22,1.62-1.28l1.1-.07V27.9c0-.42-.28-.65-.8-.65s-.75.16-.84.45h-.91c.08-.75.79-1.23,1.8-1.23s1.71.54,1.71,1.44v2.92h-.93v-.59h-.07a1.41,1.41,0,0,1-1.27.66A1.28,1.28,0,0,1,69.46,29.61Zm2.72-.36v-.34l-1,.06c-.54,0-.8.23-.8.58s.31.57.74.57A.94.94,0,0,0,72.18,29.25Z"/><path class="cls-5" d="M77.07,28a.89.89,0,0,0-.94-.71c-.66,0-1.06.51-1.06,1.4s.4,1.42,1.06,1.42a.87.87,0,0,0,.94-.68H78a1.69,1.69,0,0,1-1.86,1.5,2,2,0,0,1-2-2.23,2,2,0,0,1,2-2.21A1.7,1.7,0,0,1,78,28Z"/><path class="cls-3" d="M99,1V79H1V1H99m1-1H0V80H100V0Z"/></g><g id="Borders"><path class="cls-6" d="M99,1V79H1V1H99m1-1H0V80H100V0Z"/></g></svg>