<svg xmlns="http://www.w3.org/2000/svg" viewBox="0 0 100 80"><defs><style>.cls-1{fill:#e1e1e1;}.cls-2{fill:#ccc;}.cls-3{fill:#fff;}.cls-4{fill:#666;}.cls-5{fill:#3083fb;}.cls-6,.cls-7{fill:none;stroke-miterlimit:10;}.cls-6{stroke:#fff;}.cls-7{stroke:#666;}.cls-8{fill:#8c8c8c;}</style></defs><title>VisualIndex_v3</title><g id="All"><rect class="cls-1" x="0.5" y="0.5" width="99" height="79"/><path class="cls-2" d="M99,1V79H1V1H99m1-1H0V80H100V0Z"/><path class="cls-3" d="M63.5,51.5v-22H90A2.5,2.5,0,0,1,92.5,32V49A2.5,2.5,0,0,1,90,51.5Z"/><path class="cls-4" d="M90,30a2,2,0,0,1,2,2V49a2,2,0,0,1-2,2H64V30H90m0-1H63V52H90a3,3,0,0,0,3-3V32a3,3,0,0,0-3-3Z"/><path class="cls-3" d="M10,51.5A2.5,2.5,0,0,1,7.5,49V32A2.5,2.5,0,0,1,10,29.5H36.5v22Z"/><path class="cls-4" d="M36,30V51H10a2,2,0,0,1-2-2V32a2,2,0,0,1,2-2H36m1-1H10a3,3,0,0,0-3,3V49a3,3,0,0,0,3,3H37V29Z"/><rect class="cls-5" x="35.5" y="29.5" width="28" height="22"/><path class="cls-5" d="M63,30V51H36V30H63m1-1H35V52H64V29Z"/><line class="cls-6" x1="44" y1="34.5" x2="56" y2="34.5"/><line class="cls-6" x1="46" y1="37.5" x2="53" y2="37.5"/><line class="cls-6" x1="45" y1="40.5" x2="55" y2="40.5"/><line class="cls-6" x1="46" y1="43.5" x2="53" y2="43.5"/><line class="cls-6" x1="44" y1="46.5" x2="56" y2="46.5"/><line class="cls-7" x1="16" y1="34.5" x2="28" y2="34.5"/><line class="cls-7" x1="16" y1="37.5" x2="22" y2="37.5"/><line class="cls-7" x1="16" y1="40.5" x2="26" y2="40.5"/><line class="cls-7" x1="16" y1="43.5" x2="22" y2="43.5"/><line class="cls-7" x1="16" y1="46.5" x2="28" y2="46.5"/><line class="cls-7" x1="72" y1="34.5" x2="83" y2="34.5"/><line class="cls-7" x1="77" y1="37.5" x2="83" y2="37.5"/><line class="cls-7" x1="73" y1="40.5" x2="83" y2="40.5"/><line class="cls-7" x1="77" y1="43.5" x2="83" y2="43.5"/><line class="cls-7" x1="72" y1="46.5" x2="83" y2="46.5"/></g><g id="Borders"><path class="cls-8" d="M99,1V79H1V1H99m1-1H0V80H100V0Z"/></g></svg>