<?xml version="1.0" encoding="UTF-8"?>
<svg width="100px" height="80px" viewBox="0 0 100 80" version="1.1" xmlns="http://www.w3.org/2000/svg" xmlns:xlink="http://www.w3.org/1999/xlink">
    <!-- Generator: Sketch 53.1 (72631) - https://sketchapp.com -->
    <title>SVG Layer</title>
    <desc>Created with Sketch.</desc>
    <defs>
        <rect id="path-1" x="0" y="0" width="100" height="80"></rect>
        <polygon id="path-3" points="0 0 100 0 100 80 0 80"></polygon>
        <polygon id="path-5" points="0 0 100 0 100 80 0 80"></polygon>
        <path d="M75.772,0.062 C75.772,0.062 0.5,0.062 0.5,0.062 C0.5,0.062 0.5,46.987 0.5,46.987 C0.5,46.987 75.772,46.987 75.772,46.987 C75.772,46.987 75.772,0.062 75.772,0.062" id="path-7"></path>
    </defs>
    <g id="Page-1" stroke="none" stroke-width="1" fill="none" fill-rule="evenodd">
        <g id="SVG-Layer">
            <g id="Clipped">
                <mask id="mask-2" fill="white">
                    <use xlink:href="#path-1"></use>
                </mask>
                <g id="Rectangle"></g>
                <g mask="url(#mask-2)">
                    <mask id="mask-4" fill="white">
                        <use xlink:href="#path-3"></use>
                    </mask>
                    <g id="Path"></g>
                    <g id="Group" mask="url(#mask-4)">
                        <g fill-rule="nonzero">
                            <g fill="#CCCCCC" id="Path">
                                <path d="M0,80 C0,80 100,80 100,80 C100,80 100,0 100,0 C100,0 0,0 0,0 C0,0 0,80 0,80 Z"></path>
                            </g>
                            <g transform="translate(7.000000, 17.000000)" fill="#E0E0E0" id="Path">
                                <path d="M3,55.5 C1.622,55.5 0.5,54.379 0.5,53 C0.5,53 0.5,0.5 0.5,0.5 C0.5,0.5 85.5,0.5 85.5,0.5 C85.5,0.5 85.5,53 85.5,53 C85.5,54.379 84.379,55.5 83,55.5 C83,55.5 3,55.5 3,55.5 Z"></path>
                            </g>
                            <g transform="translate(7.000000, 17.000000)" fill="#B3B3B3" id="Shape">
                                <path d="M85,1 C85,1 85,53 85,53 C85,54.103 84.103,55 83,55 C83,55 3,55 3,55 C1.897,55 1,54.103 1,53 C1,53 1,1 1,1 C1,1 85,1 85,1 Z M86,0 C86,0 0,0 0,0 C0,0 0,53 0,53 C0,54.657 1.343,56 3,56 C3,56 83,56 83,56 C84.657,56 86,54.657 86,53 C86,53 86,0 86,0 Z"></path>
                            </g>
                            <g transform="translate(7.000000, 7.000000)" fill="#E0E0E0" id="Path">
                                <path d="M0.5,17.5 C0.5,17.5 0.5,3 0.5,3 C0.5,1.622 1.622,0.5 3,0.5 C3,0.5 83,0.5 83,0.5 C84.379,0.5 85.5,1.622 85.5,3 C85.5,3 85.5,17.5 85.5,17.5 C85.5,17.5 0.5,17.5 0.5,17.5 Z"></path>
                            </g>
                            <g transform="translate(7.000000, 7.000000)" fill="#B3B3B3" id="Shape">
                                <path d="M83,1 C84.103,1 85,1.897 85,3 C85,3 85,17 85,17 C85,17 1,17 1,17 C1,17 1,3 1,3 C1,1.897 1.897,1 3,1 C3,1 83,1 83,1 Z M83,0 C83,0 3,0 3,0 C1.343,0 0,1.343 0,3 C0,3 0,18 0,18 C0,18 86,18 86,18 C86,18 86,3 86,3 C86,1.343 84.657,0 83,0 Z"></path>
                            </g>
                            <g transform="translate(7.000000, 7.000000)" fill="#B3B3B3" id="Shape">
                                <path d="M83,1 C84.103,1 85,1.897 85,3 C85,3 85,10 85,10 C85,10 85,18 85,18 C85,18 85,63 85,63 C85,64.103 84.103,65 83,65 C83,65 3,65 3,65 C1.897,65 1,64.103 1,63 C1,63 1,18 1,18 C1,18 1,10 1,10 C1,10 1,3 1,3 C1,1.897 1.897,1 3,1 C3,1 83,1 83,1 Z M83,0 C83,0 3,0 3,0 C1.343,0 0,1.343 0,3 C0,3 0,10 0,10 C0,10 0,18 0,18 C0,18 0,63 0,63 C0,64.657 1.343,66 3,66 C3,66 83,66 83,66 C84.657,66 86,64.657 86,63 C86,63 86,18 86,18 C86,18 86,10 86,10 C86,10 86,3 86,3 C86,1.343 84.657,0 83,0 Z"></path>
                            </g>
                            <g transform="translate(11.000000, 10.500000)" fill="#E0E0E0" id="Path">
                                <path d="M3,5.5 C1.622,5.5 0.5,4.378 0.5,3 C0.5,1.622 1.622,0.5 3,0.5 C4.378,0.5 5.5,1.622 5.5,3 C5.5,4.378 4.378,5.5 3,5.5 Z"></path>
                            </g>
                            <g transform="translate(11.000000, 10.500000)" fill="#B3B3B3" id="Shape">
                                <path d="M3,1 C4.103,1 5,1.897 5,3 C5,4.103 4.103,5 3,5 C1.897,5 1,4.103 1,3 C1,1.897 1.897,1 3,1 Z M3,0 C1.343,0 0,1.343 0,3 C0,4.657 1.343,6 3,6 C4.657,6 6,4.657 6,3 C6,1.343 4.657,0 3,0 Z"></path>
                            </g>
                            <g transform="translate(19.400000, 10.500000)" fill="#E0E0E0" id="Path">
                                <path d="M3,5.5 C1.622,5.5 0.5,4.378 0.5,3 C0.5,1.622 1.622,0.5 3,0.5 C4.378,0.5 5.5,1.622 5.5,3 C5.5,4.378 4.378,5.5 3,5.5 Z"></path>
                            </g>
                            <g transform="translate(19.400000, 10.500000)" fill="#B3B3B3" id="Shape">
                                <path d="M3,1 C4.103,1 5,1.897 5,3 C5,4.103 4.103,5 3,5 C1.897,5 1,4.103 1,3 C1,1.897 1.897,1 3,1 Z M3,0 C1.343,0 0,1.343 0,3 C0,4.657 1.343,6 3,6 C4.657,6 6,4.657 6,3 C6,1.343 4.657,0 3,0 Z"></path>
                            </g>
                            <g transform="translate(27.800000, 10.500000)" fill="#E0E0E0" id="Path">
                                <path d="M3,5.5 C1.622,5.5 0.5,4.378 0.5,3 C0.5,1.622 1.622,0.5 3,0.5 C4.378,0.5 5.5,1.622 5.5,3 C5.5,4.378 4.378,5.5 3,5.5 Z"></path>
                            </g>
                            <g transform="translate(27.800000, 10.500000)" fill="#B3B3B3" id="Shape">
                                <path d="M3,1 C4.103,1 5,1.897 5,3 C5,4.103 4.103,5 3,5 C1.897,5 1,4.103 1,3 C1,1.897 1.897,1 3,1 Z M3,0 C1.343,0 0,1.343 0,3 C0,4.657 1.343,6 3,6 C4.657,6 6,4.657 6,3 C6,1.343 4.657,0 3,0 Z"></path>
                            </g>
                            <g transform="translate(53.000000, 12.500000)" id="Path">
                                <path d="M14,8 C14,8 2,8 2,8 C1.172,8 0.5,7.329 0.5,6.5 C0.5,6.5 0.5,1.5 0.5,1.5 C0.5,0.671 1.172,0 2,0 C2,0 14,0 14,0 C14.828,0 15.5,0.671 15.5,1.5 C15.5,1.5 15.5,6.5 15.5,6.5 C15.5,7.329 14.828,8 14,8 Z" fill="#E0E0E0"></path>
                                <path d="M14,8 C14,8 2,8 2,8 C1.172,8 0.5,7.329 0.5,6.5 C0.5,6.5 0.5,1.5 0.5,1.5 C0.5,0.671 1.172,0 2,0 C2,0 14,0 14,0 C14.828,0 15.5,0.671 15.5,1.5 C15.5,1.5 15.5,6.5 15.5,6.5 C15.5,7.329 14.828,8 14,8 Z" stroke="#B3B3B3" fill-opacity="0" fill="#000000"></path>
                            </g>
                            <g transform="translate(71.994000, 12.500000)" id="Path">
                                <path d="M14,8 C14,8 2,8 2,8 C1.171,8 0.5,7.329 0.5,6.5 C0.5,6.5 0.5,1.5 0.5,1.5 C0.5,0.671 1.171,0 2,0 C2,0 14,0 14,0 C14.828,0 15.5,0.671 15.5,1.5 C15.5,1.5 15.5,6.5 15.5,6.5 C15.5,7.329 14.828,8 14,8 Z" fill="#E0E0E0"></path>
                                <path d="M14,8 C14,8 2,8 2,8 C1.171,8 0.5,7.329 0.5,6.5 C0.5,6.5 0.5,1.5 0.5,1.5 C0.5,0.671 1.171,0 2,0 C2,0 14,0 14,0 C14.828,0 15.5,0.671 15.5,1.5 C15.5,1.5 15.5,6.5 15.5,6.5 C15.5,7.329 14.828,8 14,8 Z" stroke="#B3B3B3" fill-opacity="0" fill="#000000"></path>
                            </g>
                            <g transform="translate(8.000000, 24.000000)" fill="#000000" fill-opacity="0" id="Path" stroke="#666666">
                                <path d="M0,0.5 C0,0.5 84,0.5 84,0.5"></path>
                            </g>
                            <g fill="#8B8B8B" id="Shape">
                                <path d="M0,80 C0,80 100,80 100,80 C100,80 100,0 100,0 C100,0 0,0 0,0 C0,0 0,80 0,80 Z M0,0 C0,0 100,0 100,0 C100,0 100,80 100,80 C100,80 0,80 0,80 C0,80 0,0 0,0 Z M99,79 C99,79 1,79 1,79 C1,79 1,1 1,1 C1,1 99,1 99,1 C99,1 99,79 99,79 Z M100,0 C100,0 0,0 0,0 C0,0 0,80 0,80 C0,80 100,80 100,80 C100,80 100,0 100,0 Z"></path>
                            </g>
                        </g>
                        <g id="Clipped">
                            <mask id="mask-6" fill="white">
                                <use xlink:href="#path-5"></use>
                            </mask>
                            <g id="Path"></g>
                            <g id="Group" mask="url(#mask-6)">
                                <g transform="translate(12.000000, 25.000000)" id="Clipped">
                                    <g>
                                        <mask id="mask-8" fill="white">
                                            <use xlink:href="#path-7"></use>
                                        </mask>
                                        <g id="Path"></g>
                                        <g id="Group" mask="url(#mask-8)">
                                            <g transform="translate(2.000000, -19.000000)">
                                                <g>
                                                    <g transform="translate(0.000000, 1.500000)" fill="#FFFFFF" fill-rule="nonzero" id="Path">
                                                        <path d="M0.5,0 C0.5,0 71.5,0 71.5,0 C71.5,0 71.5,58 71.5,58 C71.5,58 0.5,58 0.5,58 C0.5,58 0.5,0 0.5,0 Z"></path>
                                                    </g>
                                                    <g transform="translate(0.000000, 0.500000)" fill="#666666" fill-rule="nonzero" id="Shape">
                                                        <path d="M71,58.5 C71,58.5 1,58.5 1,58.5 C1,58.5 1,1.5 1,1.5 C1,1.5 71,1.5 71,1.5 C71,1.5 71,58.5 71,58.5 Z M72,0.5 C72,0.5 0,0.5 0,0.5 C0,0.5 0,59.5 0,59.5 C0,59.5 72,59.5 72,59.5 C72,59.5 72,0.5 72,0.5 Z"></path>
                                                    </g>
                                                    <g transform="translate(6.000000, 29.000000)" fill="#B3B3B3" fill-rule="nonzero" id="Path">
                                                        <path d="M16,14 C16,14 0,14 0,14 C0,14 0,0 0,0 C0,0 16,0 16,0 C16,0 16,14 16,14 Z"></path>
                                                    </g>
                                                    <g transform="translate(6.000000, 41.000000)" fill="#666666" fill-rule="nonzero" id="Path">
                                                        <path d="M16,6 C16,6 0,6 0,6 C0,6 0,0 0,0 C0,0 16,0 16,0 C16,0 16,6 16,6 Z"></path>
                                                    </g>
                                                    <g transform="translate(6.000000, 24.500000)" fill="#8B8B8B" fill-rule="nonzero" id="Path">
                                                        <path d="M16,7.5 C16,7.5 0,7.5 0,7.5 C0,7.5 0,0.5 0,0.5 C0,0.5 16,0.5 16,0.5 C16,0.5 16,7.5 16,7.5 Z"></path>
                                                    </g>
                                                    <g transform="translate(6.000000, 37.000000)" fill="#000000" fill-opacity="0" fill-rule="nonzero" id="Path" stroke="#E0E0E0">
                                                        <path d="M0,1 C0,1 16,1 16,1"></path>
                                                    </g>
                                                    <g transform="translate(6.000000, 39.000000)" fill="#000000" fill-opacity="0" fill-rule="nonzero" id="Path" stroke="#E0E0E0">
                                                        <path d="M0,0.5 C0,0.5 16,0.5 16,0.5"></path>
                                                    </g>
                                                    <g transform="translate(6.000000, 40.000000)" fill="#000000" fill-opacity="0" fill-rule="nonzero" id="Path" stroke="#E0E0E0">
                                                        <path d="M0,1 C0,1 16,1 16,1"></path>
                                                    </g>
                                                    <g transform="translate(6.000000, 36.000000)" fill="#000000" fill-opacity="0" fill-rule="nonzero" id="Path" stroke="#E0E0E0" stroke-width="0.5">
                                                        <path d="M0,0.5 C0,0.5 16,0.5 16,0.5"></path>
                                                    </g>
                                                    <g transform="translate(6.000000, 30.000000)" fill="#000000" fill-opacity="0" fill-rule="nonzero" id="Path" stroke="#B3B3B3">
                                                        <path d="M0,1 C0,1 16,1 16,1"></path>
                                                    </g>
                                                    <g transform="translate(6.000000, 32.000000)" fill="#000000" fill-opacity="0" fill-rule="nonzero" id="Path" stroke="#B3B3B3">
                                                        <path d="M0,0.5 C0,0.5 16,0.5 16,0.5"></path>
                                                    </g>
                                                    <g transform="translate(6.000000, 29.000000)" fill="#000000" fill-opacity="0" fill-rule="nonzero" id="Path" stroke="#B3B3B3">
                                                        <path d="M0,0.5 C0,0.5 16,0.5 16,0.5"></path>
                                                    </g>
                                                    <g transform="translate(6.000000, 27.000000)" fill="#000000" fill-opacity="0" fill-rule="nonzero" id="Path" stroke="#B3B3B3" stroke-width="0.5">
                                                        <path d="M0,1 C0,1 16,1 16,1"></path>
                                                    </g>
                                                    <g transform="translate(11.000000, 38.000000)" fill="#F9F9F9" fill-rule="nonzero" id="Path">
                                                        <path d="M0,3.5 C0,1.843 1.343,0.5 3,0.5 C4.657,0.5 6,1.843 6,3.5 C6,3.5 0,3.5 0,3.5 Z"></path>
                                                    </g>
                                                    <g transform="translate(6.000000, 41.000000)" fill="#000000" fill-opacity="0" fill-rule="nonzero" id="Path" stroke="#B3B3B3" stroke-width="0.5">
                                                        <path d="M0,1 C0,1 16,1 16,1"></path>
                                                    </g>
                                                    <g transform="translate(6.000000, 42.000000)" fill="#000000" fill-opacity="0" fill-rule="nonzero" id="Path" stroke="#8B8B8B" stroke-width="0.5">
                                                        <path d="M0,1 C0,1 16,1 16,1"></path>
                                                    </g>
                                                    <g transform="translate(7.000000, 42.000000)" fill="#000000" fill-opacity="0" fill-rule="nonzero" id="Path" stroke="#8B8B8B" stroke-width="0.5">
                                                        <path d="M0,0.5 C0,0.5 15,0.5 15,0.5"></path>
                                                    </g>
                                                    <g transform="translate(6.000000, 43.000000)" fill="#000000" fill-opacity="0" fill-rule="nonzero" id="Path" stroke="#B3B3B3" stroke-width="0.5">
                                                        <path d="M0,0.5 C0,0.5 16,0.5 16,0.5"></path>
                                                    </g>
                                                    <g transform="translate(20.000000, 44.000000)" fill="#000000" fill-opacity="0" fill-rule="nonzero" id="Path" stroke="#B3B3B3" stroke-width="0.5">
                                                        <path d="M0.5,0.5 C0.5,0.5 2,0.5 2,0.5"></path>
                                                    </g>
                                                    <g transform="translate(18.000000, 45.000000)" fill="#000000" fill-opacity="0" fill-rule="nonzero" id="Path" stroke="#8B8B8B" stroke-width="0.5">
                                                        <path d="M0.5,0.5 C0.5,0.5 4,0.5 4,0.5"></path>
                                                    </g>
                                                    <g transform="translate(10.000000, 41.000000)" fill="#000000" fill-opacity="0" fill-rule="nonzero" id="Path" stroke="#E0E0E0" stroke-width="0.5">
                                                        <path d="M0,1 C0,1 8,1 8,1"></path>
                                                    </g>
                                                    <g transform="translate(10.000000, 43.000000)" fill="#000000" fill-opacity="0" fill-rule="nonzero" id="Path" stroke="#F9F9F9" stroke-width="0.5">
                                                        <path d="M0,1 C0,1 8,1 8,1"></path>
                                                    </g>
                                                    <g transform="translate(9.000000, 44.000000)" fill="#000000" fill-opacity="0" fill-rule="nonzero" id="Path" stroke="#E0E0E0" stroke-width="0.5">
                                                        <path d="M0,1 C0,1 8,1 8,1"></path>
                                                    </g>
                                                    <g transform="translate(10.000000, 45.000000)" fill="#000000" fill-opacity="0" fill-rule="nonzero" id="Path" stroke="#E0E0E0" stroke-width="0.5">
                                                        <path d="M0,1 C0,1 8,1 8,1"></path>
                                                    </g>
                                                    <g transform="translate(6.000000, 44.000000)" fill="#000000" fill-opacity="0" fill-rule="nonzero" id="Path" stroke="#F9F9F9" stroke-width="0.5">
                                                        <path d="M0,0.5 C0,0.5 1,0.5 1,0.5"></path>
                                                    </g>
                                                    <g transform="translate(9.000000, 46.000000)" fill="#000000" fill-opacity="0" fill-rule="nonzero" id="Path" stroke="#F9F9F9" stroke-width="0.5">
                                                        <path d="M0,0.5 C0,0.5 3,0.5 3,0.5"></path>
                                                    </g>
                                                    <g transform="translate(12.000000, 44.000000)" fill="#000000" fill-opacity="0" fill-rule="nonzero" id="Path" stroke="#F9F9F9" stroke-width="0.5">
                                                        <path d="M0,0.5 C0,0.5 3,0.5 3,0.5"></path>
                                                    </g>
                                                    <g transform="translate(12.000000, 42.000000)" fill="#000000" fill-opacity="0" fill-rule="nonzero" id="Path" stroke="#E0E0E0" stroke-width="0.5">
                                                        <path d="M0,0.5 C0,0.5 3,0.5 3,0.5"></path>
                                                    </g>
                                                    <g transform="translate(16.000000, 43.000000)" fill="#000000" fill-opacity="0" fill-rule="nonzero" id="Path" stroke="#F9F9F9" stroke-width="0.5">
                                                        <path d="M0,0.5 C0,0.5 3,0.5 3,0.5"></path>
                                                    </g>
                                                    <g transform="translate(9.000000, 42.000000)" fill="#000000" fill-opacity="0" fill-rule="nonzero" id="Path" stroke="#E0E0E0" stroke-width="0.5">
                                                        <path d="M0,1 C0,1 11,1 11,1"></path>
                                                    </g>
                                                    <g transform="translate(19.000000, 44.000000)" fill="#000000" fill-opacity="0" fill-rule="nonzero" id="Path" stroke="#F9F9F9" stroke-width="0.5">
                                                        <path d="M0,1 C0,1 3,1 3,1"></path>
                                                    </g>
                                                    <g transform="translate(5.000000, 24.000000)" fill="#8B8B8B" fill-rule="nonzero" id="Shape">
                                                        <path d="M17,23 C17,23 1,23 1,23 C1,23 1,1 1,1 C1,1 17,1 17,1 C17,1 17,23 17,23 Z M18,0 C18,0 0,0 0,0 C0,0 0,24 0,24 C0,24 18,24 18,24 C18,24 18,0 18,0 Z"></path>
                                                    </g>
                                                    <g transform="translate(54.500000, 48.500000)" fill-rule="nonzero" id="Path">
                                                        <path d="M11,6 C11,6 1,6 1,6 C0.447,6 0,5.553 0,5 C0,5 0,1 0,1 C0,0.447 0.447,0 1,0 C1,0 11,0 11,0 C11.553,0 12,0.447 12,1 C12,1 12,5 12,5 C12,5.553 11.553,6 11,6 Z" fill="#E0E0E0"></path>
                                                        <path d="M11,6 C11,6 1,6 1,6 C0.447,6 0,5.553 0,5 C0,5 0,1 0,1 C0,0.447 0.447,0 1,0 C1,0 11,0 11,0 C11.553,0 12,0.447 12,1 C12,1 12,5 12,5 C12,5.553 11.553,6 11,6 Z" stroke="#B3B3B3" fill-opacity="0" fill="#000000"></path>
                                                    </g>
                                                    <g transform="translate(39.500000, 48.500000)" fill-rule="nonzero" id="Path">
                                                        <path d="M11,6 C11,6 1,6 1,6 C0.447,6 0,5.553 0,5 C0,5 0,1 0,1 C0,0.447 0.447,0 1,0 C1,0 11,0 11,0 C11.553,0 12,0.447 12,1 C12,1 12,5 12,5 C12,5.553 11.553,6 11,6 Z" fill="#E0E0E0"></path>
                                                        <path d="M11,6 C11,6 1,6 1,6 C0.447,6 0,5.553 0,5 C0,5 0,1 0,1 C0,0.447 0.447,0 1,0 C1,0 11,0 11,0 C11.553,0 12,0.447 12,1 C12,1 12,5 12,5 C12,5.553 11.553,6 11,6 Z" stroke="#B3B3B3" fill-opacity="0" fill="#000000"></path>
                                                    </g>
                                                    <g transform="translate(27.822000, 24.548000)" fill="#8B8B8B" fill-rule="nonzero" id="Path">
                                                        <path d="M3.283,5.114 C3.283,5.114 0.717,5.114 0.717,5.114 C0.717,5.114 0.717,0.886 0.717,0.886 C0.717,0.886 1.244,0.886 1.244,0.886 C1.244,0.886 1.244,4.639 1.244,4.639 C1.244,4.639 3.283,4.639 3.283,4.639 C3.283,4.639 3.283,5.114 3.283,5.114 Z"></path>
                                                    </g>
                                                    <g transform="translate(31.213000, 26.083000)" fill="#8B8B8B" fill-rule="nonzero" id="Shape">
                                                        <path d="M0.544,2 C0.544,0.983 1.101,0.365 2,0.365 C2.9,0.365 3.456,0.983 3.456,2 C3.456,3.014 2.9,3.635 2,3.635 C1.101,3.635 0.544,3.014 0.544,2 Z M2.935,2 C2.935,1.25 2.598,0.819 2,0.819 C1.403,0.819 1.066,1.25 1.066,2 C1.066,2.747 1.403,3.181 2,3.181 C2.598,3.181 2.935,2.747 2.935,2 Z"></path>
                                                    </g>
                                                    <g transform="translate(35.103000, 24.484000)" fill="#8B8B8B" fill-rule="nonzero" id="Shape">
                                                        <path d="M1.094,4.674 C1.094,4.674 1.047,4.674 1.047,4.674 C1.047,4.674 1.047,5.178 1.047,5.178 C1.047,5.178 0.567,5.178 0.567,5.178 C0.567,5.178 0.567,0.766 0.567,0.766 C0.567,0.766 1.071,0.766 1.071,0.766 C1.071,0.766 1.071,2.518 1.071,2.518 C1.071,2.518 1.118,2.518 1.118,2.518 C1.29,2.178 1.674,1.964 2.108,1.964 C2.911,1.964 3.433,2.606 3.433,3.599 C3.433,4.586 2.907,5.234 2.108,5.234 C1.668,5.234 1.293,5.026 1.094,4.674 Z M1.059,3.599 C1.059,4.328 1.416,4.78 1.991,4.78 C2.567,4.78 2.911,4.337 2.911,3.599 C2.911,2.861 2.567,2.418 1.991,2.418 C1.416,2.418 1.059,2.87 1.059,3.599 Z"></path>
                                                    </g>
                                                    <g transform="translate(38.803000, 26.083000)" fill="#8B8B8B" fill-rule="nonzero" id="Shape">
                                                        <path d="M0.544,2 C0.544,0.983 1.101,0.365 2,0.365 C2.9,0.365 3.456,0.983 3.456,2 C3.456,3.014 2.9,3.635 2,3.635 C1.101,3.635 0.544,3.014 0.544,2 Z M2.935,2 C2.935,1.25 2.598,0.819 2,0.819 C1.403,0.819 1.066,1.25 1.066,2 C1.066,2.747 1.403,3.181 2,3.181 C2.598,3.181 2.935,2.747 2.935,2 Z"></path>
                                                    </g>
                                                    <g transform="translate(43.058000, 26.055000)" fill="#8B8B8B" fill-rule="nonzero" id="Path">
                                                        <path d="M0.172,0.449 C0.172,0.449 0.652,0.449 0.652,0.449 C0.652,0.449 0.652,0.918 0.652,0.918 C0.652,0.918 0.699,0.918 0.699,0.918 C0.793,0.61 1.156,0.393 1.576,0.393 C1.658,0.393 1.764,0.399 1.828,0.408 C1.828,0.408 1.828,0.912 1.828,0.912 C1.787,0.9 1.606,0.883 1.506,0.883 C1.026,0.883 0.676,1.205 0.676,1.65 C0.676,1.65 0.676,3.607 0.676,3.607 C0.676,3.607 0.172,3.607 0.172,3.607 C0.172,3.607 0.172,0.449 0.172,0.449 Z"></path>
                                                    </g>
                                                    <g transform="translate(45.430000, 25.686000)" fill="#8B8B8B" fill-rule="nonzero" id="Path">
                                                        <path d="M1.156,0.001 C1.156,0.001 1.156,0.818 1.156,0.818 C1.156,0.818 1.859,0.818 1.859,0.818 C1.859,0.818 1.859,1.24 1.859,1.24 C1.859,1.24 1.156,1.24 1.156,1.24 C1.156,1.24 1.156,3.027 1.156,3.027 C1.156,3.399 1.296,3.558 1.624,3.558 C1.716,3.558 1.765,3.555 1.859,3.546 C1.859,3.546 1.859,3.971 1.859,3.971 C1.76,3.988 1.664,3.999 1.564,3.999 C0.914,3.999 0.652,3.76 0.652,3.156 C0.652,3.156 0.652,1.24 0.652,1.24 C0.652,1.24 0.141,1.24 0.141,1.24 C0.141,1.24 0.141,0.818 0.141,0.818 C0.141,0.818 0.652,0.818 0.652,0.818 C0.652,0.818 0.652,0.001 0.652,0.001 C0.652,0.001 1.156,0.001 1.156,0.001 Z"></path>
                                                    </g>
                                                    <g transform="translate(47.495000, 24.410000)" fill="#8B8B8B" fill-rule="nonzero" id="Shape">
                                                        <path d="M0.648,1.1 C0.648,0.906 0.806,0.749 0.999,0.749 C1.192,0.749 1.352,0.906 1.352,1.1 C1.352,1.293 1.192,1.451 0.999,1.451 C0.806,1.451 0.648,1.293 0.648,1.1 Z M0.747,2.094 C0.747,2.094 1.252,2.094 1.252,2.094 C1.252,2.094 1.252,5.252 1.252,5.252 C1.252,5.252 0.747,5.252 0.747,5.252 C0.747,5.252 0.747,2.094 0.747,2.094 Z"></path>
                                                    </g>
                                                    <g transform="translate(48.983000, 26.083000)" fill="#8B8B8B" fill-rule="nonzero" id="Path">
                                                        <path d="M2.009,0.365 C2.671,0.365 3.131,0.693 3.198,1.212 C3.198,1.212 2.7,1.212 2.7,1.212 C2.633,0.96 2.387,0.793 2.006,0.793 C1.631,0.793 1.338,0.983 1.338,1.264 C1.338,1.481 1.514,1.616 1.886,1.707 C1.886,1.707 2.372,1.824 2.372,1.824 C2.967,1.968 3.254,2.225 3.254,2.679 C3.254,3.245 2.706,3.635 1.988,3.635 C1.285,3.635 0.802,3.298 0.746,2.773 C0.746,2.773 1.265,2.773 1.265,2.773 C1.35,3.04 1.602,3.21 2.006,3.21 C2.431,3.21 2.736,3.008 2.736,2.718 C2.736,2.501 2.571,2.354 2.235,2.272 C2.235,2.272 1.693,2.14 1.693,2.14 C1.101,1.997 0.831,1.742 0.831,1.285 C0.831,0.761 1.338,0.365 2.009,0.365 Z"></path>
                                                    </g>
                                                    <g transform="translate(54.372000, 26.055000)" fill="#8B8B8B" fill-rule="nonzero" id="Path">
                                                        <path d="M0.71,0.449 C0.71,0.449 1.189,0.449 1.189,0.449 C1.189,0.449 1.189,0.947 1.189,0.947 C1.189,0.947 1.236,0.947 1.236,0.947 C1.395,0.598 1.703,0.393 2.187,0.393 C2.896,0.393 3.29,0.812 3.29,1.562 C3.29,1.562 3.29,3.607 3.29,3.607 C3.29,3.607 2.786,3.607 2.786,3.607 C2.786,3.607 2.786,1.685 2.786,1.685 C2.786,1.117 2.546,0.847 2.042,0.847 C1.538,0.847 1.214,1.184 1.214,1.738 C1.214,1.738 1.214,3.607 1.214,3.607 C1.214,3.607 0.71,3.607 0.71,3.607 C0.71,3.607 0.71,0.449 0.71,0.449 Z"></path>
                                                    </g>
                                                    <g transform="translate(58.027000, 24.410000)" fill="#8B8B8B" fill-rule="nonzero" id="Shape">
                                                        <path d="M0.648,1.1 C0.648,0.906 0.806,0.749 0.999,0.749 C1.193,0.749 1.352,0.906 1.352,1.1 C1.352,1.293 1.193,1.451 0.999,1.451 C0.806,1.451 0.648,1.293 0.648,1.1 Z M0.747,2.094 C0.747,2.094 1.251,2.094 1.251,2.094 C1.251,2.094 1.251,5.252 1.251,5.252 C1.251,5.252 0.747,5.252 0.747,5.252 C0.747,5.252 0.747,2.094 0.747,2.094 Z"></path>
                                                    </g>
                                                    <g transform="translate(59.515000, 26.083000)" fill="#8B8B8B" fill-rule="nonzero" id="Path">
                                                        <path d="M2.008,0.365 C2.67,0.365 3.131,0.693 3.197,1.212 C3.197,1.212 2.699,1.212 2.699,1.212 C2.633,0.96 2.387,0.793 2.006,0.793 C1.631,0.793 1.338,0.983 1.338,1.264 C1.338,1.481 1.514,1.616 1.885,1.707 C1.885,1.707 2.371,1.824 2.371,1.824 C2.967,1.968 3.254,2.225 3.254,2.679 C3.254,3.245 2.705,3.635 1.988,3.635 C1.285,3.635 0.801,3.298 0.746,2.773 C0.746,2.773 1.264,2.773 1.264,2.773 C1.35,3.04 1.602,3.21 2.006,3.21 C2.43,3.21 2.735,3.008 2.735,2.718 C2.735,2.501 2.57,2.354 2.235,2.272 C2.235,2.272 1.692,2.14 1.692,2.14 C1.1,1.997 0.83,1.742 0.83,1.285 C0.83,0.761 1.338,0.365 2.008,0.365 Z"></path>
                                                    </g>
                                                    <g transform="translate(63.022000, 24.456000)" fill="#8B8B8B" fill-rule="nonzero" id="Path">
                                                        <path d="M0.748,0.794 C0.748,0.794 1.252,0.794 1.252,0.794 C1.252,0.794 1.252,5.206 1.252,5.206 C1.252,5.206 0.748,5.206 0.748,5.206 C0.748,5.206 0.748,0.794 0.748,0.794 Z"></path>
                                                    </g>
                                                    <g transform="translate(28.262000, 32.549000)" fill="#8B8B8B" fill-rule="nonzero" id="Shape">
                                                        <path d="M1.727,0.886 C2.981,0.886 3.723,1.668 3.723,2.998 C3.723,4.331 2.984,5.114 1.727,5.114 C1.727,5.114 0.277,5.114 0.277,5.114 C0.277,5.114 0.277,0.886 0.277,0.886 C0.277,0.886 1.727,0.886 1.727,0.886 Z M0.805,4.639 C0.805,4.639 1.692,4.639 1.692,4.639 C2.635,4.639 3.184,4.035 3.184,3.004 C3.184,1.97 2.629,1.361 1.692,1.361 C1.692,1.361 0.805,1.361 0.805,1.361 C0.805,1.361 0.805,4.639 0.805,4.639 Z"></path>
                                                    </g>
                                                    <g transform="translate(32.274000, 34.111000)" fill="#8B8B8B" fill-rule="nonzero" id="Path">
                                                        <path d="M3.292,3.551 C3.292,3.551 2.812,3.551 2.812,3.551 C2.812,3.551 2.812,3.056 2.812,3.056 C2.812,3.056 2.765,3.056 2.765,3.056 C2.606,3.407 2.27,3.607 1.786,3.607 C1.077,3.607 0.708,3.185 0.708,2.438 C0.708,2.438 0.708,0.393 0.708,0.393 C0.708,0.393 1.212,0.393 1.212,0.393 C1.212,0.393 1.212,2.315 1.212,2.315 C1.212,2.883 1.423,3.147 1.927,3.147 C2.483,3.147 2.788,2.816 2.788,2.262 C2.788,2.262 2.788,0.393 2.788,0.393 C2.788,0.393 3.292,0.393 3.292,0.393 C3.292,0.393 3.292,3.551 3.292,3.551 Z"></path>
                                                    </g>
                                                    <g transform="translate(35.959000, 32.410000)" fill="#8B8B8B" fill-rule="nonzero" id="Shape">
                                                        <path d="M0.648,1.1 C0.648,0.906 0.806,0.749 0.999,0.749 C1.193,0.749 1.352,0.906 1.352,1.1 C1.352,1.293 1.193,1.451 0.999,1.451 C0.806,1.451 0.648,1.293 0.648,1.1 Z M0.748,2.094 C0.748,2.094 1.252,2.094 1.252,2.094 C1.252,2.094 1.252,5.252 1.252,5.252 C1.252,5.252 0.748,5.252 0.748,5.252 C0.748,5.252 0.748,2.094 0.748,2.094 Z"></path>
                                                    </g>
                                                    <g transform="translate(37.447000, 34.083000)" fill="#8B8B8B" fill-rule="nonzero" id="Path">
                                                        <path d="M2.009,0.365 C2.671,0.365 3.131,0.693 3.198,1.212 C3.198,1.212 2.7,1.212 2.7,1.212 C2.633,0.96 2.387,0.793 2.006,0.793 C1.631,0.793 1.338,0.983 1.338,1.264 C1.338,1.481 1.514,1.616 1.886,1.707 C1.886,1.707 2.372,1.824 2.372,1.824 C2.967,1.968 3.254,2.225 3.254,2.679 C3.254,3.245 2.706,3.635 1.988,3.635 C1.285,3.635 0.802,3.298 0.746,2.773 C0.746,2.773 1.265,2.773 1.265,2.773 C1.35,3.04 1.602,3.21 2.006,3.21 C2.431,3.21 2.736,3.008 2.736,2.718 C2.736,2.501 2.571,2.354 2.235,2.272 C2.235,2.272 1.693,2.14 1.693,2.14 C1.101,1.997 0.831,1.742 0.831,1.285 C0.831,0.761 1.338,0.365 2.009,0.365 Z"></path>
                                                    </g>
                                                    <g transform="translate(42.640000, 34.083000)" fill="#8B8B8B" fill-rule="nonzero" id="Shape">
                                                        <path d="M0.716,2.695 C0.716,2.13 1.133,1.804 1.869,1.76 C1.869,1.76 2.78,1.704 2.78,1.704 C2.78,1.704 2.78,1.417 2.78,1.417 C2.78,1.027 2.537,0.814 2.064,0.814 C1.687,0.814 1.425,0.957 1.354,1.206 C1.354,1.206 0.844,1.206 0.844,1.206 C0.911,0.699 1.409,0.365 2.083,0.365 C2.854,0.365 3.284,0.76 3.284,1.417 C3.284,1.417 3.284,3.579 3.284,3.579 C3.284,3.579 2.803,3.579 2.803,3.579 C2.803,3.579 2.803,3.114 2.803,3.114 C2.803,3.114 2.757,3.114 2.757,3.114 C2.551,3.451 2.205,3.635 1.783,3.635 C1.172,3.635 0.716,3.272 0.716,2.695 Z M2.78,2.402 C2.78,2.402 2.78,2.112 2.78,2.112 C2.78,2.112 1.93,2.168 1.93,2.168 C1.45,2.2 1.238,2.367 1.238,2.683 C1.238,3.006 1.512,3.193 1.878,3.193 C2.397,3.193 2.78,2.853 2.78,2.402 Z"></path>
                                                    </g>
                                                    <g transform="translate(46.299000, 34.111000)" fill="#8B8B8B" fill-rule="nonzero" id="Path">
                                                        <path d="M3.292,3.551 C3.292,3.551 2.812,3.551 2.812,3.551 C2.812,3.551 2.812,3.056 2.812,3.056 C2.812,3.056 2.765,3.056 2.765,3.056 C2.606,3.407 2.27,3.607 1.786,3.607 C1.077,3.607 0.708,3.185 0.708,2.438 C0.708,2.438 0.708,0.393 0.708,0.393 C0.708,0.393 1.212,0.393 1.212,0.393 C1.212,0.393 1.212,2.315 1.212,2.315 C1.212,2.883 1.423,3.147 1.927,3.147 C2.483,3.147 2.788,2.816 2.788,2.262 C2.788,2.262 2.788,0.393 2.788,0.393 C2.788,0.393 3.292,0.393 3.292,0.393 C3.292,0.393 3.292,3.551 3.292,3.551 Z"></path>
                                                    </g>
                                                    <g transform="translate(50.279000, 33.686000)" fill="#8B8B8B" fill-rule="nonzero" id="Path">
                                                        <path d="M1.156,0.001 C1.156,0.001 1.156,0.818 1.156,0.818 C1.156,0.818 1.859,0.818 1.859,0.818 C1.859,0.818 1.859,1.24 1.859,1.24 C1.859,1.24 1.156,1.24 1.156,1.24 C1.156,1.24 1.156,3.027 1.156,3.027 C1.156,3.399 1.296,3.558 1.624,3.558 C1.715,3.558 1.765,3.555 1.859,3.546 C1.859,3.546 1.859,3.971 1.859,3.971 C1.76,3.988 1.662,3.999 1.562,3.999 C0.912,3.999 0.651,3.76 0.651,3.156 C0.651,3.156 0.651,1.24 0.651,1.24 C0.651,1.24 0.141,1.24 0.141,1.24 C0.141,1.24 0.141,0.818 0.141,0.818 C0.141,0.818 0.651,0.818 0.651,0.818 C0.651,0.818 0.651,0.001 0.651,0.001 C0.651,0.001 1.156,0.001 1.156,0.001 Z"></path>
                                                    </g>
                                                    <g transform="translate(52.275000, 34.083000)" fill="#8B8B8B" fill-rule="nonzero" id="Shape">
                                                        <path d="M3.357,2.761 C3.204,3.303 2.717,3.635 2.025,3.635 C1.15,3.635 0.602,3.002 0.602,2.003 C0.602,1.01 1.158,0.365 2.025,0.365 C2.879,0.365 3.398,0.971 3.398,1.953 C3.398,1.953 3.398,2.146 3.398,2.146 C3.398,2.146 1.128,2.146 1.128,2.146 C1.128,2.146 1.128,2.17 1.128,2.17 C1.153,2.794 1.503,3.189 2.038,3.189 C2.446,3.189 2.722,3.04 2.853,2.761 C2.853,2.761 3.357,2.761 3.357,2.761 Z M1.128,1.739 C1.128,1.739 2.868,1.739 2.868,1.739 C2.857,1.179 2.523,0.81 2.021,0.81 C1.517,0.81 1.165,1.179 1.128,1.739 Z"></path>
                                                    </g>
                                                    <g transform="translate(55.794000, 34.055000)" fill="#8B8B8B" fill-rule="nonzero" id="Path">
                                                        <path d="M0.85,0.449 C0.85,0.449 1.329,0.449 1.329,0.449 C1.329,0.449 1.329,0.947 1.329,0.947 C1.329,0.947 1.376,0.947 1.376,0.947 C1.52,0.595 1.836,0.393 2.258,0.393 C2.686,0.393 2.986,0.619 3.132,0.947 C3.132,0.947 3.178,0.947 3.178,0.947 C3.348,0.613 3.709,0.393 4.146,0.393 C4.79,0.393 5.15,0.762 5.15,1.425 C5.15,1.425 5.15,3.607 5.15,3.607 C5.15,3.607 4.646,3.607 4.646,3.607 C4.646,3.607 4.646,1.542 4.646,1.542 C4.646,1.076 4.427,0.847 3.982,0.847 C3.542,0.847 3.249,1.176 3.249,1.577 C3.249,1.577 3.249,3.607 3.249,3.607 C3.249,3.607 2.745,3.607 2.745,3.607 C2.745,3.607 2.745,1.463 2.745,1.463 C2.745,1.088 2.484,0.847 2.085,0.847 C1.672,0.847 1.354,1.205 1.354,1.65 C1.354,1.65 1.354,3.607 1.354,3.607 C1.354,3.607 0.85,3.607 0.85,3.607 C0.85,3.607 0.85,0.449 0.85,0.449 Z"></path>
                                                    </g>
                                                </g>
                                                <g opacity="0" transform="translate(54.000000, 48.000000)">
                                                    <g transform="translate(0.500000, 0.500000)" fill="#B3B3B3" fill-rule="nonzero" id="Path">
                                                        <path d="M11,6 C11,6 1,6 1,6 C0.447,6 0,5.553 0,5 C0,5 0,1 0,1 C0,0.447 0.447,0 1,0 C1,0 11,0 11,0 C11.553,0 12,0.447 12,1 C12,1 12,5 12,5 C12,5.553 11.553,6 11,6 Z"></path>
                                                    </g>
                                                </g>
                                            </g>
                                        </g>
                                    </g>
                                </g>
                            </g>
                        </g>
                    </g>
                </g>
            </g>
        </g>
    </g>
</svg>