<svg xmlns="http://www.w3.org/2000/svg" viewBox="0 0 100 80"><defs><style>.cls-1{fill:#e1e1e1;}.cls-2{fill:#ccc;}.cls-3,.cls-4{fill:none;stroke-linecap:round;stroke-miterlimit:10;stroke-width:5px;}.cls-3{stroke:#b3b3b3;}.cls-4{stroke:#3083fb;}.cls-5{fill:#fff;}.cls-6{fill:#666;}.cls-7{fill:#8c8c8c;}</style></defs><title>VisualIndex_v3</title><g id="All"><rect class="cls-1" x="0.5" y="0.5" width="99" height="79"/><path class="cls-2" d="M99,1V79H1V1H99m1-1H0V80H100V0Z"/><line class="cls-3" x1="50.5" y1="40.5" x2="89.5" y2="40.5"/><line class="cls-4" x1="11.5" y1="40.5" x2="58.5" y2="40.5"/><path class="cls-5" d="M50,51.5A10.5,10.5,0,1,1,60.5,41,10.51,10.51,0,0,1,50,51.5Z"/><path class="cls-6" d="M50,31A10,10,0,1,1,40,41,10,10,0,0,1,50,31m0-1A11,11,0,1,0,61,41,11,11,0,0,0,50,30Z"/></g><g id="Borders"><path class="cls-7" d="M99,1V79H1V1H99m1-1H0V80H100V0Z"/></g></svg>