<svg xmlns="http://www.w3.org/2000/svg" viewBox="0 0 100 80"><defs><style>.cls-1{fill:#fff;}.cls-2{fill:#ededed;}.cls-3,.cls-6{fill:none;}.cls-4{fill:#e1e1e1;}.cls-5{fill:#ccc;}.cls-6{stroke:#ccc;}.cls-6,.cls-8{stroke-miterlimit:10;}.cls-7{fill:#666;}.cls-8{fill:#b3b3b3;stroke:#666;}.cls-9{fill:#8c8c8c;}</style></defs><title>VisualIndex_v3</title><g id="All"><rect class="cls-1" y="19" width="100" height="15"/><rect class="cls-2" y="34" width="100" height="15"/><rect class="cls-1" y="49" width="100" height="15"/><rect class="cls-2" y="64" width="100" height="15"/><path class="cls-3" d="M0,0H100a0,0,0,0,1,0,0V75a5,5,0,0,1-5,5H0a0,0,0,0,1,0,0V0A0,0,0,0,1,0,0Z"/><rect class="cls-4" x="0.5" y="0.5" width="99" height="18"/><path class="cls-5" d="M99,1V18H1V1H99m1-1H0V19H100V0Z"/><path class="cls-5" d="M99,1V79H1V1H99m1-1H0V80H100V0Z"/><line class="cls-6" x1="61.5" y1="18" x2="61.5" y2="1"/><path class="cls-7" d="M83.61,42v-.48h1.92V42Z"/><path class="cls-7" d="M86.62,42v-.48h1.92V42Z"/><path class="cls-7" d="M5.72,12.88V7.25H6.4l3.06,4.39h.06V7.25h.7v5.64H9.54L6.48,8.51H6.41v4.37Z"/><path class="cls-7" d="M11.53,11.7c0-.75.55-1.19,1.54-1.25l1.21-.07V10c0-.52-.32-.8-1-.8s-.86.19-.95.52H11.7c.09-.68.75-1.12,1.65-1.12S15,9.13,15,10v2.88h-.64v-.62h-.06A1.45,1.45,0,0,1,13,13,1.28,1.28,0,0,1,11.53,11.7Zm2.75-.39v-.39L13.15,11c-.64,0-.92.27-.92.69s.36.68.85.68A1.11,1.11,0,0,0,14.28,11.31Z"/><path class="cls-7" d="M16.4,8.67H17v.66h.06a1.19,1.19,0,0,1,1.18-.74,1.22,1.22,0,0,1,1.16.74h.06a1.41,1.41,0,0,1,1.29-.74A1.23,1.23,0,0,1,22.13,10v2.91h-.67V10.13c0-.62-.29-.93-.89-.93a1,1,0,0,0-1,1v2.71h-.67V10A.8.8,0,0,0,18,9.2a1,1,0,0,0-1,1.07v2.61H16.4Z"/><path class="cls-7" d="M27,11.79A1.68,1.68,0,0,1,25.26,13c-1.17,0-1.9-.84-1.9-2.18a1.92,1.92,0,0,1,1.9-2.18c1.14,0,1.83.81,1.83,2.12V11h-3v0c0,.83.5,1.36,1.21,1.36a1.09,1.09,0,0,0,1.09-.57Zm-3-1.36h2.32a1.13,1.13,0,0,0-1.13-1.24A1.2,1.2,0,0,0,24.06,10.43Z"/><path class="cls-7" d="M67.16,11.41c.09.59.65,1,1.45,1s1.32-.41,1.32-1-.35-.79-1.13-1l-.72-.19c-1-.26-1.46-.72-1.46-1.52,0-1,.8-1.61,2-1.61a1.79,1.79,0,0,1,2,1.56h-.71a1.16,1.16,0,0,0-1.28-.92c-.75,0-1.25.38-1.25.95s.31.7,1.09.89l.59.16c1.17.29,1.64.75,1.64,1.57,0,1-.82,1.7-2.11,1.7a1.86,1.86,0,0,1-2.09-1.61Z"/><path class="cls-7" d="M71.82,7.35a.47.47,0,1,1,.47.47A.47.47,0,0,1,71.82,7.35ZM72,8.67h.67v4.21H72Z"/><path class="cls-7" d="M74,12.39,76.45,9.3V9.23H74V8.67h3.23v.5l-2.42,3.08v.06h2.43v.56H74Z"/><path class="cls-7" d="M82,11.79A1.68,1.68,0,0,1,80.21,13c-1.17,0-1.9-.84-1.9-2.18a1.92,1.92,0,0,1,1.9-2.18c1.14,0,1.83.81,1.83,2.12V11H79v0c0,.83.5,1.36,1.21,1.36a1.09,1.09,0,0,0,1.09-.57Zm-3-1.36h2.32A1.13,1.13,0,0,0,80.2,9.19,1.2,1.2,0,0,0,79,10.43Z"/><path class="cls-8" d="M18.16,23.36H12.52L12,22.68a.34.34,0,0,0-.3-.18H8.84a.34.34,0,0,0-.34.34v7.24a.34.34,0,0,0,.34.34h9.31a.34.34,0,0,0,.34-.34V23.71A.34.34,0,0,0,18.16,23.36Z"/><path class="cls-8" d="M18.16,38.36H12.52L12,37.68a.34.34,0,0,0-.3-.18H8.84a.34.34,0,0,0-.34.34v7.24a.34.34,0,0,0,.34.34h9.31a.34.34,0,0,0,.34-.34V38.71A.34.34,0,0,0,18.16,38.36Z"/><path class="cls-8" d="M18.16,53.36H12.52L12,52.68a.34.34,0,0,0-.3-.18H8.84a.34.34,0,0,0-.34.34v7.24a.34.34,0,0,0,.34.34h9.31a.34.34,0,0,0,.34-.34V53.71A.34.34,0,0,0,18.16,53.36Z"/><path class="cls-8" d="M18.16,68.36H12.52L12,67.68a.34.34,0,0,0-.3-.18H8.84a.34.34,0,0,0-.34.34v7.24a.34.34,0,0,0,.34.34h9.31a.34.34,0,0,0,.34-.34V68.71A.34.34,0,0,0,18.16,68.36Z"/><path class="cls-7" d="M27.51,28.52V25.29h0l-1.33,3.2H25.7l-1.33-3.2h0v3.23h-.49V24.29h.61l1.45,3.5h0l1.45-3.5H28v4.23Z"/><path class="cls-7" d="M29.11,24.36a.35.35,0,1,1,.35.35A.35.35,0,0,1,29.11,24.36Zm.1,1h.5v3.16h-.5Z"/><path class="cls-7" d="M30.85,25.36h.48v.5h0a1,1,0,0,1,.95-.55,1,1,0,0,1,1.1,1.17v2h-.5V26.59c0-.57-.24-.84-.74-.84a.8.8,0,0,0-.83.89v1.87h-.5Z"/><path class="cls-7" d="M34.45,24.36a.35.35,0,1,1,.35.35A.35.35,0,0,1,34.45,24.36Zm.1,1H35v3.16h-.5Z"/><path class="cls-7" d="M36.19,25.36h.48v.5h0a.89.89,0,0,1,.88-.55.91.91,0,0,1,.87.55h0a1.06,1.06,0,0,1,1-.55.92.92,0,0,1,1,1v2.18H40V26.45c0-.47-.22-.69-.67-.69a.71.71,0,0,0-.73.73v2h-.5V26.37a.6.6,0,0,0-.66-.62.76.76,0,0,0-.73.8v2h-.5Z"/><path class="cls-7" d="M46.15,28.52H43.53V24.29h2.62v.47H44.06v1.36h2v.47h-2V28h2.09Z"/><path class="cls-7" d="M48.32,25.3a1.06,1.06,0,0,1,1.19.85H49a.64.64,0,0,0-.69-.42c-.37,0-.67.19-.67.47s.18.35.55.44l.49.12c.59.14.88.4.88.86s-.55,1-1.27,1-1.19-.34-1.24-.86h.52a.7.7,0,0,0,.74.44c.42,0,.73-.2.73-.49s-.16-.36-.5-.45L48,27.08c-.59-.14-.86-.4-.86-.86S47.65,25.3,48.32,25.3Z"/><path class="cls-7" d="M51.59,25.3a1.06,1.06,0,0,1,1.19.85h-.5a.64.64,0,0,0-.69-.42c-.37,0-.67.19-.67.47s.18.35.55.44l.49.12c.59.14.88.4.88.86s-.55,1-1.27,1-1.19-.34-1.24-.86h.52a.7.7,0,0,0,.74.44c.42,0,.73-.2.73-.49s-.16-.36-.5-.45l-.54-.13c-.59-.14-.86-.4-.86-.86S50.92,25.3,51.59,25.3Z"/><path class="cls-7" d="M56.4,27.7a1.26,1.26,0,0,1-1.33.87c-.88,0-1.42-.63-1.42-1.63a1.44,1.44,0,0,1,1.42-1.64c.85,0,1.37.61,1.37,1.59v.19H54.17v0c0,.62.38,1,.91,1a.82.82,0,0,0,.81-.43Zm-2.23-1h1.74a.85.85,0,0,0-.85-.93A.9.9,0,0,0,54.17,26.68Z"/><path class="cls-7" d="M72.49,24.87h0l-1.08.78V25.1l1.13-.81H73v4.23h-.53Z"/><path class="cls-7" d="M75.47,24.87h0l-1.08.78V25.1l1.13-.81H76v4.23h-.53Z"/><path class="cls-7" d="M83,28.52V25.29h0l-1.33,3.2h-.45l-1.33-3.2h0v3.23h-.49V24.29H80l1.45,3.5h0l1.45-3.5h.61v4.23Z"/><path class="cls-7" d="M84.8,28.52V24.29h1.62c.78,0,1.25.41,1.25,1.05a.93.93,0,0,1-.73.91v0a1,1,0,0,1,.94,1c0,.74-.53,1.19-1.43,1.19Zm.53-2.41h.84c.64,0,1-.23,1-.68s-.3-.68-.83-.68h-1Zm1,1.94c.64,0,1-.26,1-.75s-.35-.74-1-.74h-1V28Z"/><path class="cls-7" d="M68.73,56.12h.51a.76.76,0,0,0,.82-.75.73.73,0,0,0-.81-.72.77.77,0,0,0-.85.72h-.51a1.25,1.25,0,0,1,1.38-1.18A1.23,1.23,0,0,1,70.6,55.3a1,1,0,0,1-.74,1v0a1,1,0,0,1,.92,1,1.36,1.36,0,0,1-1.49,1.24,1.33,1.33,0,0,1-1.49-1.2h.51a.88.88,0,0,0,1,.74.85.85,0,0,0,1-.79c0-.49-.37-.79-1-.79h-.54Z"/><path class="cls-7" d="M71.64,58.16a.38.38,0,1,1,.38.38A.38.38,0,0,1,71.64,58.16Z"/><path class="cls-7" d="M75.32,57.64H73.26v-.48c.38-.67,1-1.73,1.81-2.87h.76v2.88h.6v.47h-.6v.88h-.52Zm-1.52-.47h1.52V54.78h0c-.43.63-1,1.5-1.49,2.36Z"/><path class="cls-7" d="M83,58.52V55.29h0l-1.33,3.2h-.45l-1.33-3.2h0v3.23h-.49V54.29H80l1.45,3.5h0l1.45-3.5h.61v4.23Z"/><path class="cls-7" d="M84.8,58.52V54.29h1.62c.78,0,1.25.41,1.25,1.05a.93.93,0,0,1-.73.91v0a1,1,0,0,1,.94,1c0,.74-.53,1.19-1.43,1.19Zm.53-2.41h.84c.64,0,1-.23,1-.68s-.3-.68-.83-.68h-1Zm1,1.94c.64,0,1-.26,1-.75s-.35-.74-1-.74h-1V58Z"/><path class="cls-7" d="M69.4,69.19a1.25,1.25,0,0,1,1.34,1.19c0,.44-.2.78-.89,1.53l-1,1.09v0h2v.47H68.07v-.36l1.46-1.6c.54-.59.68-.82.68-1.16a.83.83,0,0,0-1.66.08H68A1.28,1.28,0,0,1,69.4,69.19Z"/><path class="cls-7" d="M71.82,73.16a.38.38,0,1,1,.38.38A.38.38,0,0,1,71.82,73.16Z"/><path class="cls-7" d="M75,69.19a1.25,1.25,0,0,1,1.34,1.19c0,.44-.2.78-.89,1.53l-1,1.09v0h2v.47H73.63v-.36l1.46-1.6c.54-.59.68-.82.68-1.16a.83.83,0,0,0-1.66.08H73.6A1.28,1.28,0,0,1,75,69.19Z"/><path class="cls-7" d="M83,73.52V70.29h0l-1.33,3.2h-.45l-1.33-3.2h0v3.23h-.49V69.29H80l1.45,3.5h0l1.45-3.5h.61v4.23Z"/><path class="cls-7" d="M84.8,73.52V69.29h1.62c.78,0,1.25.41,1.25,1.05a.93.93,0,0,1-.73.91v0a1,1,0,0,1,.94,1c0,.74-.53,1.19-1.43,1.19Zm.53-2.41h.84c.64,0,1-.23,1-.68s-.3-.68-.83-.68h-1Zm1,1.94c.64,0,1-.26,1-.75s-.35-.74-1-.74h-1V73Z"/><path class="cls-7" d="M23.84,43.52V39.29h.51l2.29,3.29h0V39.29h.52v4.23H26.7l-2.29-3.28h0v3.28Z"/><path class="cls-7" d="M31,43.52h-.48V43h0a1,1,0,0,1-1,.55c-.71,0-1.08-.42-1.08-1.17v-2h.5v1.92c0,.57.21.83.71.83a.79.79,0,0,0,.86-.88V40.36H31Z"/><path class="cls-7" d="M32.12,39.1h.5v4.41h-.5Z"/><path class="cls-7" d="M33.81,39.1h.5v4.41h-.5Z"/><path class="cls-7" d="M35.29,42.63c0-.57.42-.89,1.15-.93l.91-.06v-.29c0-.39-.24-.6-.71-.6s-.64.14-.71.39h-.51c.07-.51.57-.84,1.24-.84s1.2.4,1.2,1.05v2.16h-.48V43h0a1.09,1.09,0,0,1-1,.52A1,1,0,0,1,35.29,42.63Zm2.06-.29V42l-.85.06c-.48,0-.69.2-.69.52s.27.51.64.51A.83.83,0,0,0,37.35,42.34Z"/><path class="cls-7" d="M42.12,43.52l-1.56-4.23h.55l1.24,3.54h0l1.24-3.54h.55l-1.56,4.23Z"/><path class="cls-7" d="M47.36,42.7a1.26,1.26,0,0,1-1.33.87c-.88,0-1.42-.63-1.42-1.63A1.44,1.44,0,0,1,46,40.3c.85,0,1.37.61,1.37,1.59v.19H45.13v0c0,.62.38,1,.91,1a.82.82,0,0,0,.81-.43Zm-2.23-1h1.74a.85.85,0,0,0-.85-.93A.9.9,0,0,0,45.13,41.68Z"/><path class="cls-7" d="M48.4,39.1h.5v4.41h-.5Z"/><path class="cls-7" d="M24.94,58.52V54.76H23.57v-.47h3.25v.47H25.46v3.75Z"/><path class="cls-7" d="M27.67,54.36a.35.35,0,1,1,.35.35A.35.35,0,0,1,27.67,54.36Zm.1,1h.5v3.16h-.5Z"/><path class="cls-7" d="M29.41,55.36h.48v.5h0a1,1,0,0,1,.95-.55A1,1,0,0,1,32,56.47v2h-.5V56.59c0-.57-.24-.84-.74-.84a.8.8,0,0,0-.83.89v1.87h-.5Z"/><path class="cls-7" d="M35.2,56.32a.78.78,0,0,0-.81-.57c-.57,0-.93.45-.93,1.17s.36,1.19.93,1.19a.76.76,0,0,0,.81-.55h.51a1.22,1.22,0,0,1-1.32,1,1.65,1.65,0,0,1,0-3.27,1.24,1.24,0,0,1,1.32,1Z"/><path class="cls-7" d="M36.54,54.36a.35.35,0,1,1,.35.35A.35.35,0,0,1,36.54,54.36Zm.1,1h.5v3.16h-.5Z"/><path class="cls-7" d="M38.13,56.94c0-1,.52-1.63,1.33-1.63a1.08,1.08,0,0,1,1,.55h0V54.1H41v4.41h-.48V58h0a1.13,1.13,0,0,1-1,.56C38.65,58.57,38.13,57.93,38.13,56.94Zm.52,0c0,.74.35,1.18.92,1.18s.93-.45.93-1.18-.36-1.18-.93-1.18S38.65,56.2,38.65,56.94Z"/><path class="cls-7" d="M44.75,57.7a1.26,1.26,0,0,1-1.33.87c-.88,0-1.42-.63-1.42-1.63a1.44,1.44,0,0,1,1.42-1.64c.85,0,1.37.61,1.37,1.59v.19H42.52v0c0,.62.38,1,.91,1a.82.82,0,0,0,.81-.43Zm-2.23-1h1.74a.85.85,0,0,0-.85-.93A.9.9,0,0,0,42.52,56.68Z"/><path class="cls-7" d="M48.31,58.52h-.48V58h0a1,1,0,0,1-1,.55c-.71,0-1.08-.42-1.08-1.17v-2h.5v1.92c0,.57.21.83.71.83a.79.79,0,0,0,.86-.88V55.36h.5Z"/><path class="cls-7" d="M49.44,55.36h.48v.5h0a1,1,0,0,1,.95-.55A1,1,0,0,1,52,56.47v2h-.5V56.59c0-.57-.24-.84-.74-.84a.8.8,0,0,0-.83.89v1.87h-.5Z"/><path class="cls-7" d="M53.84,54.54v.82h.7v.42h-.7v1.79c0,.37.14.53.47.53h.23v.42l-.3,0c-.65,0-.91-.24-.91-.84V55.78h-.51v-.42h.51v-.82Z"/><path class="cls-7" d="M23.84,73.52V69.29h.53v4.23Z"/><path class="cls-7" d="M25.59,69.1h.5v4.41h-.5Z"/><path class="cls-7" d="M27.28,69.1h.5v4.41h-.5Z"/><path class="cls-7" d="M31.5,73.52H31V73h0a1,1,0,0,1-1,.55c-.71,0-1.08-.42-1.08-1.17v-2h.5v1.92c0,.57.21.83.71.83a.79.79,0,0,0,.86-.88V70.36h.5Z"/><path class="cls-7" d="M32.63,70.36h.48v.5h0A.89.89,0,0,1,34,70.3a.91.91,0,0,1,.87.55h0a1.06,1.06,0,0,1,1-.55.92.92,0,0,1,1,1v2.18h-.5V71.45c0-.47-.22-.69-.67-.69a.71.71,0,0,0-.73.73v2h-.5V71.37a.6.6,0,0,0-.66-.62.76.76,0,0,0-.73.8v2h-.5Z"/></g><g id="Borders"><path class="cls-9" d="M99,1V79H1V1H99m1-1H0V80H100V0Z"/></g></svg>