<svg xmlns="http://www.w3.org/2000/svg" viewBox="0 0 100 80"><defs><style>.cls-1{fill:#333;}.cls-2{fill:#666;}.cls-3{fill:#fff;}.cls-4{fill:#8c8c8c;}</style></defs><title>VisualIndex_v3</title><g id="All"><rect class="cls-1" width="100" height="80"/><rect class="cls-2" x="18" y="23" width="64" height="32" rx="6" ry="6"/><path class="cls-3" d="M29.31,43.17V33.3h3.77c1.81,0,2.92,1,2.92,2.46a2.18,2.18,0,0,1-1.7,2.13V38a2.34,2.34,0,0,1,2.2,2.4c0,1.74-1.24,2.77-3.34,2.77Zm1.23-5.61h2c1.49,0,2.25-.53,2.25-1.58s-.71-1.59-1.93-1.59H30.54ZM33,42.08c1.48,0,2.26-.6,2.26-1.74s-.81-1.72-2.38-1.72H30.54v3.47Z"/><path class="cls-3" d="M44.33,43.17H43.21V42H43.1a2.3,2.3,0,0,1-2.28,1.29c-1.65,0-2.52-1-2.52-2.73V35.8h1.18v4.48c0,1.33.49,1.94,1.67,1.94a1.85,1.85,0,0,0,2-2.06V35.8h1.18Z"/><path class="cls-3" d="M48.21,33.89V35.8h1.64v1H48.21V41c0,.87.33,1.24,1.09,1.24a5,5,0,0,0,.55,0v1a3.94,3.94,0,0,1-.69.07c-1.52,0-2.13-.56-2.13-2V36.78H45.84v-1H47V33.89Z"/><path class="cls-3" d="M53.29,33.89V35.8h1.64v1H53.29V41c0,.87.33,1.24,1.09,1.24a5,5,0,0,0,.55,0v1a3.94,3.94,0,0,1-.69.07c-1.52,0-2.13-.56-2.13-2V36.78H50.93v-1h1.19V33.89Z"/><path class="cls-3" d="M56.24,39.48c0-2.37,1.3-3.81,3.4-3.81S63,37.11,63,39.48s-1.3,3.81-3.4,3.81S56.24,41.85,56.24,39.48Zm5.58,0c0-1.75-.79-2.75-2.18-2.75s-2.18,1-2.18,2.75.79,2.75,2.18,2.75S61.82,41.22,61.82,39.48Z"/><path class="cls-3" d="M64.88,35.8H66V37h.11a2.21,2.21,0,0,1,2.21-1.29,2.4,2.4,0,0,1,2.58,2.73v4.77H69.73V38.68c0-1.33-.56-2-1.74-2a1.87,1.87,0,0,0-1.93,2.08v4.36H64.88Z"/></g><g id="Borders"><path class="cls-4" d="M99,1V79H1V1H99m1-1H0V80H100V0Z"/></g></svg>