<svg xmlns="http://www.w3.org/2000/svg" viewBox="0 0 100 80"><defs><style>.cls-1{fill:#333;}.cls-2{fill:#8c8c8c;}.cls-3{fill:#fff;}</style></defs><title>VisualIndex_v3</title><g id="All"><rect class="cls-1" width="100" height="80"/><rect class="cls-2" x="18" y="24" width="64" height="32" rx="6" ry="6"/><path class="cls-3" d="M43.89,41.22v1.22a11.1,11.1,0,0,0,12.22,0V41.22A18.94,18.94,0,0,1,50,42.44a18.94,18.94,0,0,1-6.11-1.22"/><path class="cls-3" d="M50,29A11,11,0,1,0,61,40,11,11,0,0,0,50,29m4,5.19A1.83,1.83,0,1,1,52.14,36,1.83,1.83,0,0,1,54,34.19m-7.94,0A1.83,1.83,0,1,1,44.19,36,1.83,1.83,0,0,1,46,34.19m4,13.75c-4.91,0-7.94-4.53-7.94-6.72s3.56,0,7.94,0,7.94-2.19,7.94,0S54.89,47.94,50,47.94"/></g><g id="Borders"><path class="cls-2" d="M99,1V79H1V1H99m1-1H0V80H100V0Z"/></g></svg>