<svg xmlns="http://www.w3.org/2000/svg" viewBox="0 0 100 80"><defs><style>.cls-1{fill:#333;}.cls-2{fill:#666;}.cls-3{fill:#8c8c8c;}.cls-4,.cls-5{fill:none;stroke-miterlimit:10;stroke-width:1.5px;}.cls-4{stroke:#333;stroke-linecap:round;}.cls-5{stroke:#fafafa;}</style></defs><title>VisualIndex_v3</title><g id="All"><rect class="cls-1" width="100" height="80"/><rect class="cls-2" x="26" y="30" width="39" height="21"/><path class="cls-3" d="M31.41,51H12a5,5,0,0,1-5-5V35a5,5,0,0,1,5-5H31.41A4.59,4.59,0,0,1,36,34.59V46.41A4.59,4.59,0,0,1,31.41,51Z"/><path class="cls-2" d="M88,51H64V30H88a5,5,0,0,1,5,5V46A5,5,0,0,1,88,51Z"/><line class="cls-4" x1="65" y1="33" x2="65" y2="48"/><line class="cls-5" x1="18" y1="36" x2="27" y2="36"/><line class="cls-5" x1="18" y1="42" x2="27" y2="42"/><line class="cls-5" x1="18" y1="45" x2="23" y2="45"/><line class="cls-5" x1="18" y1="39" x2="23" y2="39"/><line class="cls-5" x1="45" y1="36" x2="54" y2="36"/><line class="cls-5" x1="45" y1="42" x2="54" y2="42"/><line class="cls-5" x1="47" y1="45" x2="52" y2="45"/><line class="cls-5" x1="47" y1="39" x2="52" y2="39"/><line class="cls-5" x1="74" y1="36" x2="83" y2="36"/><line class="cls-5" x1="74" y1="42" x2="83" y2="42"/><line class="cls-5" x1="78" y1="45" x2="83" y2="45"/><line class="cls-5" x1="78" y1="39" x2="83" y2="39"/></g><g id="Borders"><path class="cls-3" d="M99,1V79H1V1H99m1-1H0V80H100V0Z"/></g></svg>