<svg xmlns="http://www.w3.org/2000/svg" xmlns:xlink="http://www.w3.org/1999/xlink" viewBox="0 0 100 80"><defs><style>.cls-1,.cls-4{fill:none;}.cls-2{fill:#333;}.cls-3{fill:#666;}.cls-4{stroke:#333;stroke-miterlimit:10;stroke-width:3px;}.cls-5{fill:#fafafa;}.cls-6{fill:#fff;}.cls-7{clip-path:url(#clip-path);}.cls-8{clip-path:url(#clip-path-2);}.cls-9{fill:#8c8c8c;}</style><clipPath id="clip-path"><rect class="cls-1" y="28" width="19" height="19"/></clipPath><clipPath id="clip-path-2"><rect class="cls-1" x="82" y="29" width="18" height="18"/></clipPath></defs><title>VisualIndex_v3</title><g id="All"><rect class="cls-2" width="100" height="80"/><polygon class="cls-3" points="2.08 25 2 25 1.04 25 0 25 0 53 1.04 53 2 53 2.08 53 3 53 3 25 2.08 25"/><polygon class="cls-3" points="6.08 25 6 25 5.04 25 4 25 4 53 5.04 53 6 53 6.08 53 7 53 7 25 6.08 25"/><polygon class="cls-3" points="10.09 25 10 25 9.04 25 8 25 8 53 9.04 53 10 53 10.09 53 11 53 11 25 10.09 25"/><polygon class="cls-3" points="14.09 25 14 25 13.04 25 12 25 12 53 13.04 53 14 53 14.09 53 15 53 15 25 14.09 25"/><polygon class="cls-3" points="18.09 25 18 25 17.04 25 16 25 16 53 17.04 53 18 53 18.09 53 19 53 19 25 18.09 25"/><polygon class="cls-3" points="22.09 25 22 25 21.04 25 20 25 20 53 21.04 53 22 53 22.09 53 23 53 23 25 22.09 25"/><polygon class="cls-3" points="26.09 25 26 25 25.04 25 24 25 24 53 25.04 53 26 53 26.09 53 27 53 27 25 26.09 25"/><polygon class="cls-3" points="30.09 25 30 25 29.04 25 28 25 28 53 29.04 53 30 53 30.09 53 31 53 31 25 30.09 25"/><polygon class="cls-3" points="34.09 25 34 25 33.04 25 32 25 32 53 33.04 53 34 53 34.09 53 35 53 35 25 34.09 25"/><polygon class="cls-3" points="38.09 25 38 25 37.04 25 36 25 36 53 37.04 53 38 53 38.09 53 39 53 39 25 38.09 25"/><polygon class="cls-3" points="42.09 25 42 25 41.04 25 40 25 40 53 41.04 53 42 53 42.09 53 43 53 43 25 42.09 25"/><polygon class="cls-3" points="46.09 25 46 25 45.04 25 44 25 44 53 45.04 53 46 53 46.09 53 47 53 47 25 46.09 25"/><polygon class="cls-3" points="51.09 25 51 25 50.04 25 49 25 49 53 50.04 53 51 53 51.09 53 52 53 52 25 51.09 25"/><polygon class="cls-3" points="55.09 25 55 25 54.04 25 53 25 53 53 54.04 53 55 53 55.09 53 56 53 56 25 55.09 25"/><polygon class="cls-3" points="59.09 25 59 25 58.04 25 57 25 57 53 58.04 53 59 53 59.09 53 60 53 60 25 59.09 25"/><polygon class="cls-3" points="63.09 25 63 25 62.04 25 61 25 61 53 62.04 53 63 53 63.09 53 64 53 64 25 63.09 25"/><polygon class="cls-3" points="67.08 25 67 25 66.04 25 65 25 65 53 66.04 53 67 53 67.08 53 68 53 68 25 67.08 25"/><polygon class="cls-3" points="71.08 25 71 25 70.04 25 69 25 69 53 70.04 53 71 53 71.08 53 72 53 72 25 71.08 25"/><polygon class="cls-3" points="75.08 25 75 25 74.04 25 73 25 73 53 74.04 53 75 53 75.08 53 76 53 76 25 75.08 25"/><polygon class="cls-3" points="79.08 25 79 25 78.04 25 77 25 77 53 78.04 53 79 53 79.08 53 80 53 80 25 79.08 25"/><polygon class="cls-3" points="83.08 25 83 25 82.04 25 81 25 81 53 82.04 53 83 53 83.08 53 84 53 84 25 83.08 25"/><polygon class="cls-3" points="87.08 25 87 25 86.04 25 85 25 85 53 86.04 53 87 53 87.08 53 88 53 88 25 87.08 25"/><polygon class="cls-3" points="91.08 25 91 25 90.04 25 89 25 89 53 90.04 53 91 53 91.08 53 92 53 92 25 91.08 25"/><polygon class="cls-3" points="95.08 25 95 25 94.04 25 93 25 93 53 94.04 53 95 53 95.08 53 96 53 96 25 95.08 25"/><polygon class="cls-3" points="99.08 25 99 25 98.04 25 97 25 97 53 98.04 53 99 53 99.08 53 100 53 100 25 99.08 25"/><rect class="cls-3" x="24.5" y="22.5" width="52" height="33" rx="6.74" ry="6.74"/><rect class="cls-4" x="24.5" y="23" width="52" height="32" rx="6" ry="6"/><path class="cls-5" d="M70.5,23a6,6,0,0,1,6,6V49a6,6,0,0,1-6,6h-40a6,6,0,0,1-6-6V29a6,6,0,0,1,6-6h40m0-2h-40a8,8,0,0,0-8,8V49a8,8,0,0,0,8,8h40a8,8,0,0,0,8-8V29a8,8,0,0,0-8-8Z"/><path class="cls-6" d="M44.78,40.55H41l-.91,2.62H38.54L42.1,33.3h1.65l3.56,9.86H45.68Zm-3.37-1.29h3L43,35.09h-.12Z"/><path class="cls-6" d="M55.8,39.44c0,2.37-1.2,3.85-3.08,3.85A2.43,2.43,0,0,1,50.44,42h-.12v3.6H48.85V35.72h1.42V37h.11a2.59,2.59,0,0,1,2.34-1.35C54.61,35.6,55.8,37.08,55.8,39.44Zm-1.51,0c0-1.57-.75-2.52-2-2.52s-2,1-2,2.53.77,2.52,2,2.52S54.29,41,54.29,39.44Z"/><path class="cls-6" d="M57.57,35.72H59v1.14h.11a2,2,0,0,1,2-1.26,3.1,3.1,0,0,1,.66.06v1.45a4,4,0,0,0-.82-.09A1.74,1.74,0,0,0,59,38.77v4.4H57.57Z"/><g class="cls-7"><path class="cls-6" d="M.85,43.17V36H.76l-2.89,6.84H-3.3L-6.19,36h-.1v7.12H-7.71V33.3h1.79l3.14,7.49h.12L.48,33.3H2.27v9.86Z"/><path class="cls-6" d="M4.15,41.06c0-1.34,1-2.11,2.77-2.22l2-.12v-.64c0-.79-.52-1.23-1.52-1.23-.82,0-1.39.3-1.55.83H4.44c.15-1.28,1.35-2.1,3-2.1,1.87,0,2.92.93,2.92,2.5v5.09H9v-1H8.87a2.5,2.5,0,0,1-2.24,1.17A2.25,2.25,0,0,1,4.15,41.06Zm4.79-.64V39.8l-1.82.12c-1,.07-1.49.42-1.49,1.07S6.21,42.05,7,42.05A1.75,1.75,0,0,0,8.94,40.42Z"/><path class="cls-6" d="M12.49,35.72h1.42v1.14H14a2,2,0,0,1,2-1.26,3.1,3.1,0,0,1,.66.06v1.45a4,4,0,0,0-.82-.09A1.74,1.74,0,0,0,14,38.77v4.4H12.49Z"/></g><g class="cls-8"><path class="cls-6" d="M92.85,43.17V36h-.1l-2.89,6.84H88.7L85.81,36h-.1v7.12H84.29V33.3h1.79l3.14,7.49h.12l3.14-7.49h1.79v9.86Z"/><path class="cls-6" d="M96.15,41.06c0-1.34,1-2.11,2.77-2.22l2-.12v-.64c0-.79-.52-1.23-1.52-1.23-.82,0-1.39.3-1.55.83H96.44c.15-1.28,1.35-2.1,3-2.1,1.87,0,2.92.93,2.92,2.5v5.09H101v-1h-.12a2.5,2.5,0,0,1-2.24,1.17A2.25,2.25,0,0,1,96.15,41.06Zm4.79-.64V39.8l-1.82.12c-1,.07-1.49.42-1.49,1.07s.58,1.06,1.38,1.06A1.75,1.75,0,0,0,100.94,40.42Z"/></g></g><g id="Borders"><path class="cls-9" d="M99,1V79H1V1H99m1-1H0V80H100V0Z"/></g></svg>