<svg xmlns="http://www.w3.org/2000/svg" viewBox="0 0 100 80"><defs><style>.cls-1{fill:#333;}.cls-2{fill:#8c8c8c;}.cls-3{fill:#fff;}</style></defs><title>VisualIndex_v3</title><g id="All"><rect class="cls-1" width="100" height="80"/><rect class="cls-2" x="18" y="24" width="64" height="32" rx="6" ry="6"/><path class="cls-3" d="M55.33,35.31H51.7v1h3.63a1,1,0,0,1,1,1V47.76a1,1,0,0,1-1,1H43.92a1,1,0,0,1-1-1V37.38a1,1,0,0,1,1-1h3.63v-1H43.92a2.07,2.07,0,0,0-2.07,2.07V47.76a2.07,2.07,0,0,0,2.07,2.07H55.33a2.07,2.07,0,0,0,2.07-2.07V37.38a2.07,2.07,0,0,0-2.07-2.07"/><rect class="cls-3" x="49.11" y="28.57" width="1.04" height="12.97"/><polygon class="cls-3" points="52.89 32.56 49.63 29.3 46.36 32.56 45.63 31.83 49.63 27.83 53.63 31.83 52.89 32.56"/></g><g id="Borders"><path class="cls-2" d="M99,1V79H1V1H99m1-1H0V80H100V0Z"/></g></svg>