<svg xmlns="http://www.w3.org/2000/svg" xmlns:xlink="http://www.w3.org/1999/xlink" viewBox="0 0 100 80"><defs><style>.cls-1,.cls-10,.cls-11,.cls-13,.cls-17,.cls-8,.cls-9{fill:none;}.cls-2{fill:#333;}.cls-3{fill:#666;}.cls-4{fill:#8c8c8c;}.cls-5{fill:#b3b3b3;}.cls-6{clip-path:url(#clip-path);}.cls-7{fill:#e1e1e1;}.cls-8,.cls-9{stroke:#e1e1e1;}.cls-10,.cls-11,.cls-13,.cls-17,.cls-8,.cls-9{stroke-miterlimit:10;}.cls-11,.cls-17,.cls-9{stroke-width:0.5px;}.cls-10,.cls-11{stroke:#ccc;}.cls-12{fill:#fff;}.cls-13{stroke:#333;stroke-width:3px;}.cls-14{fill:#fafafa;}.cls-15{clip-path:url(#clip-path-2);}.cls-16{clip-path:url(#clip-path-3);}.cls-17{stroke:#fafafa;}</style><clipPath id="clip-path"><rect class="cls-1" x="34" y="23.17" width="32" height="32" rx="6" ry="6"/></clipPath><clipPath id="clip-path-2"><rect class="cls-1" x="70.5" y="28" width="29.5" height="25"/></clipPath><clipPath id="clip-path-3"><rect class="cls-1" y="28" width="29.5" height="25"/></clipPath></defs><title>VisualIndex_v3</title><g id="All"><rect class="cls-2" width="100" height="80"/><rect class="cls-3" y="27" width="31" height="27"/><rect class="cls-4" y="29" width="28.5" height="23"/><rect class="cls-3" x="69" y="27" width="31" height="27"/><rect class="cls-4" x="71.5" y="29" width="28.5" height="23"/><rect class="cls-5" x="34" y="23" width="32" height="32" rx="4.08" ry="4.08"/><g class="cls-6"><rect class="cls-5" x="35" y="33.59" width="49" height="14.91"/><rect class="cls-7" x="35" y="46.37" width="49" height="7.46"/><rect class="cls-4" x="35" y="22.5" width="49" height="14.5"/><line class="cls-8" x1="35" y1="43.17" x2="84" y2="43.17"/><line class="cls-8" x1="35" y1="44.77" x2="84" y2="44.77"/><line class="cls-8" x1="35" y1="46.37" x2="84" y2="46.37"/><line class="cls-9" x1="35" y1="41.58" x2="84" y2="41.58"/><line class="cls-10" x1="35" y1="35.72" x2="84" y2="35.72"/><line class="cls-10" x1="35" y1="37.32" x2="84" y2="37.32"/><line class="cls-10" x1="35" y1="34.12" x2="84" y2="34.12"/><line class="cls-11" x1="35" y1="32.52" x2="84" y2="32.52"/><polygon class="cls-3" points="35 48.26 36.66 48.23 37.59 47.12 39.62 46.51 40.73 47.12 41.47 46.51 43.69 44.67 46.65 40.95 48.13 39.89 49.61 39.89 52.22 38.87 54.23 38.91 55.52 40.8 57.56 43.27 58.85 43.45 61.91 47.31 64.5 46.91 65.65 48.19 68.24 48.19 68.79 49.62 70.09 49.62 72.72 52.02 76.05 50.39 78.64 51.21 79.38 50.39 82.89 52.02 84 52.64 84 53.83 35 53.83 35 48.26"/><circle class="cls-12" cx="43.52" cy="32.52" r="3.2"/></g><rect class="cls-13" x="34" y="23.17" width="32" height="32" rx="6" ry="6"/><path class="cls-14" d="M60,23.17a6,6,0,0,1,6,6v20a6,6,0,0,1-6,6H40a6,6,0,0,1-6-6v-20a6,6,0,0,1,6-6H60m0-2H40a8,8,0,0,0-8,8v20a8,8,0,0,0,8,8H60a8,8,0,0,0,8-8v-20a8,8,0,0,0-8-8Z"/><g class="cls-15"><rect class="cls-5" x="70.5" y="37.59" width="49" height="14.91"/><rect class="cls-7" x="70.5" y="50.37" width="49" height="7.46"/><rect class="cls-4" x="70.5" y="28" width="49" height="13"/><line class="cls-8" x1="70.5" y1="47.17" x2="119.5" y2="47.17"/><line class="cls-8" x1="70.5" y1="48.77" x2="119.5" y2="48.77"/><line class="cls-8" x1="70.5" y1="50.37" x2="119.5" y2="50.37"/><line class="cls-9" x1="70.5" y1="45.58" x2="119.5" y2="45.58"/><line class="cls-10" x1="70.5" y1="39.72" x2="119.5" y2="39.72"/><line class="cls-10" x1="70.5" y1="41.32" x2="119.5" y2="41.32"/><line class="cls-10" x1="70.5" y1="38.12" x2="119.5" y2="38.12"/><line class="cls-11" x1="70.5" y1="36.52" x2="119.5" y2="36.52"/><circle class="cls-12" cx="79.02" cy="40.52" r="3.2"/><polygon class="cls-3" points="70.5 45.26 72.16 45.23 73.09 44.12 75.12 43.51 76.23 44.12 76.97 43.51 79.19 41.67 82.15 37.95 83.63 36.89 85.11 36.89 87.72 35.87 89.73 35.91 91.03 37.8 93.06 40.27 94.35 40.45 97.41 44.31 100 43.91 101.15 45.19 103.74 45.19 104.29 46.62 105.59 46.62 108.22 49.02 111.55 47.39 114.14 48.21 114.88 47.39 118.39 49.02 119.5 49.64 119.5 53 70.5 53 70.5 45.26"/></g><g class="cls-16"><rect class="cls-5" x="-13" y="36" width="48" height="14"/><rect class="cls-3" x="-13" y="48" width="48" height="7"/><rect class="cls-4" x="-13" y="27" width="48" height="13"/><line class="cls-8" x1="-13" y1="45" x2="35" y2="45"/><line class="cls-8" x1="-13" y1="46.5" x2="35" y2="46.5"/><line class="cls-8" x1="-13" y1="48" x2="35" y2="48"/><line class="cls-9" x1="-13" y1="43.5" x2="35" y2="43.5"/><line class="cls-10" x1="-13" y1="38" x2="35" y2="38"/><line class="cls-10" x1="-13" y1="39.5" x2="35" y2="39.5"/><line class="cls-10" x1="-13" y1="36.5" x2="35" y2="36.5"/><line class="cls-11" x1="-13" y1="35" x2="35" y2="35"/><path class="cls-12" d="M9,48.5a3,3,0,0,1,6,0Z"/><line class="cls-11" x1="-5" y1="49" x2="27" y2="49"/><line class="cls-11" x1="-8" y1="50" x2="24" y2="50"/><line class="cls-11" x1="-1" y1="49.5" x2="31" y2="49.5"/><line class="cls-11" x1="-1" y1="50.5" x2="23" y2="50.5"/><line class="cls-11" x1="18.5" y1="51.5" x2="25" y2="51.5"/><line class="cls-11" x1="16.5" y1="52.5" x2="23" y2="52.5"/><line class="cls-11" x1="0.5" y1="51.5" x2="5" y2="51.5"/><line class="cls-9" x1="8" y1="49" x2="16" y2="49"/><line class="cls-17" x1="8" y1="51" x2="16" y2="51"/><line class="cls-9" x1="7" y1="52" x2="15" y2="52"/><line class="cls-9" x1="8" y1="53" x2="16" y2="53"/><line class="cls-9" x1="11" y1="54" x2="19" y2="54"/><line class="cls-9" x1="5" y1="54" x2="9" y2="54"/><line class="cls-17" x1="3" y1="51.5" x2="5" y2="51.5"/><line class="cls-17" x1="7" y1="53.5" x2="10" y2="53.5"/><line class="cls-17" x1="10" y1="51.5" x2="13" y2="51.5"/><line class="cls-9" x1="10" y1="49.5" x2="13" y2="49.5"/><line class="cls-17" x1="14" y1="50.5" x2="17" y2="50.5"/><line class="cls-9" x1="7" y1="50" x2="18" y2="50"/><line class="cls-17" x1="17" y1="52" x2="21" y2="52"/></g></g><g id="Borders"><path class="cls-4" d="M99,1V79H1V1H99m1-1H0V80H100V0Z"/></g></svg>