<svg xmlns="http://www.w3.org/2000/svg" viewBox="0 0 100 80"><defs><style>.cls-1{fill:#e1e1e1;}.cls-2,.cls-5{fill:none;stroke-miterlimit:10;}.cls-2{stroke:#9fbfe9;stroke-linecap:round;stroke-width:6px;}.cls-3{fill:#fff;}.cls-4{fill:#666;}.cls-5{stroke:#666;}.cls-6{fill:#b3b3b3;}.cls-7{fill:#8c8c8c;}</style></defs><title>VisualIndex_v3</title><g id="All"><rect class="cls-1" width="100" height="80"/><rect class="cls-2" x="12" y="15" width="76" height="22" rx="1.5" ry="1.5"/><rect class="cls-3" x="12.5" y="15.5" width="75" height="21"/><path class="cls-4" d="M87,16V36H13V16H87m1-1H12V37H88V15Z"/><line class="cls-5" x1="45" y1="17" x2="45" y2="34.82"/><path class="cls-4" d="M18.94,28.7a1.56,1.56,0,0,0,1.7,1.5c1.13,0,1.77-.69,1.77-2V20.6h1.32v7.62a2.88,2.88,0,0,1-3.08,3.19,2.75,2.75,0,0,1-3-2.72Z"/><path class="cls-4" d="M32.75,29.12a3.16,3.16,0,0,1-3.33,2.18c-2.19,0-3.56-1.58-3.56-4.08s1.39-4.09,3.56-4.09,3.43,1.52,3.43,4v.48H27.17v.06c.07,1.56.94,2.55,2.28,2.55a2,2,0,0,0,2-1.07Zm-5.57-2.56h4.35a2.13,2.13,0,0,0-2.12-2.32A2.25,2.25,0,0,0,27.17,26.57Z"/><path class="cls-4" d="M34.83,23.27H36v1.17h.12a2.21,2.21,0,0,1,2.19-1.31,5.54,5.54,0,0,1,.63,0v1.26a5.07,5.07,0,0,0-.81-.07,1.93,1.93,0,0,0-2.07,1.92v4.89H34.83Z"/><path class="cls-4" d="M40.47,20.79a.88.88,0,1,1,.88.88A.88.88,0,0,1,40.47,20.79Zm.25,2.48H42v7.9H40.71Z"/><rect class="cls-3" x="12.5" y="44.5" width="75" height="21"/><path class="cls-6" d="M87,45V65H13V45H87m1-1H12V66H88V44Z"/><path class="cls-6" d="M24.76,60.17H18.35V49.6h1.32V59h5.1Z"/><path class="cls-6" d="M25.94,56.22c0-2.54,1.39-4.09,3.64-4.09s3.64,1.55,3.64,4.09-1.39,4.09-3.64,4.09S25.94,58.75,25.94,56.22Zm6,0c0-1.87-.84-3-2.34-3s-2.34,1.08-2.34,3,.84,3,2.34,3S31.92,58.09,31.92,56.22Z"/><path class="cls-6" d="M36.59,58.91h-.12v1.26h-1.2v-11h1.26v4.38h.12a2.73,2.73,0,0,1,2.48-1.38c2,0,3.31,1.6,3.31,4.09s-1.31,4.09-3.31,4.09A2.83,2.83,0,0,1,36.59,58.91Zm-.09-2.69c0,1.82.89,3,2.33,3s2.3-1.11,2.3-3-.86-3-2.3-3S36.5,54.39,36.5,56.22Z"/><path class="cls-6" d="M44,56.22c0-2.54,1.39-4.09,3.64-4.09s3.64,1.55,3.64,4.09-1.39,4.09-3.64,4.09S44,58.75,44,56.22Zm6,0c0-1.87-.84-3-2.34-3s-2.34,1.08-2.34,3,.84,3,2.34,3S50,58.09,50,56.22Z"/><path class="cls-6" d="M53.28,52.27h1.2v1.17h.12a2.21,2.21,0,0,1,2.19-1.31,5.48,5.48,0,0,1,.63,0v1.26a5,5,0,0,0-.8-.07,1.93,1.93,0,0,0-2.07,1.92v4.89H53.28Z"/><path class="cls-6" d="M61.22,50.23v2H63v1.05H61.22v4.47c0,.93.35,1.33,1.17,1.33a5.2,5.2,0,0,0,.59,0v1.06a4.22,4.22,0,0,1-.74.07c-1.63,0-2.28-.6-2.28-2.11V53.33H58.68V52.27H60v-2Z"/><path class="cls-6" d="M64.66,49.79a.88.88,0,1,1,.88.88A.88.88,0,0,1,64.66,49.79Zm.25,2.48h1.26v7.9H64.91Z"/><path class="cls-6" d="M71.33,52.13c1.66,0,2.81.82,3,2.12H73.06a1.61,1.61,0,0,0-1.74-1c-.94,0-1.67.48-1.67,1.18,0,.54.44.88,1.37,1.11l1.21.29c1.49.36,2.21,1,2.21,2.14,0,1.41-1.37,2.39-3.16,2.39s-3-.84-3.11-2.15h1.3a1.74,1.74,0,0,0,1.85,1.09c1.06,0,1.82-.51,1.82-1.23,0-.54-.41-.91-1.25-1.11l-1.36-.33c-1.48-.36-2.15-1-2.15-2.14C68.39,53.12,69.65,52.13,71.33,52.13Z"/></g><g id="Borders"><path class="cls-7" d="M99,1V79H1V1H99m1-1H0V80H100V0Z"/></g></svg>