<svg xmlns="http://www.w3.org/2000/svg" viewBox="0 0 100 80"><defs><style>.cls-1{fill:#ccc;}.cls-2,.cls-8,.cls-9{fill:#e1e1e1;}.cls-2,.cls-4,.cls-5,.cls-6{fill-rule:evenodd;}.cls-3,.cls-4{fill:#b3b3b3;}.cls-5,.cls-7{fill:#fff;fill-opacity:0.95;}.cls-5,.cls-6,.cls-7{stroke:#666;}.cls-5,.cls-6,.cls-7,.cls-9{stroke-miterlimit:10;}.cls-6{fill:none;}.cls-9{stroke:#b3b3b3;}.cls-10{fill:#8c8c8c;}</style></defs><title>VisualIndex_v3</title><g id="All"><rect class="cls-1" width="100" height="80"/><path class="cls-2" d="M6.5,67.5V12A4.5,4.5,0,0,1,11,7.5H99.5v60Z"/><path class="cls-3" d="M99,8V67H7V12a4,4,0,0,1,4-4H99m1-1H11a5,5,0,0,0-5,5V68h94V7Z"/><path class="cls-4" d="M49,68H15V33a3,3,0,0,1,3-3H46a3,3,0,0,1,3,3Z"/><polygon class="cls-5" points="40.5 42 40.5 59.5 22.5 59.5 22.5 35.5 34 35.5 40.5 42"/><polyline class="cls-6" points="41 42.5 34.5 42.5 34.5 36"/><rect class="cls-7" x="56.5" y="39.5" width="22" height="14"/><polygon class="cls-5" points="73.5 58.5 61.5 58.5 61.5 58.5 73.5 58.5 73.5 58.5"/><rect class="cls-7" x="64.5" y="53.5" width="6" height="5"/><rect class="cls-8" x="6.5" y="67.5" width="93" height="12"/><path class="cls-3" d="M99,68V79H7V68H99m1-1H6V80h94V67Z"/><circle class="cls-9" cx="15.5" cy="16.5" r="4.5"/><circle class="cls-9" cx="28.1" cy="16.5" r="4.5"/><circle class="cls-9" cx="40.7" cy="16.5" r="4.5"/><path class="cls-3" d="M99,8V79H7V12a4,4,0,0,1,4-4H99m1-1H11a5,5,0,0,0-5,5V80h94V7Z"/></g><g id="Borders"><path class="cls-10" d="M99,1V79H1V1H99m1-1H0V80H100V0Z"/></g></svg>