<svg xmlns="http://www.w3.org/2000/svg" viewBox="0 0 100 80"><defs><style>.cls-1{fill:#ccc;}.cls-2{fill:#fff;}.cls-3{fill:#666;}.cls-4{fill:#b3b3b3;}.cls-5{fill:#e1e1e1;}.cls-6{fill:none;stroke:#fafafa;stroke-miterlimit:10;}.cls-7{fill:#8c8c8c;}</style></defs><title>VisualIndex_v3</title><g id="All"><rect class="cls-1" x="-0.5" width="100" height="80"/><rect class="cls-2" x="10.5" y="10.5" width="79" height="59"/><path class="cls-3" d="M89,11V69H11V11H89m1-1H10V70H90V10Z"/><path class="cls-4" d="M50,59A19,19,0,1,1,69,40,19,19,0,0,1,50,59Z"/><path class="cls-5" d="M50,22A18,18,0,1,1,32,40,18,18,0,0,1,50,22m0-2A20,20,0,1,0,70,40,20,20,0,0,0,50,20Z"/><path class="cls-2" d="M47.86,37.74,39.07,50.32l13.07-8.06,8.79-12.58ZM50,41.87A1.87,1.87,0,1,1,51.87,40,1.87,1.87,0,0,1,50,41.87Z"/><line class="cls-6" x1="50" y1="25.05" x2="50" y2="27.54"/><line class="cls-6" x1="50" y1="52.46" x2="50" y2="54.95"/><line class="cls-6" x1="64.95" y1="40" x2="62.46" y2="40"/><line class="cls-6" x1="37.54" y1="40" x2="35.05" y2="40"/><line class="cls-6" x1="60.57" y1="50.57" x2="58.81" y2="48.81"/><line class="cls-6" x1="41.19" y1="31.19" x2="39.43" y2="29.43"/><line class="cls-6" x1="44.21" y1="26.22" x2="45.18" y2="28.52"/><line class="cls-6" x1="54.82" y1="51.48" x2="55.79" y2="53.78"/><line class="cls-6" x1="55.65" y1="26.16" x2="54.71" y2="28.47"/><line class="cls-6" x1="45.29" y1="51.53" x2="44.35" y2="53.84"/><line class="cls-6" x1="63.84" y1="45.65" x2="61.53" y2="44.71"/><line class="cls-6" x1="38.47" y1="35.29" x2="36.16" y2="34.35"/><line class="cls-6" x1="36.22" y1="45.79" x2="38.52" y2="44.82"/><line class="cls-6" x1="61.48" y1="35.18" x2="63.78" y2="34.21"/></g><g id="Borders"><path class="cls-7" d="M99,1V79H1V1H99m1-1H0V80H100V0Z"/></g></svg>