<svg xmlns="http://www.w3.org/2000/svg" viewBox="0 0 100 80"><defs><style>.cls-1{fill:#e1e1e1;}.cls-2{fill:#ccc;}.cls-3{fill:#fff;}.cls-3,.cls-4{stroke:#666;stroke-miterlimit:10;}.cls-4{fill:none;stroke-linecap:round;stroke-width:1.5px;}.cls-5{fill:#666;}.cls-6{fill:#8c8c8c;}</style></defs><title>VisualIndex_v3</title><g id="All"><rect class="cls-1" x="0.5" y="0.5" width="99" height="79"/><path class="cls-2" d="M99,1V79H1V1H99m1-1H0V80H100V0Z"/><rect class="cls-3" x="30.5" y="29.5" width="38" height="22" rx="3.5" ry="3.5" transform="translate(99 81) rotate(180)"/><polyline class="cls-4" points="56 39.5 59 42.5 62 39.5"/><path class="cls-5" d="M41.76,47a.42.42,0,0,1-.42-.42V45.24a.79.79,0,0,0-.25-.58.83.83,0,0,0-1.12,0l-.85.85a.39.39,0,0,1-.6,0l-1-1a.45.45,0,0,1,0-.6l.85-.85a.8.8,0,0,0-.57-1.37H36.42a.42.42,0,0,1-.42-.42V39.76a.42.42,0,0,1,.42-.42h1.34A.8.8,0,0,0,38.33,38l-.85-.84a.44.44,0,0,1,0-.6l1-1a.39.39,0,0,1,.6,0l.84.84a.79.79,0,0,0,.56.23.8.8,0,0,0,.81-.8V34.42a.42.42,0,0,1,.42-.42h1.48a.42.42,0,0,1,.42.42v1.34a.79.79,0,0,0,.25.58.83.83,0,0,0,1.12,0l.84-.85a.39.39,0,0,1,.6,0l1,1a.44.44,0,0,1,0,.6l-.84.84a.8.8,0,0,0,.57,1.37h1.34a.42.42,0,0,1,.42.42v1.48a.42.42,0,0,1-.42.42H47.24A.8.8,0,0,0,46.67,43l.84.84a.43.43,0,0,1,.12.3.42.42,0,0,1-.12.3l-1,1a.39.39,0,0,1-.6,0L45,44.67a.79.79,0,0,0-.56-.24.81.81,0,0,0-.81.8v1.34a.42.42,0,0,1-.42.42Zm.74-8.16a1.66,1.66,0,1,0,1.66,1.66,1.66,1.66,0,0,0-1.66-1.66"/></g><g id="Borders"><path class="cls-6" d="M99,1V79H1V1H99m1-1H0V80H100V0Z"/></g></svg>