<svg xmlns="http://www.w3.org/2000/svg" viewBox="0 0 100 80"><defs><style>.cls-1{fill:#ccc;}.cls-2,.cls-4{fill:#e1e1e1;}.cls-3{fill:#b3b3b3;}.cls-4{fill-rule:evenodd;}.cls-5{fill:#fff;}.cls-6{fill:#666;}.cls-7{fill:#8c8c8c;}</style></defs><title>VisualIndex_v3</title><g id="All"><rect class="cls-1" width="100" height="80"/><path class="cls-2" d="M10,72.5A2.5,2.5,0,0,1,7.5,70V17.5h85V70A2.5,2.5,0,0,1,90,72.5Z"/><path class="cls-3" d="M92,18V70a2,2,0,0,1-2,2H10a2,2,0,0,1-2-2V18H92m1-1H7V70a3,3,0,0,0,3,3H90a3,3,0,0,0,3-3V17Z"/><path class="cls-4" d="M7.5,19.5V10A2.5,2.5,0,0,1,10,7.5H90A2.5,2.5,0,0,1,92.5,10v9.5Z"/><path class="cls-3" d="M90,8a2,2,0,0,1,2,2v9H8V10a2,2,0,0,1,2-2H90m0-1H10a3,3,0,0,0-3,3V20H93V10a3,3,0,0,0-3-3Z"/><path class="cls-3" d="M90,8a2,2,0,0,1,2,2V70a2,2,0,0,1-2,2H10a2,2,0,0,1-2-2V10a2,2,0,0,1,2-2H90m0-1H10a3,3,0,0,0-3,3V70a3,3,0,0,0,3,3H90a3,3,0,0,0,3-3V10a3,3,0,0,0-3-3Z"/><circle class="cls-2" cx="14" cy="13.5" r="2.5"/><path class="cls-3" d="M14,11.5a2,2,0,1,1-2,2,2,2,0,0,1,2-2m0-1a3,3,0,1,0,3,3,3,3,0,0,0-3-3Z"/><circle class="cls-2" cx="22.4" cy="13.5" r="2.5"/><path class="cls-3" d="M22.4,11.5a2,2,0,1,1-2,2,2,2,0,0,1,2-2m0-1a3,3,0,1,0,3,3,3,3,0,0,0-3-3Z"/><circle class="cls-2" cx="30.8" cy="13.5" r="2.5"/><path class="cls-3" d="M30.8,11.5a2,2,0,1,1-2,2,2,2,0,0,1,2-2m0-1a3,3,0,1,0,3,3,3,3,0,0,0-3-3Z"/><rect class="cls-5" x="12.5" y="24.5" width="75" height="43" rx="2.5" ry="2.5"/><path class="cls-6" d="M85,25a2,2,0,0,1,2,2V65a2,2,0,0,1-2,2H15a2,2,0,0,1-2-2V27a2,2,0,0,1,2-2H85m0-1H15a3,3,0,0,0-3,3V65a3,3,0,0,0,3,3H85a3,3,0,0,0,3-3V27a3,3,0,0,0-3-3Z"/></g><g id="Borders"><path class="cls-7" d="M99,1V79H1V1H99m1-1H0V80H100V0Z"/></g></svg>