<svg xmlns="http://www.w3.org/2000/svg" viewBox="0 0 100 80"><defs><style>.cls-1{fill:#fff;}.cls-2{fill:#666;}.cls-3,.cls-6{fill:#b3b3b3;}.cls-3{stroke:#666;stroke-miterlimit:10;}.cls-4{fill:#e1e1e1;}.cls-5{fill:#8c8c8c;}.cls-7{fill:#fafafa;}.cls-8{fill:#ccc;}</style></defs><title>VisualIndex_v3</title><g id="All"><rect class="cls-1" x="66.5" y="0.5" width="33" height="79"/><path class="cls-2" d="M99,1V79H67V1H99m1-1H66V80h34V0Z"/><rect class="cls-1" x="33.5" y="0.5" width="33" height="79"/><path class="cls-2" d="M66,1V79H34V1H66m1-1H33V80H67V0Z"/><rect class="cls-1" x="0.5" y="0.5" width="33" height="79"/><path class="cls-2" d="M33,1V79H1V1H33m1-1H0V80H34V0Z"/><path class="cls-3" d="M46.16,5.5H40.52L40,4.68a.34.34,0,0,0-.3-.18h-2.9a.34.34,0,0,0-.34.34v7.31a.34.34,0,0,0,.34.34h9.31a.34.34,0,0,0,.34-.34V5.84A.34.34,0,0,0,46.16,5.5Z"/><rect class="cls-4" x="34" y="16" width="32" height="15"/><rect class="cls-2" x="67" y="31" width="32" height="15"/><path class="cls-3" d="M46.16,20.5H40.52L40,19.68a.34.34,0,0,0-.3-.18h-2.9a.34.34,0,0,0-.34.34v7.31a.34.34,0,0,0,.34.34h9.31a.34.34,0,0,0,.34-.34V20.84A.34.34,0,0,0,46.16,20.5Z"/><path class="cls-3" d="M46.16,35.5H40.52L40,34.68a.34.34,0,0,0-.3-.18h-2.9a.34.34,0,0,0-.34.34v7.31a.34.34,0,0,0,.34.34h9.31a.34.34,0,0,0,.34-.34V35.84A.34.34,0,0,0,46.16,35.5Z"/><polygon class="cls-5" points="60 6 64 8.29 60 10.57 60 6"/><polygon class="cls-5" points="60 22 64 24.29 60 26.57 60 22"/><path class="cls-3" d="M46.16,50.5H40.52L40,49.68a.34.34,0,0,0-.3-.18h-2.9a.34.34,0,0,0-.34.34v7.31a.34.34,0,0,0,.34.34h9.31a.34.34,0,0,0,.34-.34V50.84A.34.34,0,0,0,46.16,50.5Z"/><polygon class="cls-5" points="60 52 64 54.29 60 56.57 60 52"/><rect class="cls-4" x="1" y="1" width="32" height="15"/><path class="cls-3" d="M16.16,5.5H10.52L10,4.68a.34.34,0,0,0-.3-.18H6.84a.34.34,0,0,0-.34.34v7.31a.34.34,0,0,0,.34.34h9.31a.34.34,0,0,0,.34-.34V5.84A.34.34,0,0,0,16.16,5.5Z"/><polygon class="cls-5" points="27 6 31 8.29 27 10.57 27 6"/><polygon class="cls-5" points="60 36.6 64 38.89 60 41.17 60 36.6"/><rect class="cls-6" x="69.5" y="35.5" width="4" height="6"/><path class="cls-7" d="M73,36v5H70V36h3m1-1H69v7h5V35Z"/><rect class="cls-1" x="69.5" y="20.5" width="4" height="6"/><path class="cls-8" d="M73,21v5H70V21h3m1-1H69v7h5V20Z"/><rect class="cls-1" x="69.5" y="5.5" width="4" height="6"/><path class="cls-8" d="M73,6v5H70V6h3m1-1H69v7h5V5Z"/><path class="cls-1" d="M77.29,39.42a1,1,0,0,0,2,0v-2.7H80v2.77a1.75,1.75,0,0,1-3.47,0V36.72h.75Z"/><path class="cls-1" d="M82.37,37.67c.76,0,1.24.34,1.29.92H83c-.05-.23-.27-.37-.61-.37s-.58.16-.58.39.15.29.47.37l.57.13c.61.14.9.4.9.87s-.57,1-1.37,1-1.3-.35-1.36-.93h.72c.07.24.3.38.66.38s.62-.16.62-.4-.14-.3-.44-.36L82,39.56c-.62-.14-.91-.42-.91-.91S81.62,37.67,82.37,37.67Z"/><path class="cls-1" d="M84.72,40.54a.47.47,0,1,1,.47.46A.45.45,0,0,1,84.72,40.54Z"/><path class="cls-1" d="M87.54,41.06c0,.66-.36,1-1.08,1h-.18v-.57h.09c.32,0,.44-.12.44-.41V37.74h.72Zm-.81-4.25a.45.45,0,1,1,.45.4A.41.41,0,0,1,86.72,36.82Z"/><path class="cls-1" d="M91.68,39.34c0,1-.5,1.66-1.31,1.66a1,1,0,0,1-1-.54h0V42h-.73V37.74h.7v.53h0a1.09,1.09,0,0,1,1-.58C91.17,37.69,91.68,38.31,91.68,39.34Zm-.75,0c0-.65-.3-1-.8-1s-.81.4-.81,1,.31,1,.81,1S90.94,40,90.94,39.34Z"/><path class="cls-1" d="M92.55,41.25h.73c0,.22.3.36.7.36s.79-.23.79-.64v-.61h0a1,1,0,0,1-1,.53c-.81,0-1.31-.63-1.31-1.59s.51-1.62,1.32-1.62a1.09,1.09,0,0,1,1,.57h0v-.51h.7V41c0,.74-.59,1.21-1.53,1.21S92.61,41.8,92.55,41.25Zm2.23-1.94c0-.61-.31-1-.81-1s-.79.39-.79,1,.29,1,.79,1S94.78,39.92,94.78,39.31Z"/><path class="cls-5" d="M80.21,10.41V7.18h0l-1.33,3.2H78.4l-1.33-3.2h0v3.23h-.49V6.18h.61l1.45,3.5h0l1.45-3.5h.61v4.23Z"/><path class="cls-5" d="M84.49,9.59a1.26,1.26,0,0,1-1.33.87c-.88,0-1.42-.63-1.42-1.63A1.44,1.44,0,0,1,83.16,7.2c.85,0,1.37.61,1.37,1.59V9H82.27V9c0,.62.38,1,.91,1A.82.82,0,0,0,84,9.59Zm-2.23-1H84a.85.85,0,0,0-.85-.93A.9.9,0,0,0,82.27,8.57Z"/><path class="cls-5" d="M85.54,10.06a.38.38,0,1,1,.38.38A.38.38,0,0,1,85.54,10.06Z"/><path class="cls-5" d="M88,10.57c0,.65-.3.93-1,.93h-.09v-.43H87c.36,0,.47-.14.47-.49V7.25H88Zm-.6-4.31a.35.35,0,1,1,.35.35A.35.35,0,0,1,87.38,6.26Z"/><path class="cls-5" d="M92,8.83c0,1-.52,1.63-1.33,1.63a1.06,1.06,0,0,1-1-.53h0v1.53h-.5V7.25h.48v.53h0a1.14,1.14,0,0,1,1-.58C91.47,7.2,92,7.84,92,8.83Zm-.52,0c0-.74-.35-1.18-.92-1.18s-.93.45-.93,1.18S90,10,90.54,10,91.47,9.57,91.47,8.83Z"/><path class="cls-5" d="M92.94,10.76h.53c.06.26.34.42.79.42s.9-.28.9-.74V9.82h0a1.1,1.1,0,0,1-1,.54c-.82,0-1.32-.63-1.32-1.58s.51-1.59,1.32-1.59a1.13,1.13,0,0,1,1,.56h0v-.5h.48v3.21c0,.71-.54,1.16-1.41,1.16S93,11.28,92.94,10.76Zm2.24-2c0-.69-.35-1.13-.94-1.13s-.91.45-.91,1.13.33,1.13.91,1.13S95.18,9.47,95.18,8.79Z"/><path class="cls-5" d="M77.71,24.91V23.09l-1.5-2.41h.6l1.14,1.88h0l1.14-1.88h.6l-1.5,2.41v1.82Z"/><path class="cls-5" d="M79.94,23.33a1.47,1.47,0,1,1,2.91,0,1.47,1.47,0,1,1-2.91,0Zm2.39,0c0-.75-.34-1.18-.93-1.18s-.93.43-.93,1.18.34,1.18.93,1.18S82.33,24.08,82.33,23.33Z"/><path class="cls-5" d="M86.37,24.91h-.48v-.5h0a1,1,0,0,1-1,.55c-.71,0-1.08-.42-1.08-1.17v-2h.5v1.92c0,.57.21.83.71.83a.79.79,0,0,0,.86-.88V21.75h.5Z"/><path class="cls-5" d="M87.54,24.56a.38.38,0,1,1,.38.38A.38.38,0,0,1,87.54,24.56Z"/><path class="cls-5" d="M90,25.07c0,.65-.3.93-1,.93h-.09v-.43H89c.36,0,.47-.14.47-.49V21.75H90Zm-.6-4.31a.35.35,0,1,1,.35.35A.35.35,0,0,1,89.38,20.76Z"/><path class="cls-5" d="M94,23.33c0,1-.52,1.63-1.33,1.63a1.06,1.06,0,0,1-1-.53h0V26h-.5V21.75h.48v.53h0a1.14,1.14,0,0,1,1-.58C93.46,21.7,94,22.34,94,23.33Zm-.52,0c0-.74-.35-1.18-.92-1.18s-.93.45-.93,1.18.36,1.18.93,1.18S93.46,24.07,93.46,23.33Z"/><path class="cls-5" d="M94.93,25.26h.53c.06.26.34.42.79.42s.9-.28.9-.74v-.62h0a1.1,1.1,0,0,1-1,.54c-.82,0-1.32-.63-1.32-1.58s.51-1.59,1.32-1.59a1.13,1.13,0,0,1,1,.56h0v-.5h.48V25c0,.71-.54,1.16-1.41,1.16S95,25.78,94.93,25.26Zm2.24-2c0-.69-.35-1.13-.94-1.13s-.91.45-.91,1.13.33,1.13.91,1.13S97.17,24,97.17,23.29Z"/></g><g id="Borders"><path class="cls-5" d="M99,1V79H1V1H99m1-1H0V80H100V0Z"/></g></svg>