<svg xmlns="http://www.w3.org/2000/svg" viewBox="0 0 100 80"><defs><style>.cls-1{fill:#e1e1e1;}.cls-2{fill:#666;}.cls-3{fill:#8c8c8c;}</style></defs><title>VisualIndex_v3</title><g id="All"><rect class="cls-1" width="100" height="80"/><polygon class="cls-2" points="17 31.36 17 48.64 31.61 40 17 31.36"/><path class="cls-2" d="M44.76,44.53H38.35V34h1.32v9.38h5.1Z"/><path class="cls-2" d="M46.33,40.58c0-2.54,1.39-4.09,3.64-4.09s3.64,1.55,3.64,4.09S52.22,44.67,50,44.67,46.33,43.12,46.33,40.58Zm6,0c0-1.87-.84-3-2.34-3s-2.34,1.08-2.34,3,.84,3,2.34,3S52.31,42.45,52.31,40.58Z"/><path class="cls-2" d="M56,36.63h1.2v1.17h.12a2.2,2.2,0,0,1,2.19-1.31,5.44,5.44,0,0,1,.63,0v1.26a5.07,5.07,0,0,0-.81-.07,1.93,1.93,0,0,0-2.07,1.92v4.89H56Z"/><path class="cls-2" d="M68.35,42.49A3.16,3.16,0,0,1,65,44.67c-2.19,0-3.56-1.58-3.56-4.08S62.86,36.5,65,36.5s3.43,1.52,3.43,4v.48H62.78V41c.07,1.56.94,2.55,2.28,2.55a2,2,0,0,0,2-1.07Zm-5.57-2.56h4.35A2.12,2.12,0,0,0,65,37.61,2.25,2.25,0,0,0,62.78,39.93Z"/><path class="cls-2" d="M70.82,36.63H72v1.25h.12a2.24,2.24,0,0,1,2.21-1.38,2.28,2.28,0,0,1,2.18,1.38h.12a2.65,2.65,0,0,1,2.42-1.38,2.3,2.3,0,0,1,2.51,2.58v5.46H80.31V39.37c0-1.16-.55-1.74-1.66-1.74a1.78,1.78,0,0,0-1.83,1.82v5.08H75.56V39.17a1.5,1.5,0,0,0-1.65-1.54,1.91,1.91,0,0,0-1.83,2v4.89H70.82Z"/></g><g id="Borders"><path class="cls-3" d="M99,1V79H1V1H99m1-1H0V80H100V0Z"/></g></svg>