<svg xmlns="http://www.w3.org/2000/svg" viewBox="0 0 100 80"><defs><style>.cls-1{fill:#ccc;}.cls-2{fill:#e1e1e1;}.cls-3{fill:#fff;fill-opacity:0.95;stroke:#666;}.cls-3,.cls-5{stroke-miterlimit:10;}.cls-4{fill:#b3b3b3;}.cls-5,.cls-7{fill:none;}.cls-5{stroke:#e1e1e1;}.cls-6{fill:#8c8c8c;}</style></defs><title>VisualIndex_v3</title><g id="All"><rect class="cls-1" width="100" height="80"/><rect class="cls-2" y="66" width="100" height="14"/><path class="cls-3" d="M82.5,7.5h-64a3,3,0,0,0-3,3v40a3,3,0,0,0,3,3h5.14a4.7,4.7,0,0,1,3.86,2L33,63.39a.59.59,0,0,0,1,0l5.46-7.87a4.7,4.7,0,0,1,3.86-2H82.5a3,3,0,0,0,3-3v-40A3,3,0,0,0,82.5,7.5Z"/><rect class="cls-4" x="21" y="71" width="25" height="9"/><path class="cls-4" d="M59.17,80a15.51,15.51,0,0,1,27.66,0Z"/><line class="cls-5" x1="17" y1="28.5" x2="84" y2="28.5"/><polygon class="cls-6" points="75 14.5 75 21.36 81 17.93 75 14.5"/><rect class="cls-7" width="100" height="80"/><path class="cls-6" d="M23.32,42.25V36.93H21.39v-.67H26v.67H24.07v5.32Z"/><path class="cls-6" d="M27.16,36.37a.5.5,0,1,1,.5.5A.5.5,0,0,1,27.16,36.37Zm.14,1.41H28v4.47H27.3Z"/><path class="cls-6" d="M29.59,37.78h.68v.71h.07a1.35,1.35,0,0,1,1.34-.78,1.46,1.46,0,0,1,1.56,1.66v2.9h-.71V39.53c0-.81-.34-1.19-1.05-1.19a1.13,1.13,0,0,0-1.17,1.26v2.65h-.71Z"/><path class="cls-6" d="M37.75,39.15a1.11,1.11,0,0,0-1.15-.81c-.81,0-1.31.64-1.31,1.66s.51,1.69,1.31,1.69a1.08,1.08,0,0,0,1.15-.78h.72a1.73,1.73,0,0,1-1.87,1.43A2.06,2.06,0,0,1,34.55,40a2,2,0,0,1,2.05-2.3,1.76,1.76,0,0,1,1.88,1.45Z"/><path class="cls-6" d="M39.63,36.37a.5.5,0,1,1,.5.5A.5.5,0,0,1,39.63,36.37Zm.14,1.41h.71v4.47h-.71Z"/><path class="cls-6" d="M41.84,40c0-1.4.74-2.32,1.88-2.32a1.53,1.53,0,0,1,1.4.78h.06V36h.71v6.25h-.68v-.71h-.07a1.6,1.6,0,0,1-1.43.79C42.57,42.33,41.84,41.42,41.84,40Zm.74,0c0,1,.49,1.67,1.31,1.67S45.2,41,45.2,40s-.51-1.67-1.32-1.67S42.58,39,42.58,40Z"/><path class="cls-6" d="M51.13,42.25h-.68v-.7h-.07a1.4,1.4,0,0,1-1.39.78c-1,0-1.53-.6-1.53-1.66v-2.9h.71V40.5c0,.81.3,1.18,1,1.18a1.13,1.13,0,0,0,1.22-1.25V37.78h.71Z"/><path class="cls-6" d="M52.69,37.78h.68v.71h.07a1.35,1.35,0,0,1,1.34-.78,1.46,1.46,0,0,1,1.56,1.66v2.9h-.71V39.53c0-.81-.34-1.19-1.05-1.19A1.13,1.13,0,0,0,53.4,39.6v2.65h-.71Z"/><path class="cls-6" d="M58.88,36.62v1.16h1v.6h-1v2.53c0,.53.2.75.66.75l.33,0v.6a2.39,2.39,0,0,1-.42,0c-.92,0-1.29-.34-1.29-1.2V38.37h-.72v-.6h.72V36.62Z"/><path class="cls-6" d="M27,20.75V16.18h0L25,20.71H24.4l-1.89-4.53h0v4.57h-.7v-6h.87l2.05,5h.07l2-5h.87v6Z"/><path class="cls-6" d="M29.2,14.87a.5.5,0,1,1,.5.5A.5.5,0,0,1,29.2,14.87Zm.14,1.41h.71v4.47h-.71Z"/><path class="cls-6" d="M31.64,16.28h.68V17h.07a1.35,1.35,0,0,1,1.34-.78,1.46,1.46,0,0,1,1.56,1.66v2.9h-.71V18c0-.81-.34-1.19-1.05-1.19a1.13,1.13,0,0,0-1.17,1.26v2.65h-.71Z"/><path class="cls-6" d="M36.69,14.87a.5.5,0,1,1,.5.5A.5.5,0,0,1,36.69,14.87Zm.14,1.41h.71v4.47h-.71Z"/><path class="cls-6" d="M39.13,16.28h.68V17h.07a1.27,1.27,0,0,1,1.25-.78,1.29,1.29,0,0,1,1.24.78h.07a1.5,1.5,0,0,1,1.37-.78,1.31,1.31,0,0,1,1.42,1.46v3.09h-.71V17.82c0-.66-.31-1-.94-1a1,1,0,0,0-1,1v2.88h-.71v-3a.85.85,0,0,0-.93-.87,1.08,1.08,0,0,0-1,1.14v2.77h-.71Z"/><path class="cls-6" d="M53.17,20.75H49.46v-6h3.71v.67h-3v1.92H53V18H50.2v2.06h3Z"/><path class="cls-6" d="M56.21,16.2a1.51,1.51,0,0,1,1.68,1.2h-.71a.91.91,0,0,0-1-.59c-.53,0-.95.27-.95.67s.25.5.78.63l.69.17c.84.2,1.25.57,1.25,1.21,0,.8-.78,1.35-1.79,1.35s-1.68-.48-1.76-1.22h.73a1,1,0,0,0,1.05.62c.6,0,1-.29,1-.7S57,19,56.53,18.9l-.77-.19c-.84-.2-1.22-.56-1.22-1.21S55.26,16.2,56.21,16.2Z"/><path class="cls-6" d="M60.8,16.2a1.51,1.51,0,0,1,1.69,1.2h-.71a.91.91,0,0,0-1-.59c-.53,0-.95.27-.95.67s.25.5.78.63l.69.17c.84.2,1.25.57,1.25,1.21,0,.8-.78,1.35-1.79,1.35s-1.68-.48-1.76-1.22h.73a1,1,0,0,0,1,.62c.6,0,1-.29,1-.7s-.23-.51-.71-.63l-.77-.19c-.84-.2-1.22-.56-1.22-1.21S59.85,16.2,60.8,16.2Z"/><path class="cls-6" d="M67.58,19.59a1.79,1.79,0,0,1-1.88,1.24c-1.24,0-2-.9-2-2.31a2,2,0,0,1,2-2.32c1.21,0,1.94.86,1.94,2.25v.27H64.43v0c0,.88.53,1.44,1.29,1.44a1.16,1.16,0,0,0,1.15-.61Zm-3.16-1.45h2.47a1.2,1.2,0,0,0-1.2-1.32A1.28,1.28,0,0,0,64.43,18.14Z"/></g><g id="Borders"><path class="cls-6" d="M99,1V79H1V1H99m1-1H0V80H100V0Z"/></g></svg>