<svg xmlns="http://www.w3.org/2000/svg" viewBox="0 0 100 80"><defs><style>.cls-1{fill:#ccc;}.cls-2{fill:#e1e1e1;}.cls-3{fill:#b3b3b3;}.cls-4{fill:#fff;stroke:#8c8c8c;stroke-miterlimit:10;}.cls-5{fill:#8c8c8c;}</style></defs><title>VisualIndex_v3</title><g id="All"><rect class="cls-1" width="100" height="80"/><path class="cls-1" d="M99,1V79H1V1H99m1-1H0V80H100V0Z"/><rect class="cls-2" x="23.5" y="13.5" width="54" height="54"/><path class="cls-3" d="M77,14V67H24V14H77m1-1H23V68H78V13Z"/><rect class="cls-4" x="32.5" y="22.5" width="36" height="36"/><path class="cls-5" d="M67,24.5l-8,6L62.81,24H57.08l.42,5.84L53.67,24H43.73l12.19,6.89-9.2-2c-2.84-.41-5.7-.12-7.61,2L37.5,33H43l1-1.53L45,33H47l1-1.53L49,33h6l-7.87,5.66a7.24,7.24,0,0,0-3.12,6v2.5L56,34.53,54.66,44a3.86,3.86,0,0,0,1,3.28L58,49.67V45.23l-1-.66,1-.66V35s7.05,10.58,7.05,19.46L35.5,57H67V47.09c.5,0-3-8.09-7.5-13.09L67,37.91V33.19l-7-.93,7-.79Z"/></g><g id="Borders"><path class="cls-5" d="M99,1V79H1V1H99m1-1H0V80H100V0Z"/></g></svg>