<svg xmlns="http://www.w3.org/2000/svg" viewBox="0 0 100 80"><defs><style>.cls-1{fill:#ccc;}.cls-2{fill:#fafafa;}.cls-3{fill:#b3b3b3;}.cls-4{fill:#666;}.cls-5{fill:#8c8c8c;}.cls-11,.cls-6,.cls-7,.cls-8,.cls-9{fill:none;stroke-miterlimit:10;}.cls-6,.cls-7{stroke:#e1e1e1;}.cls-11,.cls-7,.cls-9{stroke-width:0.5px;}.cls-8,.cls-9{stroke:#ccc;}.cls-10{fill:#fff;}.cls-11{stroke:#fafafa;}</style></defs><title>VisualIndex_v3</title><g id="All"><rect class="cls-1" width="100" height="80"/><path class="cls-2" d="M77,24a1,1,0,0,1,1,1V57a1,1,0,0,1-1,1H23a1,1,0,0,1-1-1V25a1,1,0,0,1,1-1H77m0-2H23a3,3,0,0,0-3,3V57a3,3,0,0,0,3,3H77a3,3,0,0,0,3-3V25a3,3,0,0,0-3-3Z"/><rect class="cls-3" x="25.5" y="35.78" width="49.5" height="14.44"/><rect class="cls-4" x="25.5" y="48.16" width="49.5" height="7.22"/><rect class="cls-5" x="25.5" y="26.5" width="49.5" height="13.41"/><line class="cls-6" x1="25.5" y1="45.06" x2="75" y2="45.06"/><line class="cls-6" x1="25.5" y1="46.61" x2="75" y2="46.61"/><line class="cls-6" x1="25.5" y1="48.16" x2="75" y2="48.16"/><line class="cls-7" x1="25.5" y1="43.52" x2="75" y2="43.52"/><line class="cls-8" x1="25.5" y1="37.84" x2="75" y2="37.84"/><line class="cls-8" x1="25.5" y1="39.39" x2="75" y2="39.39"/><line class="cls-8" x1="25.5" y1="36.3" x2="75" y2="36.3"/><line class="cls-9" x1="25.5" y1="34.75" x2="75" y2="34.75"/><path class="cls-10" d="M48.19,48.67a3.09,3.09,0,0,1,6.19,0Z"/><line class="cls-9" x1="33.75" y1="49.19" x2="66.75" y2="49.19"/><line class="cls-9" x1="30.66" y1="50.22" x2="63.66" y2="50.22"/><line class="cls-9" x1="37.88" y1="49.7" x2="70.88" y2="49.7"/><line class="cls-9" x1="37.88" y1="50.73" x2="62.63" y2="50.73"/><line class="cls-9" x1="57.98" y1="51.77" x2="64.69" y2="51.77"/><line class="cls-9" x1="55.92" y1="52.8" x2="62.63" y2="52.8"/><line class="cls-9" x1="39.42" y1="51.77" x2="44.06" y2="51.77"/><line class="cls-7" x1="47.16" y1="49.19" x2="55.41" y2="49.19"/><line class="cls-11" x1="47.16" y1="51.25" x2="55.41" y2="51.25"/><line class="cls-7" x1="46.13" y1="52.28" x2="54.38" y2="52.28"/><line class="cls-7" x1="47.16" y1="53.31" x2="55.41" y2="53.31"/><line class="cls-7" x1="50.25" y1="54.34" x2="58.5" y2="54.34"/><line class="cls-7" x1="44.06" y1="54.34" x2="48.19" y2="54.34"/><line class="cls-11" x1="42" y1="51.77" x2="44.06" y2="51.77"/><line class="cls-11" x1="46.13" y1="53.83" x2="49.22" y2="53.83"/><line class="cls-11" x1="49.22" y1="51.77" x2="52.31" y2="51.77"/><line class="cls-7" x1="49.22" y1="49.7" x2="52.31" y2="49.7"/><line class="cls-11" x1="53.34" y1="50.73" x2="56.44" y2="50.73"/><line class="cls-7" x1="46.13" y1="50.22" x2="57.47" y2="50.22"/><line class="cls-11" x1="56.44" y1="52.28" x2="60.56" y2="52.28"/><path class="cls-4" d="M74,27V55H26V27H74m1-1H25V56H75V26Z"/></g><g id="Borders"><path class="cls-5" d="M99,1V79H1V1H99m1-1H0V80H100V0Z"/></g></svg>