<svg xmlns="http://www.w3.org/2000/svg" xmlns:xlink="http://www.w3.org/1999/xlink" viewBox="0 0 100 80"><defs><style>.cls-1,.cls-10,.cls-7,.cls-8,.cls-9{fill:none;}.cls-2{fill:#e1e1e1;}.cls-3{fill:#fff;}.cls-4{fill:#666;}.cls-5{fill:#b3b3b3;}.cls-6{fill:#8c8c8c;}.cls-7,.cls-8{stroke:#e1e1e1;}.cls-10,.cls-7,.cls-8,.cls-9{stroke-miterlimit:10;}.cls-10,.cls-8{stroke-width:0.5px;}.cls-10,.cls-9{stroke:#ccc;}.cls-11{clip-path:url(#clip-path);}</style><clipPath id="clip-path"><rect class="cls-1" x="65" y="23" width="23" height="14"/></clipPath></defs><title>VisualIndex_v3</title><g id="All"><rect class="cls-2" width="100" height="80"/><rect class="cls-3" x="11.5" y="21.5" width="47" height="39"/><path class="cls-4" d="M58,22V60H12V22H58m1-1H11V61H59V21Z"/><rect class="cls-2" x="63.5" y="43.5" width="26" height="17"/><path class="cls-5" d="M89,44V60H64V44H89m1-1H63V61H90V43Z"/><rect class="cls-5" x="65" y="45" width="23" height="14"/><rect class="cls-5" x="12" y="31" width="46" height="14"/><rect class="cls-2" x="12" y="43" width="46" height="14"/><rect class="cls-6" x="12" y="22" width="46" height="13"/><line class="cls-7" x1="12" y1="40" x2="58" y2="40"/><line class="cls-7" x1="12" y1="41.5" x2="58" y2="41.5"/><line class="cls-7" x1="12" y1="43" x2="58" y2="43"/><line class="cls-8" x1="12" y1="38.5" x2="58" y2="38.5"/><line class="cls-9" x1="12" y1="33" x2="58" y2="33"/><line class="cls-9" x1="12" y1="34.5" x2="58" y2="34.5"/><line class="cls-9" x1="12" y1="31.5" x2="58" y2="31.5"/><line class="cls-10" x1="12" y1="30" x2="58" y2="30"/><polygon class="cls-4" points="12 44.78 13.56 44.75 14.43 43.71 16.34 43.13 17.38 43.71 18.07 43.13 20.16 41.41 22.94 37.92 24.32 36.92 25.71 36.92 28.17 35.96 30.05 36 31.27 37.77 33.18 40.09 34.39 40.26 37.26 43.89 39.69 43.5 40.77 44.71 43.2 44.71 43.73 46.05 44.94 46.05 47.41 48.31 50.54 46.77 52.97 47.54 53.66 46.77 56.96 48.31 58 48.88 58 60 12 60 12 44.78"/><circle class="cls-3" cx="20" cy="30" r="3"/><rect class="cls-3" x="63.5" y="21.5" width="26" height="17"/><path class="cls-4" d="M89,22V38H64V22H89m1-1H63V39H90V21Z"/><g class="cls-11"><rect class="cls-5" x="65" y="26" width="23" height="7"/><rect class="cls-2" x="65" y="32" width="23" height="7"/><rect class="cls-6" x="65" y="23" width="23" height="5"/><line class="cls-7" x1="65" y1="30.5" x2="88" y2="30.5"/><line class="cls-8" x1="65" y1="29.75" x2="88" y2="29.75"/><line class="cls-9" x1="65" y1="27" x2="88" y2="27"/><line class="cls-9" x1="65" y1="27.75" x2="88" y2="27.75"/><line class="cls-9" x1="65" y1="26.25" x2="88" y2="26.25"/><line class="cls-10" x1="65" y1="25.5" x2="88" y2="25.5"/><polygon class="cls-4" points="65 32.89 65.78 32.88 66.22 32.35 67.17 32.07 67.69 32.35 68.04 32.07 69.08 31.2 70.47 29.46 71.16 28.96 71.86 28.96 73.08 28.48 74.03 28.5 74.63 29.38 75.59 30.55 76.2 30.63 77.63 32.44 78.84 32.25 79.39 32.85 80.6 32.85 80.86 33.52 81.47 33.52 82.71 34.65 84.27 33.89 85.48 34.27 85.83 33.89 87.48 34.65 88 34.94 88 37.5 65 37.5 65 32.89"/><circle class="cls-3" cx="69" cy="25.5" r="1.5"/></g></g><g id="Borders"><path class="cls-6" d="M99,1V79H1V1H99m1-1H0V80H100V0Z"/></g></svg>