<svg xmlns="http://www.w3.org/2000/svg" viewBox="0 0 100 80"><defs><style>.cls-1{fill:#e1e1e1;}.cls-2{fill:#666;}.cls-3{fill:#8c8c8c;}</style></defs><title>VisualIndex_v3</title><g id="All"><rect class="cls-1" width="100" height="80"/><path class="cls-2" d="M23.09,32.13V26.68H23l-2.14,5.15h-1l-2.14-5.15h-.08v5.45H16.38V24.38H18L20.33,30h.1l2.33-5.65h1.62v7.75Z"/><path class="cls-2" d="M26,24.56a.83.83,0,1,1,.82.74A.75.75,0,0,1,26,24.56Zm.16,1.69h1.33v5.88H26.17Z"/><path class="cls-2" d="M29.14,26.26h1.28v.94h.09a1.76,1.76,0,0,1,1.75-1.06c1.31,0,2,.79,2,2.19v3.8H33V28.65c0-.9-.38-1.35-1.19-1.35a1.26,1.26,0,0,0-1.29,1.41v3.42H29.14Z"/><path class="cls-2" d="M35.72,24.56a.83.83,0,1,1,.82.74A.75.75,0,0,1,35.72,24.56Zm.16,1.69h1.33v5.88H35.88Z"/><path class="cls-2" d="M38.86,26.26h1.28v1h.09a1.65,1.65,0,0,1,1.63-1.07,1.62,1.62,0,0,1,1.62,1.07h.09a1.9,1.9,0,0,1,1.78-1.07,1.77,1.77,0,0,1,1.89,2v4H45.92v-3.7c0-.76-.36-1.13-1.07-1.13a1.12,1.12,0,0,0-1.15,1.18v3.66H42.4v-3.8a1,1,0,0,0-1.06-1,1.18,1.18,0,0,0-1.15,1.26v3.57H38.86Z"/><path class="cls-2" d="M51.62,24.56a.83.83,0,1,1,.82.74A.75.75,0,0,1,51.62,24.56Zm.16,1.69H53.1v5.88H51.78Z"/><path class="cls-2" d="M60.38,29.19c0,1.88-.92,3-2.41,3a1.88,1.88,0,0,1-1.79-1h-.09v2.85H54.75V26.26H56v1h.09A2,2,0,0,1,58,26.16C59.44,26.16,60.38,27.31,60.38,29.19Zm-1.37,0c0-1.19-.55-1.9-1.47-1.9s-1.48.73-1.48,1.9.57,1.9,1.48,1.9S59,30.38,59,29.19Z"/><path class="cls-2" d="M63.93,26.14c1.4,0,2.27.62,2.37,1.69H65c-.1-.41-.49-.68-1.11-.68s-1.06.29-1.06.71.28.54.87.67l1,.24c1.12.25,1.64.74,1.64,1.6,0,1.13-1,1.88-2.5,1.88s-2.39-.63-2.49-1.7h1.32c.13.44.54.69,1.21.69s1.14-.29,1.14-.73-.25-.54-.81-.67l-1-.24c-1.13-.26-1.66-.78-1.66-1.66C61.58,26.87,62.54,26.14,63.93,26.14Z"/><path class="cls-2" d="M72.88,32.13H71.6V31.2h-.09a1.73,1.73,0,0,1-1.76,1.05,1.93,1.93,0,0,1-2-2.18V26.26H69v3.49c0,.9.37,1.34,1.17,1.34a1.25,1.25,0,0,0,1.34-1.4V26.26h1.33Z"/><path class="cls-2" d="M74.52,26.26H75.8v1h.09a1.65,1.65,0,0,1,1.63-1.07,1.62,1.62,0,0,1,1.62,1.07h.09A1.9,1.9,0,0,1,81,26.14a1.77,1.77,0,0,1,1.89,2v4H81.58v-3.7c0-.76-.36-1.13-1.07-1.13a1.12,1.12,0,0,0-1.15,1.18v3.66H78.06v-3.8a1,1,0,0,0-1.06-1,1.18,1.18,0,0,0-1.15,1.26v3.57H74.52Z"/><path class="cls-2" d="M84.62,27.37a.86.86,0,1,1,.86.84A.82.82,0,0,1,84.62,27.37Zm0,4a.86.86,0,1,1,.86.85A.82.82,0,0,1,84.62,31.4Z"/><path class="cls-2" d="M26.85,47.88c2.3,0,3.65,1.41,3.65,3.84s-1.33,3.91-3.65,3.91H23.94V47.88Zm-1.52,6.55h1.34c1.54,0,2.42-1,2.42-2.69s-.9-2.66-2.42-2.66H25.33Z"/><path class="cls-2" d="M37,55.63H35.77V54.7h-.09a1.73,1.73,0,0,1-1.76,1.05,1.93,1.93,0,0,1-2-2.18V49.76h1.33v3.49c0,.9.37,1.34,1.17,1.34a1.25,1.25,0,0,0,1.34-1.4V49.76H37Z"/><path class="cls-2" d="M38.54,48.06a.83.83,0,1,1,.82.74A.75.75,0,0,1,38.54,48.06Zm.16,1.69H40v5.88H38.7Z"/><path class="cls-2" d="M43.89,49.64c1.4,0,2.27.62,2.37,1.69H45c-.1-.41-.49-.68-1.11-.68s-1.06.29-1.06.71.28.54.87.67l1,.24c1.12.25,1.64.74,1.64,1.6,0,1.13-1,1.88-2.5,1.88s-2.39-.63-2.49-1.7h1.32c.13.44.54.69,1.21.69s1.14-.29,1.14-.73-.25-.54-.81-.67l-1-.24c-1.13-.26-1.66-.78-1.66-1.66C41.54,50.37,42.51,49.64,43.89,49.64Z"/><path class="cls-2" d="M50.34,54c0-1.06.8-1.68,2.23-1.76l1.51-.09v-.49c0-.57-.39-.9-1.11-.9s-1,.21-1.16.61H50.56c.11-1,1.08-1.7,2.48-1.7s2.36.74,2.36,2v4H54.11v-.81H54a1.94,1.94,0,0,1-1.74.9A1.77,1.77,0,0,1,50.34,54Zm3.74-.49V53l-1.33.09c-.75,0-1.1.32-1.1.79s.42.79,1,.79A1.29,1.29,0,0,0,54.08,53.48Z"/><path class="cls-2" d="M62.11,55.63H60.83V54.7h-.09A1.73,1.73,0,0,1,59,55.75a1.93,1.93,0,0,1-2-2.18V49.76h1.33v3.49c0,.9.37,1.34,1.17,1.34a1.25,1.25,0,0,0,1.34-1.4V49.76h1.33Z"/><path class="cls-2" d="M65.5,48.32v1.48h1.26v1.06H65.5v2.88c0,.58.25.84.81.84a4,4,0,0,0,.45,0v1a3.73,3.73,0,0,1-.7.06c-1.35,0-1.88-.46-1.88-1.59V50.86h-.93V49.79h.93V48.32Z"/><path class="cls-2" d="M73.12,54a2.43,2.43,0,0,1-2.61,1.73c-1.73,0-2.77-1.14-2.77-3s1.06-3.08,2.76-3.08,2.68,1.11,2.68,3V53h-4.1v.07a1.46,1.46,0,0,0,1.47,1.59A1.31,1.31,0,0,0,71.86,54Zm-4-1.89h2.77A1.33,1.33,0,0,0,70.5,50.7,1.4,1.4,0,0,0,69.08,52.13Z"/><path class="cls-2" d="M74.52,49.76H75.8v1h.09a1.65,1.65,0,0,1,1.63-1.07,1.62,1.62,0,0,1,1.62,1.07h.09A1.9,1.9,0,0,1,81,49.64a1.77,1.77,0,0,1,1.89,2v4H81.58v-3.7c0-.76-.36-1.13-1.07-1.13A1.12,1.12,0,0,0,79.36,52v3.66H78.06v-3.8a1,1,0,0,0-1.06-1,1.18,1.18,0,0,0-1.15,1.26v3.57H74.52Z"/><path class="cls-2" d="M84.62,50.87a.86.86,0,1,1,.86.84A.82.82,0,0,1,84.62,50.87Zm0,4a.86.86,0,1,1,.86.85A.82.82,0,0,1,84.62,54.9Z"/></g><g id="Borders"><path class="cls-3" d="M99,1V79H1V1H99m1-1H0V80H100V0Z"/></g></svg>