<svg xmlns="http://www.w3.org/2000/svg" viewBox="0 0 100 80"><defs><style>.cls-1{fill:#fff;}.cls-2{fill:#ccc;}.cls-3{fill:#83d654;}.cls-4{fill:#e1e1e1;}.cls-5{fill:#8c8c8c;}</style></defs><title>VisualIndex_v3</title><g id="All"><rect class="cls-1" x="0.5" y="0.5" width="99" height="79"/><path class="cls-2" d="M99,1V79H1V1H99m1-1H0V80H100V0Z"/><rect class="cls-3" x="7.5" y="30.5" width="27" height="15" rx="1.5" ry="1.5"/><path class="cls-2" d="M33,31a1,1,0,0,1,1,1V44a1,1,0,0,1-1,1H9a1,1,0,0,1-1-1V32a1,1,0,0,1,1-1H33m0-1H9a2,2,0,0,0-2,2V44a2,2,0,0,0,2,2H33a2,2,0,0,0,2-2V32a2,2,0,0,0-2-2Z"/><rect class="cls-3" x="36.5" y="30.5" width="27" height="15" rx="1.5" ry="1.5"/><path class="cls-2" d="M62,31a1,1,0,0,1,1,1V44a1,1,0,0,1-1,1H38a1,1,0,0,1-1-1V32a1,1,0,0,1,1-1H62m0-1H38a2,2,0,0,0-2,2V44a2,2,0,0,0,2,2H62a2,2,0,0,0,2-2V32a2,2,0,0,0-2-2Z"/><rect class="cls-4" x="65.5" y="30.5" width="27" height="15" rx="1.5" ry="1.5"/><path class="cls-2" d="M91,31a1,1,0,0,1,1,1V44a1,1,0,0,1-1,1H67a1,1,0,0,1-1-1V32a1,1,0,0,1,1-1H91m0-1H67a2,2,0,0,0-2,2V44a2,2,0,0,0,2,2H91a2,2,0,0,0,2-2V32a2,2,0,0,0-2-2Z"/></g><g id="Borders"><path class="cls-5" d="M99,1V79H1V1H99m1-1H0V80H100V0Z"/></g></svg>