<svg xmlns="http://www.w3.org/2000/svg" xmlns:xlink="http://www.w3.org/1999/xlink" viewBox="0 0 768 346"><defs><style>.cls-1,.cls-100,.cls-101,.cls-102,.cls-103,.cls-104,.cls-105,.cls-106,.cls-107,.cls-108,.cls-109,.cls-11,.cls-110,.cls-111,.cls-112,.cls-113,.cls-114,.cls-118,.cls-12,.cls-120,.cls-124,.cls-125,.cls-126,.cls-128,.cls-14,.cls-15,.cls-16,.cls-17,.cls-18,.cls-19,.cls-20,.cls-21,.cls-22,.cls-23,.cls-24,.cls-25,.cls-26,.cls-27,.cls-28,.cls-29,.cls-30,.cls-31,.cls-32,.cls-33,.cls-34,.cls-35,.cls-36,.cls-37,.cls-38,.cls-39,.cls-40,.cls-41,.cls-42,.cls-43,.cls-44,.cls-45,.cls-46,.cls-47,.cls-48,.cls-49,.cls-5,.cls-50,.cls-51,.cls-52,.cls-53,.cls-54,.cls-55,.cls-56,.cls-57,.cls-58,.cls-59,.cls-60,.cls-61,.cls-62,.cls-63,.cls-64,.cls-65,.cls-66,.cls-67,.cls-68,.cls-69,.cls-70,.cls-71,.cls-72,.cls-73,.cls-74,.cls-75,.cls-76,.cls-77,.cls-78,.cls-79,.cls-8,.cls-80,.cls-81,.cls-82,.cls-83,.cls-84,.cls-85,.cls-86,.cls-87,.cls-88,.cls-89,.cls-9,.cls-90,.cls-91,.cls-92,.cls-93,.cls-94,.cls-95,.cls-96,.cls-97,.cls-98,.cls-99{fill:none;}.cls-2{fill:#0b3051;stroke:#e1e1e1;}.cls-10,.cls-100,.cls-101,.cls-102,.cls-103,.cls-104,.cls-105,.cls-106,.cls-107,.cls-108,.cls-109,.cls-110,.cls-111,.cls-112,.cls-113,.cls-114,.cls-116,.cls-118,.cls-119,.cls-120,.cls-123,.cls-124,.cls-125,.cls-126,.cls-128,.cls-14,.cls-15,.cls-16,.cls-17,.cls-18,.cls-19,.cls-2,.cls-20,.cls-21,.cls-22,.cls-23,.cls-24,.cls-25,.cls-26,.cls-27,.cls-28,.cls-29,.cls-3,.cls-30,.cls-31,.cls-32,.cls-33,.cls-34,.cls-35,.cls-36,.cls-37,.cls-38,.cls-39,.cls-4,.cls-40,.cls-41,.cls-42,.cls-43,.cls-44,.cls-45,.cls-46,.cls-47,.cls-48,.cls-49,.cls-5,.cls-50,.cls-51,.cls-52,.cls-53,.cls-54,.cls-55,.cls-56,.cls-57,.cls-58,.cls-59,.cls-60,.cls-61,.cls-62,.cls-63,.cls-64,.cls-65,.cls-66,.cls-67,.cls-68,.cls-69,.cls-70,.cls-71,.cls-72,.cls-73,.cls-74,.cls-75,.cls-76,.cls-77,.cls-78,.cls-79,.cls-8,.cls-80,.cls-81,.cls-82,.cls-83,.cls-84,.cls-85,.cls-86,.cls-87,.cls-88,.cls-89,.cls-9,.cls-90,.cls-91,.cls-92,.cls-93,.cls-94,.cls-95,.cls-96,.cls-97,.cls-98,.cls-99{stroke-miterlimit:10;}.cls-11,.cls-2{stroke-width:3px;}.cls-3{fill:#89aed1;}.cls-3,.cls-4{stroke:#0b3051;}.cls-4{fill:url(#linear-gradient);}.cls-5{stroke:#ccc;}.cls-6{fill:#e1e1e1;}.cls-7{fill:#b3b3b3;}.cls-10,.cls-100,.cls-101,.cls-102,.cls-103,.cls-104,.cls-105,.cls-106,.cls-107,.cls-108,.cls-109,.cls-11,.cls-110,.cls-111,.cls-112,.cls-113,.cls-114,.cls-116,.cls-118,.cls-119,.cls-12,.cls-120,.cls-123,.cls-124,.cls-125,.cls-126,.cls-128,.cls-14,.cls-15,.cls-16,.cls-17,.cls-18,.cls-19,.cls-20,.cls-21,.cls-22,.cls-23,.cls-24,.cls-25,.cls-26,.cls-27,.cls-28,.cls-29,.cls-30,.cls-31,.cls-32,.cls-33,.cls-34,.cls-35,.cls-36,.cls-37,.cls-38,.cls-39,.cls-40,.cls-41,.cls-42,.cls-43,.cls-44,.cls-45,.cls-46,.cls-47,.cls-48,.cls-49,.cls-50,.cls-51,.cls-52,.cls-53,.cls-54,.cls-55,.cls-56,.cls-57,.cls-58,.cls-59,.cls-60,.cls-61,.cls-62,.cls-63,.cls-64,.cls-65,.cls-66,.cls-67,.cls-68,.cls-69,.cls-70,.cls-71,.cls-72,.cls-73,.cls-74,.cls-75,.cls-76,.cls-77,.cls-78,.cls-79,.cls-8,.cls-80,.cls-81,.cls-82,.cls-83,.cls-84,.cls-85,.cls-86,.cls-87,.cls-88,.cls-89,.cls-9,.cls-90,.cls-91,.cls-92,.cls-93,.cls-94,.cls-95,.cls-96,.cls-97,.cls-98,.cls-99{stroke:#fff;}.cls-9{stroke-dasharray:3.94 1.97;}.cls-10{fill:#b1cae1;}.cls-11,.cls-120{stroke-linecap:round;}.cls-13{clip-path:url(#clip-path);}.cls-14{opacity:0.99;}.cls-15{opacity:0.98;}.cls-16{opacity:0.97;}.cls-17{opacity:0.96;}.cls-18{opacity:0.95;}.cls-19{opacity:0.94;}.cls-20{opacity:0.93;}.cls-21{opacity:0.92;}.cls-22{opacity:0.91;}.cls-23{opacity:0.9;}.cls-24{opacity:0.89;}.cls-25{opacity:0.88;}.cls-26{opacity:0.87;}.cls-27{opacity:0.86;}.cls-28{opacity:0.85;}.cls-29{opacity:0.84;}.cls-30{opacity:0.83;}.cls-31{opacity:0.82;}.cls-32{opacity:0.81;}.cls-33{opacity:0.8;}.cls-34{opacity:0.79;}.cls-35{opacity:0.78;}.cls-36{opacity:0.77;}.cls-37{opacity:0.76;}.cls-38{opacity:0.75;}.cls-39{opacity:0.74;}.cls-40{opacity:0.73;}.cls-41{opacity:0.72;}.cls-42{opacity:0.71;}.cls-43{opacity:0.7;}.cls-44{opacity:0.69;}.cls-45{opacity:0.68;}.cls-46{opacity:0.67;}.cls-47{opacity:0.66;}.cls-48{opacity:0.65;}.cls-49{opacity:0.64;}.cls-50{opacity:0.63;}.cls-51{opacity:0.62;}.cls-52{opacity:0.61;}.cls-53{opacity:0.6;}.cls-54{opacity:0.59;}.cls-55{opacity:0.58;}.cls-56{opacity:0.57;}.cls-57{opacity:0.56;}.cls-58{opacity:0.55;}.cls-59{opacity:0.54;}.cls-60{opacity:0.53;}.cls-61{opacity:0.52;}.cls-62{opacity:0.51;}.cls-63{opacity:0.5;}.cls-64{opacity:0.5;}.cls-65{opacity:0.49;}.cls-66{opacity:0.48;}.cls-67{opacity:0.47;}.cls-68{opacity:0.46;}.cls-69{opacity:0.45;}.cls-70{opacity:0.44;}.cls-71{opacity:0.43;}.cls-72{opacity:0.42;}.cls-73{opacity:0.41;}.cls-74{opacity:0.4;}.cls-75{opacity:0.39;}.cls-76{opacity:0.38;}.cls-77{opacity:0.37;}.cls-78{opacity:0.36;}.cls-79{opacity:0.35;}.cls-80{opacity:0.34;}.cls-81{opacity:0.33;}.cls-82{opacity:0.32;}.cls-83{opacity:0.31;}.cls-84{opacity:0.3;}.cls-85{opacity:0.29;}.cls-86{opacity:0.28;}.cls-87{opacity:0.27;}.cls-88{opacity:0.26;}.cls-89{opacity:0.25;}.cls-90{opacity:0.24;}.cls-91{opacity:0.23;}.cls-92{opacity:0.22;}.cls-93{opacity:0.21;}.cls-94{opacity:0.2;}.cls-95{opacity:0.19;}.cls-96{opacity:0.18;}.cls-97{opacity:0.17;}.cls-98{opacity:0.16;}.cls-99{opacity:0.15;}.cls-100{opacity:0.14;}.cls-101{opacity:0.13;}.cls-102{opacity:0.12;}.cls-103{opacity:0.11;}.cls-104{opacity:0.1;}.cls-105{opacity:0.09;}.cls-106{opacity:0.08;}.cls-107{opacity:0.07;}.cls-108{opacity:0.06;}.cls-109{opacity:0.05;}.cls-110{opacity:0.04;}.cls-111{opacity:0.03;}.cls-112{opacity:0.02;}.cls-113{opacity:0.01;}.cls-114{opacity:0;}.cls-115,.cls-119,.cls-121{fill:#67b2ec;}.cls-116{fill:#5aaef9;}.cls-117{fill:#fff;}.cls-118{stroke-dasharray:4.05 2.03;}.cls-121{opacity:0.7;}.cls-122{clip-path:url(#clip-path-2);}.cls-123{fill:#fafafa;}.cls-124{stroke-dasharray:4.01 2.01;}.cls-125{stroke-dasharray:4.02 2.01;}.cls-126{stroke-dasharray:4 2;}.cls-127{fill:#b4d9f5;}.cls-128{stroke-dasharray:4 1;}</style><linearGradient id="linear-gradient" x1="385" y1="254.07" x2="385" y2="49.84" gradientUnits="userSpaceOnUse"><stop offset="0" stop-color="#0982fe"/><stop offset="1" stop-color="#3ca1d2"/></linearGradient><clipPath id="clip-path"><rect class="cls-1" x="465.77" y="117.88" width="115.94" height="46.99"/></clipPath><clipPath id="clip-path-2"><path class="cls-1" d="M427.76,110H388v3.81a2.07,2.07,0,0,1-2.06,2.06H246.06a2.07,2.07,0,0,1-2.06-2.06V110H198.24a4.75,4.75,0,0,0-4.74,4.74V228.26a4.75,4.75,0,0,0,4.74,4.74H427.76a4.75,4.75,0,0,0,4.74-4.74V114.74A4.75,4.75,0,0,0,427.76,110Z"/></clipPath></defs><title>macOSHIG_Hero_Final</title><g id="MBP-clamShell"><path class="cls-2" d="M157,3H613a16,16,0,0,1,16,15.91V325.09A16,16,0,0,1,613,341H157a16,16,0,0,1-16-15.91l0-3.13,0-303.05A16,16,0,0,1,157,3"/><polygon class="cls-3" points="159.4 26.41 159.4 309.41 610.42 309.41 610.43 26.41 159.4 26.41"/><polygon class="cls-4" points="159 26 159 310 610.99 310 611 26 159 26"/></g><g id="MBP-base"><line class="cls-5" y1="345.5" x2="768" y2="345.5"/><path class="cls-6" d="M650.88,346c13.64,0,26.12-6.5,26.12-6.5V328H91v11.5s12.47,6.5,26.09,6.5Z"/><path class="cls-7" d="M433,328a11.35,11.35,0,0,1-.18,2c-.82,4.56-4.38,8-8.64,8H344.82c-4.26,0-7.82-3.43-8.64-8a11.35,11.35,0,0,1-.18-2"/></g><g id="spec-2"><line class="cls-8" x1="589" y1="223.5" x2="587" y2="223.5"/><line class="cls-9" x1="585.03" y1="223.5" x2="461.98" y2="223.5"/><line class="cls-8" x1="461" y1="223.5" x2="459" y2="223.5"/><circle class="cls-8" cx="476.71" cy="92.05" r="3.57"/><circle class="cls-8" cx="487.76" cy="92.05" r="3.57"/><circle class="cls-8" cx="498.88" cy="92.05" r="3.57"/><line class="cls-8" x1="466.22" y1="117.17" x2="582.19" y2="117.17"/><rect class="cls-10" x="473.1" y="201.38" width="16.87" height="16.87" rx="3.16" ry="3.16"/><rect class="cls-8" x="474.15" y="100.16" width="12.65" height="12.65" rx="2.3" ry="2.3"/><rect class="cls-8" x="488.92" y="100.16" width="12.65" height="12.65" rx="2.3" ry="2.3"/><rect class="cls-8" x="503.68" y="100.16" width="12.65" height="12.65" rx="2.3" ry="2.3"/><rect class="cls-8" x="518.44" y="100.16" width="12.65" height="12.65" rx="2.3" ry="2.3"/><line class="cls-11" x1="474.76" y1="179.72" x2="576.51" y2="179.72"/><path class="cls-10" d="M519.31,181.57l-2.89,2.89a.81.81,0,0,1-1.15,0l-2.89-2.89a3.46,3.46,0,0,1-1-2.45V176.4a1.43,1.43,0,0,1,1.43-1.43h6.08a1.43,1.43,0,0,1,1.43,1.43v2.73A3.46,3.46,0,0,1,519.31,181.57Z"/><line class="cls-12" x1="478.12" y1="184.75" x2="478.12" y2="186.99"/><line class="cls-12" x1="501.6" y1="185.03" x2="501.6" y2="187.27"/><line class="cls-12" x1="525.64" y1="185.03" x2="525.64" y2="187.27"/><line class="cls-12" x1="549.12" y1="185.03" x2="549.12" y2="187.27"/><line class="cls-12" x1="572.6" y1="185.03" x2="572.6" y2="187.27"/><g class="cls-13"><line class="cls-8" x1="98.38" y1="275.05" x2="435.49" y2="-62.06"/><line class="cls-14" x1="101.89" y1="275.29" x2="439" y2="-61.82"/><line class="cls-15" x1="105.4" y1="275.52" x2="442.51" y2="-61.59"/><line class="cls-16" x1="108.9" y1="275.75" x2="446.01" y2="-61.36"/><line class="cls-17" x1="112.41" y1="275.99" x2="449.52" y2="-61.12"/><line class="cls-18" x1="115.92" y1="276.22" x2="453.03" y2="-60.89"/><line class="cls-19" x1="119.43" y1="276.45" x2="456.54" y2="-60.65"/><line class="cls-20" x1="122.94" y1="276.69" x2="460.05" y2="-60.42"/><line class="cls-21" x1="126.44" y1="276.92" x2="463.55" y2="-60.19"/><line class="cls-22" x1="129.95" y1="277.16" x2="467.06" y2="-59.95"/><line class="cls-23" x1="133.46" y1="277.39" x2="470.57" y2="-59.72"/><line class="cls-24" x1="136.97" y1="277.62" x2="474.08" y2="-59.49"/><line class="cls-25" x1="140.47" y1="277.86" x2="477.58" y2="-59.25"/><line class="cls-26" x1="143.98" y1="278.09" x2="481.09" y2="-59.02"/><line class="cls-27" x1="147.49" y1="278.32" x2="484.6" y2="-58.79"/><line class="cls-28" x1="151" y1="278.56" x2="488.11" y2="-58.55"/><line class="cls-29" x1="154.51" y1="278.79" x2="491.62" y2="-58.32"/><line class="cls-30" x1="158.01" y1="279.03" x2="495.12" y2="-58.08"/><line class="cls-31" x1="161.52" y1="279.26" x2="498.63" y2="-57.85"/><line class="cls-32" x1="165.03" y1="279.49" x2="502.14" y2="-57.62"/><line class="cls-33" x1="168.54" y1="279.73" x2="505.65" y2="-57.38"/><line class="cls-34" x1="172.04" y1="279.96" x2="509.15" y2="-57.15"/><line class="cls-35" x1="175.55" y1="280.19" x2="512.66" y2="-56.92"/><line class="cls-36" x1="179.06" y1="280.43" x2="516.17" y2="-56.68"/><line class="cls-37" x1="182.57" y1="280.66" x2="519.68" y2="-56.45"/><line class="cls-38" x1="186.08" y1="280.89" x2="523.18" y2="-56.22"/><line class="cls-39" x1="189.58" y1="281.13" x2="526.69" y2="-55.98"/><line class="cls-40" x1="193.09" y1="281.36" x2="530.2" y2="-55.75"/><line class="cls-41" x1="196.6" y1="281.6" x2="533.71" y2="-55.51"/><line class="cls-42" x1="200.11" y1="281.83" x2="537.22" y2="-55.28"/><line class="cls-43" x1="203.61" y1="282.06" x2="540.72" y2="-55.05"/><line class="cls-44" x1="207.12" y1="282.3" x2="544.23" y2="-54.81"/><line class="cls-45" x1="210.63" y1="282.53" x2="547.74" y2="-54.58"/><line class="cls-46" x1="214.14" y1="282.76" x2="551.25" y2="-54.35"/><line class="cls-47" x1="217.64" y1="283" x2="554.75" y2="-54.11"/><line class="cls-48" x1="221.15" y1="283.23" x2="558.26" y2="-53.88"/><line class="cls-49" x1="224.66" y1="283.47" x2="561.77" y2="-53.64"/><line class="cls-50" x1="228.17" y1="283.7" x2="565.28" y2="-53.41"/><line class="cls-51" x1="231.68" y1="283.93" x2="568.79" y2="-53.18"/><line class="cls-52" x1="235.18" y1="284.17" x2="572.29" y2="-52.94"/><line class="cls-53" x1="238.69" y1="284.4" x2="575.8" y2="-52.71"/><line class="cls-54" x1="242.2" y1="284.63" x2="579.31" y2="-52.48"/><line class="cls-55" x1="245.71" y1="284.87" x2="582.82" y2="-52.24"/><line class="cls-56" x1="249.21" y1="285.1" x2="586.32" y2="-52.01"/><line class="cls-57" x1="252.72" y1="285.33" x2="589.83" y2="-51.78"/><line class="cls-58" x1="256.23" y1="285.57" x2="593.34" y2="-51.54"/><line class="cls-59" x1="259.74" y1="285.8" x2="596.85" y2="-51.31"/><line class="cls-60" x1="263.25" y1="286.04" x2="600.36" y2="-51.07"/><line class="cls-61" x1="266.75" y1="286.27" x2="603.86" y2="-50.84"/><line class="cls-62" x1="270.26" y1="286.5" x2="607.37" y2="-50.61"/><line class="cls-63" x1="273.77" y1="286.74" x2="610.88" y2="-50.37"/><line class="cls-64" x1="277.28" y1="286.97" x2="614.39" y2="-50.14"/><line class="cls-65" x1="280.78" y1="287.2" x2="617.89" y2="-49.91"/><line class="cls-66" x1="284.29" y1="287.44" x2="621.4" y2="-49.67"/><line class="cls-67" x1="287.8" y1="287.67" x2="624.91" y2="-49.44"/><line class="cls-68" x1="291.31" y1="287.9" x2="628.42" y2="-49.2"/><line class="cls-69" x1="294.82" y1="288.14" x2="631.93" y2="-48.97"/><line class="cls-70" x1="298.32" y1="288.37" x2="635.43" y2="-48.74"/><line class="cls-71" x1="301.83" y1="288.61" x2="638.94" y2="-48.5"/><line class="cls-72" x1="305.34" y1="288.84" x2="642.45" y2="-48.27"/><line class="cls-73" x1="308.85" y1="289.07" x2="645.96" y2="-48.04"/><line class="cls-74" x1="312.35" y1="289.31" x2="649.46" y2="-47.8"/><line class="cls-75" x1="315.86" y1="289.54" x2="652.97" y2="-47.57"/><line class="cls-76" x1="319.37" y1="289.77" x2="656.48" y2="-47.34"/><line class="cls-77" x1="322.88" y1="290.01" x2="659.99" y2="-47.1"/><line class="cls-78" x1="326.39" y1="290.24" x2="663.49" y2="-46.87"/><line class="cls-79" x1="329.89" y1="290.48" x2="667" y2="-46.63"/><line class="cls-80" x1="333.4" y1="290.71" x2="670.51" y2="-46.4"/><line class="cls-81" x1="336.91" y1="290.94" x2="674.02" y2="-46.17"/><line class="cls-82" x1="340.42" y1="291.18" x2="677.53" y2="-45.93"/><line class="cls-83" x1="343.92" y1="291.41" x2="681.03" y2="-45.7"/><line class="cls-84" x1="347.43" y1="291.64" x2="684.54" y2="-45.47"/><line class="cls-85" x1="350.94" y1="291.88" x2="688.05" y2="-45.23"/><line class="cls-86" x1="354.45" y1="292.11" x2="691.56" y2="-45"/><line class="cls-87" x1="357.95" y1="292.34" x2="695.06" y2="-44.77"/><line class="cls-88" x1="361.46" y1="292.58" x2="698.57" y2="-44.53"/><line class="cls-89" x1="364.97" y1="292.81" x2="702.08" y2="-44.3"/><line class="cls-90" x1="368.48" y1="293.05" x2="705.59" y2="-44.06"/><line class="cls-91" x1="371.99" y1="293.28" x2="709.1" y2="-43.83"/><line class="cls-92" x1="375.49" y1="293.51" x2="712.6" y2="-43.6"/><line class="cls-93" x1="379" y1="293.75" x2="716.11" y2="-43.36"/><line class="cls-94" x1="382.51" y1="293.98" x2="719.62" y2="-43.13"/><line class="cls-95" x1="386.02" y1="294.21" x2="723.13" y2="-42.9"/><line class="cls-96" x1="389.52" y1="294.45" x2="726.63" y2="-42.66"/><line class="cls-97" x1="393.03" y1="294.68" x2="730.14" y2="-42.43"/><line class="cls-98" x1="396.54" y1="294.91" x2="733.65" y2="-42.19"/><line class="cls-99" x1="400.05" y1="295.15" x2="737.16" y2="-41.96"/><line class="cls-100" x1="403.56" y1="295.38" x2="740.67" y2="-41.73"/><line class="cls-101" x1="407.06" y1="295.62" x2="744.17" y2="-41.49"/><line class="cls-102" x1="410.57" y1="295.85" x2="747.68" y2="-41.26"/><line class="cls-103" x1="414.08" y1="296.08" x2="751.19" y2="-41.03"/><line class="cls-104" x1="417.59" y1="296.32" x2="754.7" y2="-40.79"/><line class="cls-105" x1="421.09" y1="296.55" x2="758.2" y2="-40.56"/><line class="cls-106" x1="424.6" y1="296.78" x2="761.71" y2="-40.33"/><line class="cls-107" x1="428.11" y1="297.02" x2="765.22" y2="-40.09"/><line class="cls-108" x1="431.62" y1="297.25" x2="768.73" y2="-39.86"/><line class="cls-109" x1="435.13" y1="297.49" x2="772.24" y2="-39.62"/><line class="cls-110" x1="438.63" y1="297.72" x2="775.74" y2="-39.39"/><line class="cls-111" x1="442.14" y1="297.95" x2="779.25" y2="-39.16"/><line class="cls-112" x1="445.65" y1="298.19" x2="782.76" y2="-38.92"/><line class="cls-113" x1="449.16" y1="298.42" x2="786.27" y2="-38.69"/><line class="cls-114" x1="452.66" y1="298.65" x2="789.77" y2="-38.46"/></g><line class="cls-8" x1="466.22" y1="164.35" x2="582.19" y2="164.35"/><rect class="cls-8" x="502.1" y="201.78" width="6.33" height="6.33" rx="1.15" ry="1.15"/><rect class="cls-8" x="511.89" y="201.78" width="6.33" height="6.33" rx="1.15" ry="1.15"/><rect class="cls-8" x="521.68" y="201.78" width="6.33" height="6.33" rx="1.15" ry="1.15"/><rect class="cls-8" x="531.47" y="201.78" width="6.33" height="6.33" rx="1.15" ry="1.15"/><rect class="cls-8" x="541.26" y="201.78" width="6.33" height="6.33" rx="1.15" ry="1.15"/><rect class="cls-8" x="551.05" y="201.78" width="6.33" height="6.33" rx="1.15" ry="1.15"/><rect class="cls-8" x="560.85" y="201.78" width="6.33" height="6.33" rx="1.15" ry="1.15"/><rect class="cls-8" x="570.64" y="201.78" width="6.33" height="6.33" rx="1.15" ry="1.15"/><rect class="cls-8" x="502.1" y="211.27" width="6.33" height="6.33" rx="1.15" ry="1.15"/><rect class="cls-8" x="511.89" y="211.27" width="6.33" height="6.33" rx="1.15" ry="1.15"/><rect class="cls-8" x="521.68" y="211.27" width="6.33" height="6.33" rx="1.15" ry="1.15"/><rect class="cls-8" x="531.47" y="211.27" width="6.33" height="6.33" rx="1.15" ry="1.15"/><rect class="cls-8" x="541.26" y="211.27" width="6.33" height="6.33" rx="1.15" ry="1.15"/><rect class="cls-8" x="551.05" y="211.27" width="6.33" height="6.33" rx="1.15" ry="1.15"/><rect class="cls-8" x="560.85" y="211.27" width="6.33" height="6.33" rx="1.15" ry="1.15"/><rect class="cls-8" x="570.64" y="211.27" width="6.33" height="6.33" rx="1.15" ry="1.15"/><rect class="cls-115" x="466.13" y="83.54" width="115" height="33"/><rect class="cls-115" x="466" y="163" width="115" height="60"/><circle class="cls-116" cx="476.5" cy="92" r="3.5"/><circle class="cls-116" cx="487.5" cy="92" r="3.5"/><circle class="cls-116" cx="498.5" cy="92" r="3.5"/><line class="cls-8" x1="466.22" y1="117.17" x2="582.19" y2="117.17"/><rect class="cls-116" x="473" y="199" width="17" height="17" rx="3.19" ry="3.19"/><rect class="cls-8" x="473" y="100" width="12" height="12" rx="1.9" ry="1.9"/><rect class="cls-8" x="488" y="100" width="12" height="12" rx="1.9" ry="1.9"/><rect class="cls-8" x="503" y="100" width="12" height="12" rx="1.9" ry="1.9"/><rect class="cls-8" x="518" y="100" width="12" height="12" rx="1.9" ry="1.9"/><line class="cls-11" x1="473" y1="179" x2="575" y2="179"/><path class="cls-116" d="M518.93,180.6,516,183.49a.81.81,0,0,1-1.15,0L512,180.6a3.46,3.46,0,0,1-1-2.45v-2.73a1.43,1.43,0,0,1,1.43-1.43h6.08a1.43,1.43,0,0,1,1.43,1.43v2.73A3.46,3.46,0,0,1,518.93,180.6Z"/><line class="cls-12" x1="476" y1="185" x2="476" y2="188"/><line class="cls-12" x1="499.6" y1="185" x2="499.6" y2="188"/><line class="cls-12" x1="524" y1="185" x2="524" y2="188"/><line class="cls-12" x1="548" y1="185" x2="548" y2="188"/><line class="cls-12" x1="572" y1="185.05" x2="572" y2="188.05"/><line class="cls-8" x1="465" y1="163" x2="581" y2="163"/><rect class="cls-8" x="500.5" y="200" width="6.33" height="6.33" rx="1.15" ry="1.15"/><rect class="cls-8" x="510.29" y="200" width="6.33" height="6.33" rx="1.15" ry="1.15"/><rect class="cls-8" x="520.08" y="200" width="6.33" height="6.33" rx="1.15" ry="1.15"/><rect class="cls-8" x="529.87" y="200" width="6.33" height="6.33" rx="1.15" ry="1.15"/><rect class="cls-8" x="539.67" y="200" width="6.33" height="6.33" rx="1.15" ry="1.15"/><rect class="cls-8" x="549.46" y="200" width="6.33" height="6.33" rx="1.15" ry="1.15"/><rect class="cls-8" x="559.25" y="200" width="6.33" height="6.33" rx="1.15" ry="1.15"/><rect class="cls-8" x="569.04" y="200" width="6.33" height="6.33" rx="1.15" ry="1.15"/><rect class="cls-8" x="500.5" y="209.5" width="6.33" height="6.33" rx="1.15" ry="1.15"/><rect class="cls-8" x="510.29" y="209.5" width="6.33" height="6.33" rx="1.15" ry="1.15"/><rect class="cls-8" x="520.08" y="209.5" width="6.33" height="6.33" rx="1.15" ry="1.15"/><rect class="cls-8" x="529.87" y="209.5" width="6.33" height="6.33" rx="1.15" ry="1.15"/><rect class="cls-8" x="539.67" y="209.5" width="6.33" height="6.33" rx="1.15" ry="1.15"/><rect class="cls-8" x="549.46" y="209.5" width="6.33" height="6.33" rx="1.15" ry="1.15"/><rect class="cls-8" x="559.25" y="209.5" width="6.33" height="6.33" rx="1.15" ry="1.15"/><rect class="cls-8" x="569.04" y="209.5" width="6.33" height="6.33" rx="1.15" ry="1.15"/><line class="cls-8" x1="465.5" y1="227" x2="465.5" y2="241.23"/><line class="cls-8" x1="581.5" y1="241.23" x2="581.5" y2="227"/><line class="cls-8" x1="470.43" y1="237.44" x2="576.57" y2="237.44"/><polygon class="cls-117" points="471.42 238.89 466 237.44 471.42 235.98 471.42 238.89"/><polygon class="cls-117" points="575.58 238.89 581 237.44 575.58 235.98 575.58 238.89"/><line class="cls-8" x1="465.5" y1="229" x2="465.5" y2="227"/><line class="cls-118" x1="465.5" y1="224.97" x2="465.5" y2="80.01"/><line class="cls-8" x1="465.5" y1="79" x2="465.5" y2="77"/><line class="cls-8" x1="581.5" y1="229" x2="581.5" y2="227"/><line class="cls-118" x1="581.5" y1="224.97" x2="581.5" y2="80.01"/><line class="cls-8" x1="581.5" y1="79" x2="581.5" y2="77"/><line class="cls-8" x1="589" y1="83" x2="587" y2="83"/><line class="cls-9" x1="585.03" y1="83" x2="461.98" y2="83"/><line class="cls-8" x1="461" y1="83" x2="459" y2="83"/><rect class="cls-119" x="472.5" y="125" width="103" height="12" rx="1.25" ry="1.25"/><line class="cls-10" x1="564.5" y1="136.89" x2="564.5" y2="125"/><polyline class="cls-120" points="568 129.83 569.83 128 571.66 129.83"/><polyline class="cls-120" points="571.66 132.17 569.83 134 568 132.17"/><rect class="cls-119" x="472.5" y="143" width="103" height="12" rx="1.25" ry="1.25"/></g><g id="spec-1"><rect class="cls-115" x="181.55" y="66.5" width="262.5" height="23"/><line class="cls-8" x1="181" y1="90" x2="445" y2="90"/><rect class="cls-8" x="345" y="72" width="95" height="13" rx="2" ry="2"/><rect class="cls-8" x="266.22" y="72" width="20" height="13" rx="2" ry="2"/><rect class="cls-8" x="228" y="72" width="16" height="13" rx="2" ry="2"/><rect class="cls-8" x="244" y="72" width="16" height="13" rx="2" ry="2"/><circle class="cls-116" cx="204.85" cy="78.58" r="3.5"/><circle class="cls-116" cx="192.76" cy="78.58" r="3.5"/><circle class="cls-116" cx="216.95" cy="78.58" r="3.5"/><rect class="cls-121" x="244" y="105" width="144" height="11" rx="2.01" ry="2.01"/><rect class="cls-8" x="244" y="105" width="144" height="11" rx="2.01" ry="2.01"/><g class="cls-122"><line class="cls-8" x1="-15.96" y1="267.89" x2="322.44" y2="-68.62"/><line class="cls-14" x1="-12.15" y1="268.12" x2="326.25" y2="-68.39"/><line class="cls-15" x1="-8.33" y1="268.36" x2="330.07" y2="-68.15"/><line class="cls-16" x1="-4.52" y1="268.59" x2="333.88" y2="-67.92"/><line class="cls-17" x1="-0.7" y1="268.82" x2="337.7" y2="-67.69"/><line class="cls-18" x1="3.11" y1="269.06" x2="341.51" y2="-67.45"/><line class="cls-19" x1="6.93" y1="269.29" x2="345.33" y2="-67.22"/><line class="cls-20" x1="10.74" y1="269.52" x2="349.14" y2="-66.99"/><line class="cls-21" x1="14.55" y1="269.76" x2="352.96" y2="-66.75"/><line class="cls-22" x1="18.37" y1="269.99" x2="356.77" y2="-66.52"/><line class="cls-23" x1="22.18" y1="270.22" x2="360.58" y2="-66.29"/><line class="cls-24" x1="26" y1="270.46" x2="364.4" y2="-66.05"/><line class="cls-25" x1="29.81" y1="270.69" x2="368.21" y2="-65.82"/><line class="cls-26" x1="33.63" y1="270.92" x2="372.03" y2="-65.59"/><line class="cls-27" x1="37.44" y1="271.16" x2="375.84" y2="-65.35"/><line class="cls-28" x1="41.26" y1="271.39" x2="379.66" y2="-65.12"/><line class="cls-29" x1="45.07" y1="271.62" x2="383.47" y2="-64.89"/><line class="cls-30" x1="48.89" y1="271.86" x2="387.29" y2="-64.65"/><line class="cls-31" x1="52.7" y1="272.09" x2="391.1" y2="-64.42"/><line class="cls-32" x1="56.52" y1="272.32" x2="394.92" y2="-64.19"/><line class="cls-33" x1="60.33" y1="272.56" x2="398.73" y2="-63.95"/><line class="cls-34" x1="64.14" y1="272.79" x2="402.55" y2="-63.72"/><line class="cls-35" x1="67.96" y1="273.02" x2="406.36" y2="-63.49"/><line class="cls-36" x1="71.77" y1="273.26" x2="410.18" y2="-63.25"/><line class="cls-37" x1="75.59" y1="273.49" x2="413.99" y2="-63.02"/><line class="cls-38" x1="79.4" y1="273.72" x2="417.8" y2="-62.79"/><line class="cls-39" x1="83.22" y1="273.95" x2="421.62" y2="-62.55"/><line class="cls-40" x1="87.03" y1="274.19" x2="425.43" y2="-62.32"/><line class="cls-41" x1="90.85" y1="274.42" x2="429.25" y2="-62.09"/><line class="cls-42" x1="94.66" y1="274.65" x2="433.06" y2="-61.86"/><line class="cls-43" x1="98.48" y1="274.89" x2="436.88" y2="-61.62"/><line class="cls-44" x1="102.29" y1="275.12" x2="440.69" y2="-61.39"/><line class="cls-45" x1="106.11" y1="275.35" x2="444.51" y2="-61.16"/><line class="cls-46" x1="109.92" y1="275.59" x2="448.32" y2="-60.92"/><line class="cls-47" x1="113.74" y1="275.82" x2="452.14" y2="-60.69"/><line class="cls-48" x1="117.55" y1="276.05" x2="455.95" y2="-60.46"/><line class="cls-49" x1="121.36" y1="276.29" x2="459.77" y2="-60.22"/><line class="cls-50" x1="125.18" y1="276.52" x2="463.58" y2="-59.99"/><line class="cls-51" x1="128.99" y1="276.75" x2="467.39" y2="-59.76"/><line class="cls-52" x1="132.81" y1="276.99" x2="471.21" y2="-59.52"/><line class="cls-53" x1="136.62" y1="277.22" x2="475.02" y2="-59.29"/><line class="cls-54" x1="140.44" y1="277.45" x2="478.84" y2="-59.06"/><line class="cls-55" x1="144.25" y1="277.69" x2="482.65" y2="-58.82"/><line class="cls-56" x1="148.07" y1="277.92" x2="486.47" y2="-58.59"/><line class="cls-57" x1="151.88" y1="278.15" x2="490.28" y2="-58.36"/><line class="cls-58" x1="155.7" y1="278.39" x2="494.1" y2="-58.12"/><line class="cls-59" x1="159.51" y1="278.62" x2="497.91" y2="-57.89"/><line class="cls-60" x1="163.33" y1="278.85" x2="501.73" y2="-57.66"/><line class="cls-61" x1="167.14" y1="279.09" x2="505.54" y2="-57.42"/><line class="cls-62" x1="170.95" y1="279.32" x2="509.36" y2="-57.19"/><line class="cls-63" x1="174.77" y1="279.55" x2="513.17" y2="-56.96"/><line class="cls-64" x1="178.58" y1="279.79" x2="516.98" y2="-56.72"/><line class="cls-65" x1="182.4" y1="280.02" x2="520.8" y2="-56.49"/><line class="cls-66" x1="186.21" y1="280.25" x2="524.61" y2="-56.26"/><line class="cls-67" x1="190.03" y1="280.49" x2="528.43" y2="-56.02"/><line class="cls-68" x1="193.84" y1="280.72" x2="532.24" y2="-55.79"/><line class="cls-69" x1="197.66" y1="280.95" x2="536.06" y2="-55.56"/><line class="cls-70" x1="201.47" y1="281.19" x2="539.87" y2="-55.32"/><line class="cls-71" x1="205.29" y1="281.42" x2="543.69" y2="-55.09"/><line class="cls-72" x1="209.1" y1="281.65" x2="547.5" y2="-54.86"/><line class="cls-73" x1="212.92" y1="281.89" x2="551.32" y2="-54.62"/><line class="cls-74" x1="216.73" y1="282.12" x2="555.13" y2="-54.39"/><line class="cls-75" x1="220.54" y1="282.35" x2="558.95" y2="-54.16"/><line class="cls-76" x1="224.36" y1="282.59" x2="562.76" y2="-53.92"/><line class="cls-77" x1="228.17" y1="282.82" x2="566.58" y2="-53.69"/><line class="cls-78" x1="231.99" y1="283.05" x2="570.39" y2="-53.46"/><line class="cls-79" x1="235.8" y1="283.29" x2="574.2" y2="-53.22"/><line class="cls-80" x1="239.62" y1="283.52" x2="578.02" y2="-52.99"/><line class="cls-81" x1="243.43" y1="283.75" x2="581.83" y2="-52.76"/><line class="cls-82" x1="247.25" y1="283.98" x2="585.65" y2="-52.52"/><line class="cls-83" x1="251.06" y1="284.22" x2="589.46" y2="-52.29"/><line class="cls-84" x1="254.88" y1="284.45" x2="593.28" y2="-52.06"/><line class="cls-85" x1="258.69" y1="284.68" x2="597.09" y2="-51.83"/><line class="cls-86" x1="262.51" y1="284.92" x2="600.91" y2="-51.59"/><line class="cls-87" x1="266.32" y1="285.15" x2="604.72" y2="-51.36"/><line class="cls-88" x1="270.13" y1="285.38" x2="608.54" y2="-51.13"/><line class="cls-89" x1="273.95" y1="285.62" x2="612.35" y2="-50.89"/><line class="cls-90" x1="277.76" y1="285.85" x2="616.17" y2="-50.66"/><line class="cls-91" x1="281.58" y1="286.08" x2="619.98" y2="-50.43"/><line class="cls-92" x1="285.39" y1="286.32" x2="623.79" y2="-50.19"/><line class="cls-93" x1="289.21" y1="286.55" x2="627.61" y2="-49.96"/><line class="cls-94" x1="293.02" y1="286.78" x2="631.42" y2="-49.73"/><line class="cls-95" x1="296.84" y1="287.02" x2="635.24" y2="-49.49"/><line class="cls-96" x1="300.65" y1="287.25" x2="639.05" y2="-49.26"/><line class="cls-97" x1="304.47" y1="287.48" x2="642.87" y2="-49.03"/><line class="cls-98" x1="308.28" y1="287.72" x2="646.68" y2="-48.79"/><line class="cls-99" x1="312.1" y1="287.95" x2="650.5" y2="-48.56"/><line class="cls-100" x1="315.91" y1="288.18" x2="654.31" y2="-48.33"/><line class="cls-101" x1="319.73" y1="288.42" x2="658.13" y2="-48.09"/><line class="cls-102" x1="323.54" y1="288.65" x2="661.94" y2="-47.86"/><line class="cls-103" x1="327.35" y1="288.88" x2="665.76" y2="-47.63"/><line class="cls-104" x1="331.17" y1="289.12" x2="669.57" y2="-47.39"/><line class="cls-105" x1="334.98" y1="289.35" x2="673.38" y2="-47.16"/><line class="cls-106" x1="338.8" y1="289.58" x2="677.2" y2="-46.93"/><line class="cls-107" x1="342.61" y1="289.82" x2="681.01" y2="-46.69"/><line class="cls-108" x1="346.43" y1="290.05" x2="684.83" y2="-46.46"/><line class="cls-109" x1="350.24" y1="290.28" x2="688.64" y2="-46.23"/><line class="cls-110" x1="354.06" y1="290.52" x2="692.46" y2="-45.99"/><line class="cls-111" x1="357.87" y1="290.75" x2="696.27" y2="-45.76"/><line class="cls-112" x1="361.69" y1="290.98" x2="700.09" y2="-45.53"/><line class="cls-113" x1="365.5" y1="291.22" x2="703.9" y2="-45.29"/><line class="cls-114" x1="369.32" y1="291.45" x2="707.72" y2="-45.06"/></g><path class="cls-8" d="M427.76,110H388v3.81a2.07,2.07,0,0,1-2.06,2.06H246.06a2.07,2.07,0,0,1-2.06-2.06V110H198.24a4.75,4.75,0,0,0-4.74,4.74V228.26a4.75,4.75,0,0,0,4.74,4.74H427.76a4.75,4.75,0,0,0,4.74-4.74V114.74A4.75,4.75,0,0,0,427.76,110Z"/><line class="cls-123" x1="292" y1="105" x2="292" y2="116"/><line class="cls-123" x1="338" y1="105" x2="338" y2="116"/><line class="cls-8" x1="181" y1="60.6" x2="181" y2="62.6"/><line class="cls-124" x1="181" y1="64.6" x2="181" y2="250.19"/><line class="cls-8" x1="181" y1="251.2" x2="181" y2="253.2"/><line class="cls-8" x1="444.63" y1="60.6" x2="444.63" y2="62.6"/><line class="cls-125" x1="444.63" y1="64.61" x2="444.63" y2="250.44"/><line class="cls-8" x1="444.63" y1="251.45" x2="444.63" y2="253.45"/><line class="cls-8" x1="451" y1="66" x2="449" y2="66"/><line class="cls-126" x1="447" y1="66" x2="178" y2="66"/><line class="cls-8" x1="177" y1="66" x2="175" y2="66"/><line class="cls-8" x1="451" y1="247.12" x2="449" y2="247.12"/><line class="cls-126" x1="447" y1="247.12" x2="178" y2="247.12"/><line class="cls-8" x1="177" y1="247.12" x2="175" y2="247.12"/><line class="cls-8" x1="287" y1="66.5" x2="287" y2="52.5"/><line class="cls-8" x1="345" y1="52.5" x2="345" y2="66.5"/><line class="cls-8" x1="292.43" y1="56" x2="339.57" y2="56"/><polygon class="cls-117" points="293.42 57.45 288 56 293.42 54.55 293.42 57.45"/><polygon class="cls-117" points="338.58 57.45 344 56 338.58 54.55 338.58 57.45"/><polygon class="cls-117" points="444 261.65 444 250 452.44 258.46 447.31 258.46 447.2 258.55 444 261.65"/><polygon class="cls-115" points="444.73 251.75 444.73 259.89 446.89 257.81 447 257.71 450.67 257.71 444.73 251.75"/></g><g id="menuBar"><rect class="cls-115" x="159.5" y="26.5" width="451" height="9"/><rect class="cls-127" x="203" y="29" width="7" height="4" rx="0.5" ry="0.5"/><rect class="cls-127" x="176.5" y="29" width="19" height="4" rx="0.5" ry="0.5"/><rect class="cls-127" x="165" y="29" width="4" height="4" rx="2" ry="2"/><rect class="cls-127" x="549.5" y="29" width="26" height="4" rx="0.5" ry="0.5"/><rect class="cls-127" x="581.5" y="29" width="4" height="4" rx="0.5" ry="0.5"/><rect class="cls-127" x="538.5" y="29" width="7" height="4" rx="0.5" ry="0.5"/><rect class="cls-127" x="597.5" y="29" width="7" height="4" rx="0.5" ry="0.5"/><rect class="cls-127" x="216" y="29" width="7" height="4" rx="0.5" ry="0.5"/><rect class="cls-127" x="230" y="29" width="8.5" height="4" rx="0.5" ry="0.5"/><rect class="cls-127" x="245" y="29" width="6.5" height="4" rx="0.5" ry="0.5"/><circle class="cls-127" cx="592" cy="31" r="2"/></g><g id="dock"><path class="cls-115" d="M264,309.5V276.15a2.13,2.13,0,0,1,2.11-2.15H510.89a2.13,2.13,0,0,1,2.11,2.15V309.5"/><rect class="cls-127" x="277" y="281.7" width="20" height="20"/><rect class="cls-127" x="306.03" y="281.7" width="20" height="20" rx="9.78" ry="9.78"/><rect class="cls-127" x="331.31" y="281.7" width="20" height="20" rx="9.78" ry="9.78"/><rect class="cls-127" x="357.26" y="281.7" width="20" height="20" rx="9.78" ry="9.78"/><circle class="cls-127" cx="287" cy="306" r="1"/><circle class="cls-127" cx="427" cy="306" r="1"/><rect class="cls-127" x="384.59" y="281.71" width="19.23" height="19.23" transform="translate(-40.72 65.25) rotate(-9)"/><line class="cls-8" x1="449" y1="304" x2="449" y2="280"/><path class="cls-127" d="M489.39,297.68c0,1.83,3,3.32,6.73,3.32s6.73-1.49,6.73-3.32l1.77-15.89h-17Z"/><ellipse class="cls-127" cx="496.12" cy="281.79" rx="8.5" ry="2.79"/><path class="cls-127" d="M480.59,284.57H466.91l-1.09-1.29a.8.8,0,0,0-.61-.28h-5.52a.8.8,0,0,0-.71.43l-.58,1.14v15.64a.79.79,0,0,0,.8.79h21.4a.79.79,0,0,0,.8-.79V285.36A.79.79,0,0,0,480.59,284.57Z"/><line class="cls-128" x1="415.71" y1="280.85" x2="419.49" y2="304.73"/><line class="cls-128" x1="431.51" y1="278.35" x2="435.3" y2="302.23"/><line class="cls-128" x1="435.71" y1="279.29" x2="412.5" y2="282.97"/><line class="cls-128" x1="438.84" y1="299.04" x2="415.63" y2="302.72"/><rect class="cls-127" x="417.92" y="281.55" width="15" height="19" transform="translate(-40.29 70.13) rotate(-9)"/></g></svg>