<svg xmlns="http://www.w3.org/2000/svg" viewBox="0 0 100 80"><defs><style>.cls-1{fill:#e1e1e1;}.cls-2{opacity:0.95;}.cls-3{fill:#666;}.cls-4{fill:#fff;}.cls-5{fill:none;stroke:#666;stroke-miterlimit:10;}.cls-6{fill:#8c8c8c;}</style></defs><title>VisualIndex_v3</title><g id="All"><rect class="cls-1" width="100" height="80"/><g class="cls-2"><rect class="cls-3" x="7" y="15" width="86" height="50" rx="3" ry="3"/></g><circle class="cls-4" cx="14" cy="22" r="4"/><line class="cls-5" x1="15.77" y1="20.23" x2="12.23" y2="23.77"/><line class="cls-5" x1="15.77" y1="23.77" x2="12.23" y2="20.23"/><path class="cls-4" d="M47.54,38.41V34.18h.53v4.23Z"/><path class="cls-4" d="M49.29,34h.5v4.41h-.5Z"/><path class="cls-4" d="M51,34h.5v4.41H51Z"/><path class="cls-4" d="M55.2,38.41h-.48v-.5h0a1,1,0,0,1-1,.55c-.71,0-1.08-.42-1.08-1.17v-2h.5v1.92c0,.57.21.83.71.83a.79.79,0,0,0,.86-.88V35.25h.5Z"/><path class="cls-4" d="M56.33,35.25h.48v.5h0a.89.89,0,0,1,.88-.55.91.91,0,0,1,.87.55h0a1.06,1.06,0,0,1,1-.55.92.92,0,0,1,1,1v2.18h-.5V36.35c0-.47-.22-.69-.67-.69a.71.71,0,0,0-.73.73v2h-.5V36.27a.6.6,0,0,0-.66-.62.76.76,0,0,0-.73.8v2h-.5Z"/><path class="cls-4" d="M66.29,38.41H63.67V34.18h2.62v.47H64.19V36h2v.47h-2v1.45h2.09Z"/><path class="cls-4" d="M67.36,35.25h.48v.47h0a.88.88,0,0,1,.88-.52H69v.5l-.32,0a.77.77,0,0,0-.83.77v2h-.5Z"/><path class="cls-4" d="M69.63,37.53c0-.57.42-.89,1.15-.93l.91-.06v-.29c0-.39-.24-.6-.71-.6s-.64.14-.71.39h-.51c.07-.51.56-.84,1.24-.84s1.2.4,1.2,1.05v2.16h-.48v-.47h0a1.09,1.09,0,0,1-1,.52A1,1,0,0,1,69.63,37.53Zm2.06-.29v-.29l-.85.06c-.48,0-.69.2-.69.52s.27.51.64.51A.83.83,0,0,0,71.7,37.23Z"/><path class="cls-4" d="M74,34.44v.82h.7v.42H74v1.79c0,.37.14.53.47.53h.23v.42l-.3,0c-.65,0-.91-.24-.91-.84V35.68H73v-.42h.51v-.82Z"/><path class="cls-1" d="M27.35,38H24.58V33.74h.88v3.46h1.88Z"/><path class="cls-1" d="M27.76,36.35A1.59,1.59,0,1,1,29.35,38,1.52,1.52,0,0,1,27.76,36.35Zm2.31,0c0-.62-.26-1-.71-1s-.71.37-.71,1,.26,1,.71,1S30.06,37,30.06,36.35Z"/><path class="cls-1" d="M31.63,34.73h.83v.52h.05a.83.83,0,0,1,.83-.57,1.19,1.19,0,0,1,.33,0v.78a1.56,1.56,0,0,0-.4-.05.71.71,0,0,0-.79.73V38h-.85Z"/><path class="cls-1" d="M37.05,37a1.36,1.36,0,0,1-1.48,1A1.48,1.48,0,0,1,34,36.37a1.51,1.51,0,0,1,1.55-1.7,1.44,1.44,0,0,1,1.51,1.63v.26H34.86v0a.72.72,0,0,0,.74.78.65.65,0,0,0,.66-.33Zm-2.19-1h1.38a.65.65,0,0,0-.67-.69A.69.69,0,0,0,34.87,36Z"/><path class="cls-1" d="M37.78,34.73h.83v.53h.05a.91.91,0,0,1,.89-.6.87.87,0,0,1,.89.6h.05a1,1,0,0,1,1-.6,1,1,0,0,1,1,1.08V38h-.85V36c0-.38-.18-.57-.54-.57a.55.55,0,0,0-.57.59v2h-.82v-2a.49.49,0,0,0-.53-.54.58.58,0,0,0-.57.62V38h-.85Z"/><path class="cls-1" d="M43.44,35.37a.52.52,0,1,1,.52.51A.49.49,0,0,1,43.44,35.37Zm0,2.16A.52.52,0,1,1,44,38,.49.49,0,0,1,43.44,37.53Z"/><path class="cls-1" d="M32.21,46.46h-1l-1.12-3.23H31l.67,2.41h.05l.66-2.41h.9Z"/><path class="cls-1" d="M36.66,45.54a1.36,1.36,0,0,1-1.48,1,1.48,1.48,0,0,1-1.56-1.67,1.51,1.51,0,0,1,1.55-1.7,1.44,1.44,0,0,1,1.51,1.63v.26H34.46v0a.72.72,0,0,0,.74.78.65.65,0,0,0,.66-.33Zm-2.19-1h1.38a.65.65,0,0,0-.67-.69A.69.69,0,0,0,34.47,44.51Z"/><path class="cls-1" d="M37.41,42h.85v4.46h-.85Z"/><path class="cls-1" d="M39.08,42.35a.51.51,0,1,1,.5.43A.44.44,0,0,1,39.08,42.35Zm.08.88H40v3.23h-.85Z"/><path class="cls-1" d="M42,42.47v.8h.67v.67H42v1.45c0,.28.13.41.42.41h.25v.65a2.38,2.38,0,0,1-.43,0c-.79,0-1.1-.25-1.1-.88V43.94h-.5v-.67h.5v-.8Z"/><path class="cls-1" d="M43.44,43.87a.52.52,0,1,1,.52.51A.49.49,0,0,1,43.44,43.87Zm0,2.16a.52.52,0,1,1,.52.51A.49.49,0,0,1,43.44,46Z"/><path class="cls-4" d="M51.21,46.91V43.68h0l-1.33,3.2H49.4l-1.33-3.2h0v3.23h-.49V42.68h.61l1.45,3.5h0l1.45-3.5h.61v4.23Z"/><path class="cls-4" d="M52.63,42.76a.35.35,0,1,1,.35.35A.35.35,0,0,1,52.63,42.76Zm.1,1h.5v3.16h-.5Z"/><path class="cls-4" d="M54.2,43.75h.48v.5h0a1,1,0,0,1,.95-.55,1,1,0,0,1,1.1,1.17v2h-.5V45c0-.57-.24-.84-.74-.84a.8.8,0,0,0-.83.89v1.87h-.5Z"/><path class="cls-4" d="M57.61,42.76a.35.35,0,1,1,.35.35A.35.35,0,0,1,57.61,42.76Zm.1,1h.5v3.16h-.5Z"/><path class="cls-4" d="M59.17,43.75h.48v.5h0a.89.89,0,0,1,.88-.55.91.91,0,0,1,.87.55h0a1.06,1.06,0,0,1,1-.55.92.92,0,0,1,1,1v2.18H63V44.85c0-.47-.22-.69-.67-.69a.71.71,0,0,0-.73.73v2h-.5V44.77a.6.6,0,0,0-.66-.62.76.76,0,0,0-.73.8v2h-.5Z"/><path class="cls-4" d="M68.77,46.91H66.15V42.68h2.62v.47H66.68v1.36h2V45h-2v1.45h2.09Z"/><path class="cls-4" d="M70.77,43.7a1.06,1.06,0,0,1,1.19.85h-.5a.64.64,0,0,0-.69-.42c-.37,0-.67.19-.67.47s.18.35.55.44l.49.12c.59.14.88.4.88.86s-.55,1-1.27,1-1.19-.34-1.24-.86H70a.7.7,0,0,0,.74.44c.42,0,.73-.2.73-.49s-.16-.36-.5-.45l-.54-.13c-.59-.14-.86-.4-.86-.86S70.09,43.7,70.77,43.7Z"/><path class="cls-4" d="M73.85,43.7a1.06,1.06,0,0,1,1.19.85h-.5a.64.64,0,0,0-.69-.42c-.37,0-.67.19-.67.47s.18.35.55.44l.49.12c.59.14.88.4.88.86s-.55,1-1.27,1-1.19-.34-1.24-.86h.52a.7.7,0,0,0,.74.44c.42,0,.73-.2.73-.49s-.16-.36-.5-.45l-.54-.13c-.59-.14-.86-.4-.86-.86S73.18,43.7,73.85,43.7Z"/><path class="cls-4" d="M78.48,46.09a1.26,1.26,0,0,1-1.33.87c-.88,0-1.42-.63-1.42-1.63a1.44,1.44,0,0,1,1.42-1.64c.85,0,1.37.61,1.37,1.59v.19H76.25v0c0,.62.38,1,.91,1a.82.82,0,0,0,.81-.43Zm-2.23-1H78a.85.85,0,0,0-.85-.93A.9.9,0,0,0,76.25,45.07Z"/><path class="cls-1" d="M25.21,55V50.74h1.85c.82,0,1.31.4,1.31,1.05a.91.91,0,0,1-.76.9v.05a1,1,0,0,1,1,1c0,.74-.56,1.21-1.46,1.21Zm.88-2.48h.67c.48,0,.74-.2.74-.54s-.24-.54-.67-.54H26.1Zm.79,1.8c.51,0,.79-.21.79-.61s-.28-.59-.81-.59H26.1v1.2Z"/><path class="cls-1" d="M29.13,53.35A1.59,1.59,0,1,1,30.72,55,1.52,1.52,0,0,1,29.13,53.35Zm2.31,0c0-.62-.26-1-.71-1s-.71.37-.71,1,.26,1,.71,1S31.44,54,31.44,53.35Z"/><path class="cls-1" d="M33,51.73h.83v.52h.05a.83.83,0,0,1,.83-.57,1.19,1.19,0,0,1,.33,0v.78a1.56,1.56,0,0,0-.4-.05.71.71,0,0,0-.79.73V55H33Z"/><path class="cls-1" d="M36.84,51v.8h.67v.67h-.67v1.45c0,.28.13.41.42.41h.25v.65a2.38,2.38,0,0,1-.43,0c-.79,0-1.1-.25-1.1-.88V52.44h-.5v-.67H36V51Z"/><path class="cls-1" d="M38.15,50.85a.51.51,0,1,1,.5.43A.44.44,0,0,1,38.15,50.85Zm.08.88h.85V55h-.85Z"/><path class="cls-1" d="M41.21,51.66c.82,0,1.3.34,1.35,1h-.79c0-.21-.24-.34-.56-.34s-.53.14-.53.34.14.25.44.32l.61.13c.63.14.91.4.91.88,0,.64-.58,1.07-1.42,1.07s-1.37-.35-1.43-1h.83c.06.22.27.35.61.35s.56-.14.56-.35-.12-.25-.41-.32l-.59-.13c-.63-.14-.93-.44-.93-.93S40.41,51.66,41.21,51.66Z"/><path class="cls-1" d="M43.44,52.37a.52.52,0,1,1,.52.51A.49.49,0,0,1,43.44,52.37Zm0,2.16A.52.52,0,1,1,44,55,.49.49,0,0,1,43.44,54.53Z"/><path class="cls-4" d="M47.54,55.41V51.18h.51l2.29,3.29h0V51.18h.52v4.23H50.4l-2.29-3.28h0v3.28Z"/><path class="cls-4" d="M54.48,55.41H54v-.5h0a1,1,0,0,1-1,.55c-.71,0-1.08-.42-1.08-1.17v-2h.5v1.92c0,.57.21.83.71.83a.79.79,0,0,0,.86-.88V52.25h.5Z"/><path class="cls-4" d="M55.46,51H56v4.41h-.5Z"/><path class="cls-4" d="M57,51h.5v4.41H57Z"/><path class="cls-4" d="M58.27,54.53c0-.57.42-.89,1.15-.93l.91-.06v-.29c0-.39-.24-.6-.71-.6s-.64.14-.71.39h-.51c.07-.51.57-.84,1.24-.84s1.2.4,1.2,1.05v2.16h-.48v-.47h0a1.09,1.09,0,0,1-1,.52A1,1,0,0,1,58.27,54.53Zm2.06-.29v-.29l-.85.06c-.48,0-.69.2-.69.52s.27.51.64.51A.83.83,0,0,0,60.33,54.23Z"/><path class="cls-4" d="M64.75,55.41l-1.56-4.23h.55L65,54.73h0l1.24-3.54h.55l-1.56,4.23Z"/><path class="cls-4" d="M69.8,54.59a1.26,1.26,0,0,1-1.33.87c-.88,0-1.42-.63-1.42-1.63a1.44,1.44,0,0,1,1.42-1.64c.85,0,1.37.61,1.37,1.59V54H67.58v0c0,.62.38,1,.91,1a.82.82,0,0,0,.81-.43Zm-2.23-1h1.74a.85.85,0,0,0-.85-.93A.9.9,0,0,0,67.58,53.57Z"/><path class="cls-4" d="M70.67,51h.5v4.41h-.5Z"/><path class="cls-4" d="M38.9,23.41V19.66H37.53v-.47h3.25v.47H39.42v3.75Z"/><path class="cls-4" d="M41.45,19.26a.35.35,0,1,1,.35.35A.35.35,0,0,1,41.45,19.26Zm.1,1h.5v3.16h-.5Z"/><path class="cls-4" d="M43,20.25h.48v.5h0a1,1,0,0,1,.95-.55,1,1,0,0,1,1.1,1.17v2h-.5V21.49c0-.57-.24-.84-.74-.84a.8.8,0,0,0-.83.89v1.87H43Z"/><path class="cls-4" d="M48.62,21.22a.78.78,0,0,0-.81-.57c-.57,0-.93.45-.93,1.17S47.24,23,47.8,23a.76.76,0,0,0,.81-.55h.51a1.22,1.22,0,0,1-1.32,1,1.45,1.45,0,0,1-1.45-1.65A1.44,1.44,0,0,1,47.8,20.2a1.24,1.24,0,0,1,1.32,1Z"/><path class="cls-4" d="M49.78,19.26a.35.35,0,1,1,.35.35A.35.35,0,0,1,49.78,19.26Zm.1,1h.5v3.16h-.5Z"/><path class="cls-4" d="M51.19,21.83c0-1,.52-1.63,1.33-1.63a1.08,1.08,0,0,1,1,.55h0V19h.5v4.41h-.48v-.5h0a1.13,1.13,0,0,1-1,.56C51.71,23.47,51.19,22.83,51.19,21.83Zm.52,0c0,.74.35,1.18.92,1.18s.93-.45.93-1.18-.36-1.18-.93-1.18S51.71,21.1,51.71,21.83Z"/><path class="cls-4" d="M57.59,23.41h-.48v-.5h0a1,1,0,0,1-1,.55C55.37,23.47,55,23,55,22.3v-2h.5v1.92c0,.57.21.83.71.83a.79.79,0,0,0,.86-.88V20.25h.5Z"/><path class="cls-4" d="M58.54,20.25H59v.5h0A1,1,0,0,1,60,20.2a1,1,0,0,1,1.1,1.17v2h-.5V21.49c0-.57-.24-.84-.74-.84a.8.8,0,0,0-.83.89v1.87h-.5Z"/><path class="cls-4" d="M62.75,19.44v.82h.7v.42h-.7v1.79c0,.37.14.53.47.53h.23v.42l-.3,0c-.65,0-.91-.24-.91-.84V20.68h-.51v-.42h.51v-.82Z"/></g><g id="Borders"><path class="cls-6" d="M99,1V79H1V1H99m1-1H0V80H100V0Z"/></g></svg>