<svg xmlns="http://www.w3.org/2000/svg" viewBox="0 0 100 80"><defs><style>.cls-1{fill:#ccc;}.cls-2{fill:#fff;}.cls-3{fill:#666;}.cls-4{fill:#e1e1e1;}.cls-5{fill:#b3b3b3;}.cls-6{fill:#8c8c8c;}</style></defs><title>VisualIndex_v3</title><g id="All"><rect class="cls-1" width="100" height="80"/><rect class="cls-2" x="7.5" y="15.5" width="85" height="49" rx="1.5" ry="1.5"/><path class="cls-3" d="M91,16a1,1,0,0,1,1,1V63a1,1,0,0,1-1,1H9a1,1,0,0,1-1-1V17a1,1,0,0,1,1-1H91m0-1H9a2,2,0,0,0-2,2V63a2,2,0,0,0,2,2H91a2,2,0,0,0,2-2V17a2,2,0,0,0-2-2Z"/><path class="cls-4" d="M7.5,25.5V17A1.5,1.5,0,0,1,9,15.5H91A1.5,1.5,0,0,1,92.5,17v8.5Z"/><path class="cls-3" d="M91,16a1,1,0,0,1,1,1v8H8V17a1,1,0,0,1,1-1H91m0-1H9a2,2,0,0,0-2,2v9H93V17a2,2,0,0,0-2-2Z"/><circle class="cls-5" cx="13" cy="20.5" r="2"/><circle class="cls-5" cx="19.6" cy="20.5" r="2"/><circle class="cls-5" cx="26.2" cy="20.5" r="2"/><path class="cls-6" d="M39.91,38.41h-.5l-1.15-4.23h.55l.84,3.44h0l.95-3.44h.53l.95,3.44h0L43,34.18h.55l-1.15,4.23h-.5l-1-3.34h0Z"/><path class="cls-6" d="M44.37,34.26a.35.35,0,1,1,.35.35A.35.35,0,0,1,44.37,34.26Zm.1,1H45v3.16h-.5Z"/><path class="cls-6" d="M47.22,35.2a1.06,1.06,0,0,1,1.19.85h-.5a.64.64,0,0,0-.69-.42c-.37,0-.67.19-.67.47s.18.35.55.44l.49.12c.59.14.88.4.88.86s-.55,1-1.27,1S46,38.13,46,37.61h.52a.7.7,0,0,0,.74.44c.42,0,.73-.2.73-.49s-.16-.36-.5-.45L46.91,37c-.59-.14-.86-.4-.86-.86S46.55,35.2,47.22,35.2Z"/><path class="cls-6" d="M49.35,34.26a.35.35,0,1,1,.35.35A.35.35,0,0,1,49.35,34.26Zm.1,1H50v3.16h-.5Z"/><path class="cls-6" d="M55.56,37.59a1.26,1.26,0,0,1-1.33.87c-.88,0-1.42-.63-1.42-1.63a1.44,1.44,0,0,1,1.42-1.64c.85,0,1.37.61,1.37,1.59V37H53.33v0c0,.62.38,1,.91,1a.82.82,0,0,0,.81-.43Zm-2.23-1h1.74a.85.85,0,0,0-.85-.93A.9.9,0,0,0,53.33,36.57Z"/><path class="cls-6" d="M56.58,35.25h.48v.5h0a1,1,0,0,1,.95-.55,1,1,0,0,1,1.1,1.17v2h-.5V36.49c0-.57-.24-.84-.74-.84a.8.8,0,0,0-.83.89v1.87h-.5Z"/><path class="cls-6" d="M60.17,34.26a.35.35,0,1,1,.35.35A.35.35,0,0,1,60.17,34.26Zm.1,1h.5v3.16h-.5Z"/><path class="cls-6" d="M61.91,35.25h.48v.5h0a.89.89,0,0,1,.88-.55.91.91,0,0,1,.87.55h0a1.06,1.06,0,0,1,1-.55.92.92,0,0,1,1,1v2.18h-.5V36.35c0-.47-.22-.69-.67-.69a.71.71,0,0,0-.73.73v2h-.5V36.27a.6.6,0,0,0-.66-.62.76.76,0,0,0-.73.8v2h-.5Z"/><path class="cls-6" d="M16.74,38.46V34.24h.88v4.23Z"/><path class="cls-6" d="M18.78,34h.85v4.46h-.85Z"/><path class="cls-6" d="M20.72,34h.85v4.46h-.85Z"/><path class="cls-6" d="M25.56,38.46h-.83v-.52h-.05a.92.92,0,0,1-.94.59,1.07,1.07,0,0,1-1.13-1.2V35.23h.85v1.89c0,.45.2.67.59.67a.62.62,0,0,0,.65-.7V35.23h.85Z"/><path class="cls-6" d="M26.6,35.23h.83v.53h.05a.91.91,0,0,1,.89-.6.87.87,0,0,1,.89.6h.05a1,1,0,0,1,1-.6,1,1,0,0,1,1,1.08v2.22h-.85v-2c0-.38-.18-.57-.54-.57a.55.55,0,0,0-.57.59v2h-.82v-2A.49.49,0,0,0,28,35.9a.58.58,0,0,0-.57.62v1.95H26.6Z"/><path class="cls-6" d="M32.44,35.87a.52.52,0,1,1,.52.51A.49.49,0,0,1,32.44,35.87Zm0,2.16a.52.52,0,1,1,.52.51A.49.49,0,0,1,32.44,38Z"/><path class="cls-6" d="M42.21,46.41V43.18h0l-1.33,3.2H40.4l-1.33-3.2h0v3.23h-.49V42.18h.61l1.45,3.5h0l1.45-3.5h.61v4.23Z"/><path class="cls-6" d="M43.81,42.26a.35.35,0,1,1,.35.35A.35.35,0,0,1,43.81,42.26Zm.1,1h.5v3.16h-.5Z"/><path class="cls-6" d="M45.56,43.25H46v.5h0A1,1,0,0,1,47,43.2a1,1,0,0,1,1.1,1.17v2h-.5V44.49c0-.57-.24-.84-.74-.84a.8.8,0,0,0-.83.89v1.87h-.5Z"/><path class="cls-6" d="M49.15,42.26a.35.35,0,1,1,.35.35A.35.35,0,0,1,49.15,42.26Zm.1,1h.5v3.16h-.5Z"/><path class="cls-6" d="M50.89,43.25h.48v.5h0a.89.89,0,0,1,.88-.55.91.91,0,0,1,.87.55h0a1.06,1.06,0,0,1,1-.55.92.92,0,0,1,1,1v2.18h-.5V44.35c0-.47-.22-.69-.67-.69a.71.71,0,0,0-.73.73v2h-.5V44.27a.6.6,0,0,0-.66-.62.76.76,0,0,0-.73.8v2h-.5Z"/><path class="cls-6" d="M60.85,46.41H58.23V42.18h2.62v.47H58.76V44h2v.47h-2v1.45h2.09Z"/><path class="cls-6" d="M63,43.2a1.06,1.06,0,0,1,1.19.85h-.5a.64.64,0,0,0-.69-.42c-.37,0-.67.19-.67.47s.18.35.55.44l.49.12c.59.14.88.4.88.86s-.55,1-1.27,1-1.19-.34-1.24-.86h.52A.7.7,0,0,0,63,46c.42,0,.73-.2.73-.49s-.16-.36-.5-.45L62.71,45c-.59-.14-.86-.4-.86-.86S62.35,43.2,63,43.2Z"/><path class="cls-6" d="M66.29,43.2a1.06,1.06,0,0,1,1.19.85H67a.64.64,0,0,0-.69-.42c-.37,0-.67.19-.67.47s.18.35.55.44l.49.12c.59.14.88.4.88.86s-.55,1-1.27,1-1.19-.34-1.24-.86h.52a.7.7,0,0,0,.74.44c.42,0,.73-.2.73-.49s-.16-.36-.5-.45L66,45c-.59-.14-.86-.4-.86-.86S65.62,43.2,66.29,43.2Z"/><path class="cls-6" d="M71.1,45.59a1.26,1.26,0,0,1-1.33.87c-.88,0-1.42-.63-1.42-1.63a1.44,1.44,0,0,1,1.42-1.64c.85,0,1.37.61,1.37,1.59V45H68.87v0c0,.62.38,1,.91,1a.82.82,0,0,0,.81-.43Zm-2.23-1h1.74a.85.85,0,0,0-.85-.93A.9.9,0,0,0,68.87,44.57Z"/><path class="cls-6" d="M38.54,54.41V50.18h.51l2.29,3.29h0V50.18h.52v4.23H41.4l-2.29-3.28h0v3.28Z"/><path class="cls-6" d="M45.66,54.41h-.48v-.5h0a1,1,0,0,1-1,.55c-.71,0-1.08-.42-1.08-1.17v-2h.5v1.92c0,.57.21.83.71.83a.79.79,0,0,0,.86-.88V51.25h.5Z"/><path class="cls-6" d="M46.82,50h.5v4.41h-.5Z"/><path class="cls-6" d="M48.51,50H49v4.41h-.5Z"/><path class="cls-6" d="M50,53.53c0-.57.42-.89,1.15-.93l.91-.06v-.29c0-.39-.24-.6-.71-.6s-.64.14-.71.39h-.51c.07-.51.57-.84,1.24-.84s1.2.4,1.2,1.05v2.16h-.48v-.47h0a1.09,1.09,0,0,1-1,.52A1,1,0,0,1,50,53.53Zm2.06-.29v-.29L51.2,53c-.48,0-.69.2-.69.52s.27.51.64.51A.83.83,0,0,0,52.05,53.23Z"/><path class="cls-6" d="M56.83,54.41l-1.56-4.23h.55l1.24,3.54h0l1.24-3.54h.55l-1.56,4.23Z"/><path class="cls-6" d="M62.06,53.59a1.26,1.26,0,0,1-1.33.87c-.88,0-1.42-.63-1.42-1.63a1.44,1.44,0,0,1,1.42-1.64c.85,0,1.37.61,1.37,1.59V53H59.83v0c0,.62.38,1,.91,1a.82.82,0,0,0,.81-.43Zm-2.23-1h1.74a.85.85,0,0,0-.85-.93A.9.9,0,0,0,59.83,52.57Z"/><path class="cls-6" d="M63.11,50h.5v4.41h-.5Z"/><path class="cls-6" d="M39,21.8c0,.38.42.62,1,.62s.86-.25.86-.61-.23-.48-.77-.61l-.55-.13c-.77-.17-1.13-.55-1.13-1.18s.63-1.28,1.57-1.28a1.41,1.41,0,0,1,1.56,1.24h-.72a.76.76,0,0,0-.84-.61c-.49,0-.81.23-.81.59s.21.45.74.57l.49.11c.86.19,1.22.55,1.22,1.2,0,.82-.64,1.34-1.66,1.34s-1.61-.49-1.65-1.25Z"/><path class="cls-6" d="M42.25,18.82a.45.45,0,1,1,.45.4A.41.41,0,0,1,42.25,18.82Zm.09.92h.72v3.21h-.72Z"/><path class="cls-6" d="M44.91,19v.81h.69v.58h-.69v1.57c0,.32.13.46.44.46h.25v.57a2.06,2.06,0,0,1-.38,0c-.74,0-1-.25-1-.87V20.34h-.51v-.58h.51V19Z"/><path class="cls-6" d="M50.37,21.86H48.81l-.36,1.08h-.76l1.5-4.23H50l1.5,4.23h-.81ZM49,21.27h1.2l-.57-1.74h0Z"/><path class="cls-6" d="M52.19,19.74h.7v.52h0a.9.9,0,0,1,.89-.58.88.88,0,0,1,.88.58h0a1,1,0,0,1,1-.58,1,1,0,0,1,1,1.07v2.2H56v-2c0-.41-.2-.62-.59-.62a.61.61,0,0,0-.63.64v2h-.71V20.87a.53.53,0,0,0-.58-.57.64.64,0,0,0-.63.69v1.95h-.73Z"/><path class="cls-6" d="M60.4,22.06A1.33,1.33,0,0,1,59,23a1.46,1.46,0,0,1-1.51-1.66A1.49,1.49,0,0,1,59,19.67a1.42,1.42,0,0,1,1.46,1.62v.23H58.2v0a.8.8,0,0,0,.8.87.71.71,0,0,0,.71-.37Zm-2.2-1h1.51a.73.73,0,0,0-.74-.78A.77.77,0,0,0,58.2,21Z"/><path class="cls-6" d="M62.12,19v.81h.69v.58h-.69v1.57c0,.32.13.46.44.46h.25v.57a2.06,2.06,0,0,1-.38,0c-.74,0-1-.25-1-.87V20.34h-.51v-.58h.51V19Z"/></g><g id="Borders"><path class="cls-6" d="M99,1V79H1V1H99m1-1H0V80H100V0Z"/></g></svg>