<svg xmlns="http://www.w3.org/2000/svg" preserveAspectRatio="xMidYMid meet" style="width:100%;height:100%" viewBox="0 0 100 80">
    <defs>
        <clipPath id="animationMask_CXJcSY8GCH">
            <rect width="100" height="80" x="0" y="0"/>
        </clipPath>
        <clipPath id="cp_bHLLjZC4">
            <path d="M0,0 L100,0 L100,80 L0,80z"/>
        </clipPath>
        <clipPath id="4Z5Z3bAlND">
            <path fill="#ffffff" fill-opacity="1" d=" M92.406,36.422 C92.406,36.422 7.625,36.422 7.625,36.422 C7.625,36.422 7.625,44.531 7.625,44.531 C7.625,44.531 92.406,44.531 92.406,44.531 C92.406,44.531 92.406,36.422 92.406,36.422" clip-rule="nonzero"/>
        </clipPath>
        <clipPath id="sKkXTfJAdm">
            <path fill="#ffffff" fill-opacity="1" d=" M31.5,36.422 C31.5,36.422 7.625,36.422 7.625,36.422 C7.625,36.422 7.625,44.531 7.625,44.531 C7.625,44.531 31.5,44.531 31.5,44.531 C31.5,44.531 31.5,36.422 31.5,36.422" clip-rule="nonzero"/>
        </clipPath>
    </defs>
    <g clip-path="url(#animationMask_CXJcSY8GCH)">
        <g clip-path="url(#cp_bHLLjZC4)" opacity="1" transform="matrix(1,0,0,1,0,0)">
            <g opacity="1" style="user-select:none" transform="matrix(1,0,0,1,0,0)">
                <g opacity="1" transform="matrix(1,0,0,1,50,40)">
                    <path fill="rgb(224,224,224)" fill-opacity="1" d="M0 0 M-49.5,39.499 C-49.5,39.499 49.5,39.499 49.5,39.499 C49.5,39.499 49.5,-39.499 49.5,-39.499 C49.5,-39.499 -49.5,-39.499 -49.5,-39.499 C-49.5,-39.499 -49.5,39.499 -49.5,39.499z"/>
                </g>
                <g opacity="1" transform="matrix(1,0,0,1,50,40)">
                    <path fill="rgb(139,139,139)" fill-opacity="1" d="M0 0 M-49,-39 C-49,-39 49,-39 49,-39 C49,-39 49,39 49,39 C49,39 -49,39 -49,39 C-49,39 -49,-39 -49,-39zM0 0 M-50,-40M0 0 M-50,40 C-50,40 50,40 50,40 C50,40 50,-40 50,-40 C50,-40 -50,-40 -50,-40 C-50,-40 -50,40 -50,40z"/>
                </g>
            </g>
            <g opacity="1" style="user-select:none" transform="matrix(1,0,0,1,0,0.125)">
                <g opacity="1" transform="matrix(1,0,0,1,0,0)">
                    <path fill-opacity="0" stroke="rgb(179,179,179)" stroke-linecap="round" stroke-linejoin="miter" stroke-miterlimit="10" stroke-opacity="1" stroke-width="5" d="M0 0 M11.5,40.5 C11.5,40.5 89,40.5 89,40.5"/>
                </g>
            </g>
            <g clip-path="url(#sKkXTfJAdm)" opacity="1" style="user-select:none" transform="matrix(1,0,0,1,0,0.125)">
                <g opacity="1" transform="matrix(1,0,0,1,0,0)">
                    <path fill-opacity="0" stroke="rgb(47,131,250)" stroke-linecap="round" stroke-linejoin="miter" stroke-miterlimit="10" stroke-opacity="1" stroke-width="5" d="M0 0 M11,40.5 C11,40.5 89,40.5 89,40.5"/>
                </g>
            </g>
            <g clip-path="url(#4Z5Z3bAlND)" opacity="2.5893166863966146e-7" style="user-select:none" transform="matrix(1,0,0,1,0,0.125)">
                <g opacity="1" transform="matrix(1,0,0,1,0,0)">
                    <path fill-opacity="0" stroke="rgb(47,131,250)" stroke-linecap="round" stroke-linejoin="miter" stroke-miterlimit="10" stroke-opacity="1" stroke-width="5" d="M0 0 M11,40.5 C11,40.5 89,40.5 89,40.5"/>
                </g>
            </g>
        </g>
    </g>
</svg>
