<svg xmlns="http://www.w3.org/2000/svg" viewBox="0 0 100 80">
    <defs>
        <clipPath id="animationMask_ntVT1LoR7t">
            <rect width="100" height="80" x="0" y="0"/>
        </clipPath>
        <clipPath id="cp_5qtrbBDk">
            <path d="M0,0 L100,0 L100,80 L0,80z"/>
        </clipPath>
        <clipPath id="cp_5sPdnj0L">
            <path d="M0,0 L100,0 L100,80 L0,80z"/>
        </clipPath>
        <clipPath id="gPjY7Mq83K">
            <path fill="#ffffff" fill-opacity="1" d=" M50.027,25.812 C42.176,25.812 35.812,32.176 35.812,40.027 C36.75,40 37.625,40 38.527,39.992 C40.375,40 47.875,40 49.992,40.027 C50,38.5 50.013,39.927 50.013,39.927 C50.013,39.927 50,28.562 50.027,25.812" clip-rule="nonzero"/>
        </clipPath>
    </defs>
    <g clip-path="url(#animationMask_ntVT1LoR7t)">
        <g clip-path="url(#cp_5qtrbBDk)" opacity="1" transform="matrix(1,0,0,1,0,0)">
            <g opacity="1" style="user-select:none" transform="matrix(1,0,0,1,0,0)">
                <g opacity="1" transform="matrix(1,0,0,1,50,40)">
                    <path fill="rgb(224,224,224)" fill-opacity="1" d="M0 0 M-49.5,39.499 C-49.5,39.499 49.5,39.499 49.5,39.499 C49.5,39.499 49.5,-39.499 49.5,-39.499 C49.5,-39.499 -49.5,-39.499 -49.5,-39.499 C-49.5,-39.499 -49.5,39.499 -49.5,39.499z"/>
                </g>
                <g opacity="1" transform="matrix(1,0,0,1,50,40)">
                    <path fill="rgb(139,139,139)" fill-opacity="1" d="M0 0 M-49,-39 C-49,-39 49,-39 49,-39 C49,-39 49,39 49,39 C49,39 -49,39 -49,39 C-49,39 -49,-39 -49,-39zM0 0 M-50,-40M0 0 M-50,40 C-50,40 50,40 50,40 C50,40 50,-40 50,-40 C50,-40 -50,-40 -50,-40 C-50,-40 -50,40 -50,40z"/>
                </g>
            </g>
            <g opacity="1" style="user-select:none" transform="matrix(1,0,0,1,0,0)">
                <g opacity="1" transform="matrix(1,0,0,1,50,40)">
                    <path fill="rgb(139,139,139)" fill-opacity="1" d="M0 0 M0,14 C0,14 0,14 0,14 C-7.732,14 -14,7.732 -14,0 C-14,-7.732 -7.732,-14 0,-14 C7.732,-14 14,-7.732 14,0 C14,7.732 7.732,14 0,14z"/>
                    <path fill-opacity="0" stroke="rgb(102,102,102)" stroke-linecap="butt" stroke-linejoin="miter" stroke-miterlimit="10" stroke-opacity="1" stroke-width="1" d="M0 0 M0,14 C0,14 0,14 0,14 C-7.732,14 -14,7.732 -14,0 C-14,-7.732 -7.732,-14 0,-14 C7.732,-14 14,-7.732 14,0 C14,7.732 7.732,14 0,14z"/>
                </g>
            </g>
            <g clip-path="url(#cp_5sPdnj0L)" opacity="0" transform="matrix(1,0,0,1,0,0)">
                <g clip-path="url(#gPjY7Mq83K)" style="display:none">
                    <g opacity="1" style="user-select:none;display:block" transform="matrix(-0.6691306063588581,-0.7431448254773944,0.7431448254773944,-0.6691306063588581,53.60573729884713,103.92246552822404)">
                        <g opacity="1" transform="matrix(1,0,0,1,48.193,40)">
                            <path fill="rgb(224,224,224)" fill-opacity="1" d="M0 0 M12.193,9.388 C9.629999999999999,12.219999999999999 5.927,14 1.807,14 C-5.925000000000001,14 -12.193,7.733 -12.193,0 C-12.193,-7.732 -5.925000000000001,-14 1.807,-14 C1.807,-14 1.807,0 1.807,0 C1.807,0 12.193,9.388 12.193,9.388z" style="display:block"/>
                        </g>
                    </g>
                </g>
            </g>
            <g opacity="0.9599997323044955" style="user-select:none;display:block" transform="matrix(1,0,0,1,0,0)">
                <g opacity="1" transform="matrix(1,0,0,1,48.193,40)">
                    <path fill="rgb(224,224,224)" fill-opacity="1" d="M0 0 M12.193,9.388 C9.629999999999999,12.219999999999999 5.927,14 1.807,14 C-5.925000000000001,14 -12.193,7.733 -12.193,0 C-12.193,-7.732 -5.925000000000001,-14 1.807,-14 C1.807,-14 1.807,0 1.807,0 C1.807,0 12.193,9.388 12.193,9.388z" style="display:block"/>
                </g>
            </g>
            <g opacity="1" style="user-select:none" transform="matrix(1,0,0,1,0,0)">
                <g opacity="1" transform="matrix(1,0,0,1,50,40)">
                    <path fill-opacity="0" stroke="rgb(102,102,102)" stroke-linecap="butt" stroke-linejoin="miter" stroke-miterlimit="10" stroke-opacity="1" stroke-width="1" d="M0 0 M14,0 C14,7.732 7.732,14 0,14 C-7.732,14 -14,7.732 -14,0 C-14,-7.732 -7.732,-14 0,-14 C7.732,-14 14,-7.732 14,0z"/>
                </g>
            </g>
        </g>
    </g>
</svg>
