<svg xmlns="http://www.w3.org/2000/svg" viewBox="0 0 100 80"><defs><style>.cls-1{fill:#e1e1e1;}.cls-2{fill:#fff;}.cls-3{fill:#666;}.cls-4{fill:#3083fb;}.cls-5{fill:none;stroke:#fafafa;stroke-linecap:round;stroke-miterlimit:10;stroke-width:1.5px;}.cls-6{fill:#8c8c8c;}</style></defs><title>VisualIndex_v3</title><g id="All"><rect class="cls-1" width="100" height="80"/><path class="cls-2" d="M21,50.5A2.5,2.5,0,0,1,18.5,48V32A2.5,2.5,0,0,1,21,29.5H63.5v21Z"/><path class="cls-3" d="M63,30V50H21a2,2,0,0,1-2-2V32a2,2,0,0,1,2-2H63m1-1H21a3,3,0,0,0-3,3V48a3,3,0,0,0,3,3H64V29Z"/><path class="cls-4" d="M66,29H81a0,0,0,0,1,0,0V51a0,0,0,0,1,0,0H66a3,3,0,0,1-3-3V32A3,3,0,0,1,66,29Z" transform="translate(144 80) rotate(180)"/><path class="cls-3" d="M32.84,34.22a3.4,3.4,0,0,1,0,6.8H30.17v3.77H28.85V34.22Zm-2.67,5.62H32.5a2.23,2.23,0,1,0,0-4.45H30.17Z"/><path class="cls-3" d="M42,34.22c3.13,0,5,2,5,5.28s-1.85,5.29-5,5.29H38.38V34.22ZM39.7,43.6h2.22c2.36,0,3.73-1.51,3.73-4.09s-1.38-4.11-3.73-4.11H39.7Z"/><path class="cls-3" d="M49.27,44.78V34.22h6.42V35.4h-5.1V39h4.68v1.17H50.59v4.58Z"/><polyline class="cls-5" points="68.5 39 72 42.5 75.5 39"/></g><g id="Borders"><path class="cls-6" d="M99,1V79H1V1H99m1-1H0V80H100V0Z"/></g></svg>