<svg xmlns="http://www.w3.org/2000/svg" viewBox="0 0 100 80"><defs><style>.cls-1{fill:#e1e1e1;}.cls-2{fill:#3083fb;stroke:#3083fb;stroke-miterlimit:10;}.cls-3{fill:#fff;}.cls-4{fill:#8c8c8c;}</style></defs><title>VisualIndex_v3</title><g id="All"><rect class="cls-1" width="100" height="80"/><rect class="cls-2" x="19.5" y="29.5" width="60" height="22" rx="3" ry="3"/><path class="cls-3" d="M41.3,35.74a2.49,2.49,0,0,1,0,5H39.34v2.77h-1V35.74Zm-2,4.13H41a1.64,1.64,0,1,0,0-3.27H39.34Z"/><path class="cls-3" d="M45.24,37.7h.88v.86h.09a1.62,1.62,0,0,1,1.61-1l.46,0v.92a3.7,3.7,0,0,0-.59-.05,1.42,1.42,0,0,0-1.52,1.41v3.59h-.92Z"/><path class="cls-3" d="M49.38,35.88a.64.64,0,1,1,.64.64A.65.65,0,0,1,49.38,35.88Zm.18,1.82h.92v5.79h-.92Z"/><path class="cls-3" d="M52.25,37.7h.88v.91h.09a1.74,1.74,0,0,1,1.74-1,1.89,1.89,0,0,1,2,2.14v3.75h-.92V40c0-1-.44-1.54-1.36-1.54a1.47,1.47,0,0,0-1.52,1.63v3.43h-.92Z"/><path class="cls-3" d="M60,36.2v1.5h1.29v.77H60v3.28c0,.68.26,1,.86,1l.43,0v.78a3.1,3.1,0,0,1-.54.05C59.53,43.53,59,43.09,59,42V38.47h-.93V37.7H59V36.2Z"/></g><g id="Borders"><path class="cls-4" d="M99,1V79H1V1H99m1-1H0V80H100V0Z"/></g></svg>