<svg xmlns="http://www.w3.org/2000/svg" viewBox="0 0 100 80"><defs><style>.cls-1{fill:#fff;}.cls-2{fill:#ccc;}.cls-3{fill:#666;}.cls-4{fill:#e1e1e1;}.cls-5{fill:#8c8c8c;}</style></defs><title>VisualIndex_v3</title><g id="All"><rect class="cls-1" x="0.5" y="0.5" width="99" height="79"/><path class="cls-2" d="M99,1V79H1V1H99m1-1H0V80H100V0Z"/><polygon class="cls-3" points="17.09 31 18.68 36.03 24.17 36.03 20.04 39.01 21.37 44.48 17.09 41.58 12.8 44.48 14.13 39.01 10 36.03 15.49 36.03 17.09 31"/><polygon class="cls-3" points="33.59 30.97 35.18 36 40.67 36 36.54 38.98 37.87 44.45 33.59 41.56 29.3 44.45 30.63 38.98 26.5 36 31.99 36 33.59 30.97"/><polygon class="cls-3" points="50.09 31 51.68 36.03 57.17 36.03 53.04 39.01 54.37 44.48 50.09 41.58 45.8 44.48 47.13 39.01 43 36.03 48.49 36.03 50.09 31"/><polygon class="cls-4" points="66.58 30.97 68.18 36 73.67 36 69.54 38.98 70.87 44.45 66.58 41.56 62.3 44.45 63.63 38.98 59.5 36 64.99 36 66.58 30.97"/><polygon class="cls-4" points="83.08 30.97 84.68 36 90.17 36 86.04 38.98 87.37 44.45 83.08 41.56 78.8 44.45 80.13 38.98 76 36 81.49 36 83.08 30.97"/></g><g id="Borders"><path class="cls-5" d="M99,1V79H1V1H99m1-1H0V80H100V0Z"/></g></svg>