<svg xmlns="http://www.w3.org/2000/svg" viewBox="0 0 100 80"><defs><style>.cls-1{fill:#e1e1e1;}.cls-2{fill:#ccc;}.cls-3{fill:#666;}.cls-4{fill:#b3b3b3;}.cls-5{opacity:0.2;}.cls-6{fill:#8c8c8c;}</style></defs><title>VisualIndex_v3</title><g id="All"><rect class="cls-1" x="0.5" y="0.5" width="99" height="79"/><path class="cls-2" d="M99,1V79H1V1H99m1-1H0V80H100V0Z"/><rect class="cls-3" x="8" y="34" width="1" height="12"/><rect class="cls-4" x="9" y="34" width="1" height="12"/><rect class="cls-3" x="10" y="34" width="1" height="12"/><rect class="cls-4" x="11" y="34" width="1" height="12"/><rect class="cls-3" x="12" y="34" width="1" height="12"/><rect class="cls-4" x="13" y="34" width="1" height="12"/><rect class="cls-3" x="14" y="34" width="1" height="12"/><rect class="cls-4" x="15" y="34" width="1" height="12"/><rect class="cls-3" x="16" y="34" width="1" height="12"/><rect class="cls-4" x="17" y="34" width="1" height="12"/><rect class="cls-3" x="18" y="34" width="1" height="12"/><rect class="cls-4" x="19" y="34" width="1" height="12"/><rect class="cls-3" x="20" y="34" width="1" height="12"/><rect class="cls-4" x="21" y="34" width="1" height="12"/><rect class="cls-3" x="22" y="34" width="1" height="12"/><rect class="cls-4" x="23" y="34" width="1" height="12"/><rect class="cls-3" x="24" y="34" width="1" height="12"/><rect class="cls-4" x="25" y="34" width="1" height="12"/><rect class="cls-3" x="26" y="34" width="1" height="12"/><rect class="cls-4" x="27" y="34" width="1" height="12"/><rect class="cls-3" x="28" y="34" width="1" height="12"/><rect class="cls-4" x="29" y="34" width="1" height="12"/><rect class="cls-3" x="30" y="34" width="1" height="12"/><rect class="cls-4" x="31" y="34" width="1" height="12"/><rect class="cls-3" x="32" y="34" width="1" height="12"/><rect class="cls-4" x="33" y="34" width="1" height="12"/><rect class="cls-3" x="34" y="34" width="1" height="12"/><rect class="cls-4" x="35" y="34" width="1" height="12"/><rect class="cls-3" x="36" y="34" width="1" height="12"/><rect class="cls-4" x="37" y="34" width="1" height="12"/><rect class="cls-3" x="38" y="34" width="1" height="12"/><rect class="cls-4" x="39" y="34" width="1" height="12"/><rect class="cls-3" x="40" y="34" width="1" height="12"/><rect class="cls-4" x="41" y="34" width="1" height="12"/><rect class="cls-3" x="42" y="34" width="1" height="12"/><rect class="cls-4" x="43" y="34" width="1" height="12"/><rect class="cls-3" x="44" y="34" width="1" height="12"/><rect class="cls-4" x="45" y="34" width="1" height="12"/><rect class="cls-3" x="46" y="34" width="1" height="12"/><rect class="cls-4" x="47" y="34" width="1" height="12"/><rect class="cls-3" x="48" y="34" width="1" height="12"/><rect class="cls-4" x="49" y="34" width="1" height="12"/><rect class="cls-3" x="50" y="34" width="1" height="12"/><rect class="cls-4" x="51" y="34" width="1" height="12"/><rect class="cls-3" x="52" y="34" width="1" height="12"/><rect class="cls-4" x="53" y="34" width="1" height="12"/><rect class="cls-3" x="54" y="34" width="1" height="12"/><rect class="cls-4" x="55" y="34" width="1" height="12"/><rect class="cls-3" x="56" y="34" width="1" height="12"/><g class="cls-5"><rect class="cls-4" x="57" y="34" width="1" height="12"/><rect class="cls-3" x="58" y="34" width="1" height="12"/><rect class="cls-4" x="59" y="34" width="1" height="12"/><rect class="cls-3" x="60" y="34" width="1" height="12"/><rect class="cls-4" x="61" y="34" width="1" height="12"/><rect class="cls-3" x="62" y="34" width="1" height="12"/><rect class="cls-4" x="63" y="34" width="1" height="12"/><rect class="cls-3" x="64" y="34" width="1" height="12"/><rect class="cls-4" x="65" y="34" width="1" height="12"/><rect class="cls-3" x="66" y="34" width="1" height="12"/><rect class="cls-4" x="67" y="34" width="1" height="12"/><rect class="cls-3" x="68" y="34" width="1" height="12"/><rect class="cls-4" x="69" y="34" width="1" height="12"/><rect class="cls-3" x="70" y="34" width="1" height="12"/><rect class="cls-4" x="71" y="34" width="1" height="12"/><rect class="cls-3" x="72" y="34" width="1" height="12"/><rect class="cls-4" x="73" y="34" width="1" height="12"/><rect class="cls-3" x="74" y="34" width="1" height="12"/><rect class="cls-4" x="75" y="34" width="1" height="12"/><rect class="cls-3" x="76" y="34" width="1" height="12"/><rect class="cls-4" x="77" y="34" width="1" height="12"/><rect class="cls-3" x="78" y="34" width="1" height="12"/><rect class="cls-4" x="79" y="34" width="1" height="12"/><rect class="cls-3" x="80" y="34" width="1" height="12"/><rect class="cls-4" x="81" y="34" width="1" height="12"/><rect class="cls-3" x="82" y="34" width="1" height="12"/><rect class="cls-4" x="83" y="34" width="1" height="12"/><rect class="cls-3" x="84" y="34" width="1" height="12"/><rect class="cls-4" x="85" y="34" width="1" height="12"/><rect class="cls-3" x="86" y="34" width="1" height="12"/><rect class="cls-4" x="87" y="34" width="1" height="12"/><rect class="cls-3" x="88" y="34" width="1" height="12"/><rect class="cls-4" x="89" y="34" width="1" height="12"/><rect class="cls-3" x="90" y="34" width="1" height="12"/><rect class="cls-4" x="91" y="34" width="1" height="12"/></g></g><g id="Borders"><path class="cls-6" d="M99,1V79H1V1H99m1-1H0V80H100V0Z"/></g></svg>