<svg xmlns="http://www.w3.org/2000/svg" viewBox="0 0 100 80"><defs><style>.cls-1{fill:#e1e1e1;}.cls-2,.cls-5,.cls-8{fill:none;}.cls-2{stroke:#9fbfe9;stroke-linecap:round;stroke-width:6px;}.cls-2,.cls-3,.cls-5,.cls-7,.cls-8{stroke-miterlimit:10;}.cls-3,.cls-6,.cls-7{fill:#fff;}.cls-3,.cls-7,.cls-8{stroke:#666;}.cls-4{fill:#666;}.cls-5{stroke:#fafafa;}.cls-7{stroke-width:2px;}.cls-9{fill:#8c8c8c;}</style></defs><title>VisualIndex_v3</title><g id="All"><rect class="cls-1" width="100" height="80"/><rect class="cls-2" x="11.5" y="29" width="77" height="22" rx="2.5" ry="2.5"/><rect class="cls-3" x="11.5" y="28.5" width="77" height="23" rx="2.5" ry="2.5"/><circle class="cls-4" cx="81.5" cy="36" r="4"/><line class="cls-5" x1="83.27" y1="34.23" x2="79.73" y2="37.77"/><line class="cls-5" x1="83.27" y1="37.77" x2="79.73" y2="34.23"/><circle class="cls-6" cx="21.18" cy="38.46" r="5.18"/><path class="cls-4" d="M21.18,34.28A4.18,4.18,0,1,1,17,38.46a4.18,4.18,0,0,1,4.18-4.18m0-2a6.18,6.18,0,1,0,6.18,6.18,6.18,6.18,0,0,0-6.18-6.18Z"/><line class="cls-7" x1="25.35" y1="42.63" x2="29.25" y2="46.54"/><path class="cls-4" d="M43.48,45.2H37.07V34.63h1.32V44h5.1Z"/><path class="cls-4" d="M44.66,41.25c0-2.54,1.39-4.09,3.64-4.09s3.64,1.54,3.64,4.09-1.39,4.09-3.64,4.09S44.66,43.79,44.66,41.25Zm6,0c0-1.87-.84-3-2.34-3S46,39.38,46,41.25s.84,3,2.34,3S50.64,43.12,50.64,41.25Z"/><line class="cls-8" x1="54" y1="31" x2="54" y2="48.82"/></g><g id="Borders"><path class="cls-9" d="M99,1V79H1V1H99m1-1H0V80H100V0Z"/></g></svg>