<svg xmlns="http://www.w3.org/2000/svg" width="100" height="80" viewBox="0 0 100 80" preserveAspectRatio="xMidYMid meet" style="width: 100%; height: 100%;"><defs><clipPath id="animationMask_jCfRMZv21p"><rect width="100" height="80" x="0" y="0"></rect></clipPath><clipPath id="cp_Ig5Jcr3t"><path d="M0,0 L100,0 L100,80 L0,80z"></path></clipPath><clipPath id="cp_fcvoZHwv"><path d="M0,0 L100,0 L100,80 L0,80z"></path></clipPath><clipPath id="O46e2Lx34n"><path fill="#ffffff" clip-rule="nonzero" d=" M87.772,25.062 C87.772,25.062 12.5,25.062 12.5,25.062 C12.5,25.062 12.5,71.987 12.5,71.987 C12.5,71.987 87.772,71.987 87.772,71.987 C87.772,71.987 87.772,25.062 87.772,25.062" fill-opacity="1"></path></clipPath></defs><g clip-path="url(#animationMask_jCfRMZv21p)"><g clip-path="url(#cp_Ig5Jcr3t)" transform="matrix(1,0,0,1,0,0)" opacity="1"><g transform="matrix(1,0,0,1,0,0)" opacity="1" style="user-select: none;"><g opacity="1" transform="matrix(1,0,0,1,50,40)"><path fill="rgb(204,204,204)" fill-opacity="1" d="M0 0 M-50,40 C-50,40 50,40 50,40 C50,40 50,-40 50,-40 C50,-40 -50,-40 -50,-40 C-50,-40 -50,40 -50,40z"></path></g><g opacity="1" transform="matrix(1,0,0,1,50,45)"><path fill="rgb(224,224,224)" fill-opacity="1" d="M0 0 M-40,27.5 C-41.378,27.5 -42.5,26.379 -42.5,25 C-42.5,25 -42.5,-27.5 -42.5,-27.5 C-42.5,-27.5 42.5,-27.5 42.5,-27.5 C42.5,-27.5 42.5,25 42.5,25 C42.5,26.379 41.379,27.5 40,27.5 C40,27.5 -40,27.5 -40,27.5z"></path></g><g opacity="1" transform="matrix(1,0,0,1,50,45)"><path fill="rgb(179,179,179)" fill-opacity="1" d="M0 0 M42,-27 C42,-27 42,25 42,25 C42,26.103 41.103,27 40,27 C40,27 -40,27 -40,27 C-41.103,27 -42,26.103 -42,25 C-42,25 -42,-27 -42,-27 C-42,-27 42,-27 42,-27zM0 0 M43,-28 C43,-28 -43,-28 -43,-28 C-43,-28 -43,25 -43,25 C-43,26.657 -41.657,28 -40,28 C-40,28 40,28 40,28 C41.657,28 43,26.657 43,25 C43,25 43,-28 43,-28z"></path></g><g opacity="1" transform="matrix(1,0,0,1,50,16)"><path fill="rgb(224,224,224)" fill-opacity="1" d="M0 0 M-42.5,8.5 C-42.5,8.5 -42.5,-6 -42.5,-6 C-42.5,-7.378 -41.378,-8.5 -40,-8.5 C-40,-8.5 40,-8.5 40,-8.5 C41.379,-8.5 42.5,-7.378 42.5,-6 C42.5,-6 42.5,8.5 42.5,8.5 C42.5,8.5 -42.5,8.5 -42.5,8.5z"></path></g><g opacity="1" transform="matrix(1,0,0,1,50,16)"><path fill="rgb(179,179,179)" fill-opacity="1" d="M0 0 M40,-8 C41.103,-8 42,-7.103 42,-6 C42,-6 42,8 42,8 C42,8 -42,8 -42,8 C-42,8 -42,-6 -42,-6 C-42,-7.103 -41.103,-8 -40,-8 C-40,-8 40,-8 40,-8zM0 0 M40,-9 C40,-9 -40,-9 -40,-9 C-41.657,-9 -43,-7.657 -43,-6 C-43,-6 -43,9 -43,9 C-43,9 43,9 43,9 C43,9 43,-6 43,-6 C43,-7.657 41.657,-9 40,-9z"></path></g><g opacity="1" transform="matrix(1,0,0,1,50,40)"><path fill="rgb(179,179,179)" fill-opacity="1" d="M0 0 M40,-32 C41.103,-32 42,-31.103 42,-30 C42,-30 42,-23 42,-23 C42,-23 42,-15 42,-15 C42,-15 42,30 42,30 C42,31.103 41.103,32 40,32 C40,32 -40,32 -40,32 C-41.103,32 -42,31.103 -42,30 C-42,30 -42,-15 -42,-15 C-42,-15 -42,-23 -42,-23 C-42,-23 -42,-30 -42,-30 C-42,-31.103 -41.103,-32 -40,-32 C-40,-32 40,-32 40,-32zM0 0 M40,-33 C40,-33 -40,-33 -40,-33 C-41.657,-33 -43,-31.657 -43,-30 C-43,-30 -43,-23 -43,-23 C-43,-23 -43,-15 -43,-15 C-43,-15 -43,30 -43,30 C-43,31.657 -41.657,33 -40,33 C-40,33 40,33 40,33 C41.657,33 43,31.657 43,30 C43,30 43,-15 43,-15 C43,-15 43,-23 43,-23 C43,-23 43,-30 43,-30 C43,-31.657 41.657,-33 40,-33z"></path></g><g opacity="1" transform="matrix(1,0,0,1,14,13.5)"><path fill="rgb(224,224,224)" fill-opacity="1" d="M0 0 M0,2.5 C-1.378,2.5 -2.5,1.378 -2.5,0 C-2.5,-1.378 -1.378,-2.5 0,-2.5 C1.378,-2.5 2.5,-1.378 2.5,0 C2.5,1.378 1.378,2.5 0,2.5z"></path></g><g opacity="1" transform="matrix(1,0,0,1,14,13.5)"><path fill="rgb(179,179,179)" fill-opacity="1" d="M0 0 M0,-2 C1.103,-2 2,-1.103 2,0 C2,1.103 1.103,2 0,2 C-1.103,2 -2,1.103 -2,0 C-2,-1.103 -1.103,-2 0,-2zM0 0 M0,-3 C-1.657,-3 -3,-1.657 -3,0 C-3,1.657 -1.657,3 0,3 C1.657,3 3,1.657 3,0 C3,-1.657 1.657,-3 0,-3z"></path></g><g opacity="1" transform="matrix(1,0,0,1,22.4,13.5)"><path fill="rgb(224,224,224)" fill-opacity="1" d="M0 0 M0,2.5 C-1.378,2.5 -2.5,1.378 -2.5,0 C-2.5,-1.378 -1.378,-2.5 0,-2.5 C1.378,-2.5 2.5,-1.378 2.5,0 C2.5,1.378 1.378,2.5 0,2.5z"></path></g><g opacity="1" transform="matrix(1,0,0,1,22.4,13.5)"><path fill="rgb(179,179,179)" fill-opacity="1" d="M0 0 M0,-2 C1.103,-2 2,-1.103 2,0 C2,1.103 1.103,2 0,2 C-1.103,2 -2,1.103 -2,0 C-2,-1.103 -1.103,-2 0,-2zM0 0 M0,-3 C-1.657,-3 -3,-1.657 -3,0 C-3,1.657 -1.657,3 0,3 C1.657,3 3,1.657 3,0 C3,-1.657 1.657,-3 0,-3z"></path></g><g opacity="1" transform="matrix(1,0,0,1,30.8,13.5)"><path fill="rgb(224,224,224)" fill-opacity="1" d="M0 0 M0,2.5 C-1.378,2.5 -2.5,1.378 -2.5,0 C-2.5,-1.378 -1.378,-2.5 0,-2.5 C1.378,-2.5 2.5,-1.378 2.5,0 C2.5,1.378 1.378,2.5 0,2.5z"></path></g><g opacity="1" transform="matrix(1,0,0,1,30.8,13.5)"><path fill="rgb(179,179,179)" fill-opacity="1" d="M0 0 M0,-2 C1.103,-2 2,-1.103 2,0 C2,1.103 1.103,2 0,2 C-1.103,2 -2,1.103 -2,0 C-2,-1.103 -1.103,-2 0,-2zM0 0 M0,-3 C-1.657,-3 -3,-1.657 -3,0 C-3,1.657 -1.657,3 0,3 C1.657,3 3,1.657 3,0 C3,-1.657 1.657,-3 0,-3z"></path></g><g opacity="1" transform="matrix(1,0,0,1,61,16.5)"><path fill="rgb(224,224,224)" fill-opacity="1" d="M0 0 M6,4 C6,4 -6,4 -6,4 C-6.828,4 -7.5,3.3289999999999997 -7.5,2.5 C-7.5,2.5 -7.5,-2.5 -7.5,-2.5 C-7.5,-3.3289999999999997 -6.828,-4 -6,-4 C-6,-4 6,-4 6,-4 C6.828,-4 7.5,-3.3289999999999997 7.5,-2.5 C7.5,-2.5 7.5,2.5 7.5,2.5 C7.5,3.3289999999999997 6.828,4 6,4z"></path><path stroke-linecap="butt" stroke-linejoin="miter" fill-opacity="0" stroke-miterlimit="10" stroke="rgb(179,179,179)" stroke-opacity="1" stroke-width="1" d="M0 0 M6,4 C6,4 -6,4 -6,4 C-6.828,4 -7.5,3.3289999999999997 -7.5,2.5 C-7.5,2.5 -7.5,-2.5 -7.5,-2.5 C-7.5,-3.3289999999999997 -6.828,-4 -6,-4 C-6,-4 6,-4 6,-4 C6.828,-4 7.5,-3.3289999999999997 7.5,-2.5 C7.5,-2.5 7.5,2.5 7.5,2.5 C7.5,3.3289999999999997 6.828,4 6,4z"></path></g><g opacity="1" transform="matrix(1,0,0,1,79.994,16.5)"><path fill="rgb(224,224,224)" fill-opacity="1" d="M0 0 M6,4 C6,4 -6,4 -6,4 C-6.829,4 -7.5,3.3289999999999997 -7.5,2.5 C-7.5,2.5 -7.5,-2.5 -7.5,-2.5 C-7.5,-3.3289999999999997 -6.829,-4 -6,-4 C-6,-4 6,-4 6,-4 C6.828,-4 7.5,-3.3289999999999997 7.5,-2.5 C7.5,-2.5 7.5,2.5 7.5,2.5 C7.5,3.3289999999999997 6.828,4 6,4z"></path><path stroke-linecap="butt" stroke-linejoin="miter" fill-opacity="0" stroke-miterlimit="10" stroke="rgb(179,179,179)" stroke-opacity="1" stroke-width="1" d="M0 0 M6,4 C6,4 -6,4 -6,4 C-6.829,4 -7.5,3.3289999999999997 -7.5,2.5 C-7.5,2.5 -7.5,-2.5 -7.5,-2.5 C-7.5,-3.3289999999999997 -6.829,-4 -6,-4 C-6,-4 6,-4 6,-4 C6.828,-4 7.5,-3.3289999999999997 7.5,-2.5 C7.5,-2.5 7.5,2.5 7.5,2.5 C7.5,3.3289999999999997 6.828,4 6,4z"></path></g><g opacity="1" transform="matrix(1,0,0,1,0,0)"><path stroke-linecap="butt" stroke-linejoin="miter" fill-opacity="0" stroke-miterlimit="10" stroke="rgb(102,102,102)" stroke-opacity="1" stroke-width="1" d="M0 0 M8,24.5 C8,24.5 92,24.5 92,24.5"></path></g><g opacity="1" transform="matrix(1,0,0,1,50,40)"><path fill="rgb(139,139,139)" fill-opacity="1" d="M0 0 M-50,40 C-50,40 50,40 50,40 C50,40 50,-40 50,-40 C50,-40 -50,-40 -50,-40 C-50,-40 -50,40 -50,40zM0 0 M-50,-40 C-50,-40 50,-40 50,-40 C50,-40 50,40 50,40 C50,40 -50,40 -50,40 C-50,40 -50,-40 -50,-40zM0 0 M49,39 C49,39 -49,39 -49,39 C-49,39 -49,-39 -49,-39 C-49,-39 49,-39 49,-39 C49,-39 49,39 49,39zM0 0 M50,-40 C50,-40 -50,-40 -50,-40 C-50,-40 -50,40 -50,40 C-50,40 50,40 50,40 C50,40 50,-40 50,-40z"></path><g opacity="1" transform="matrix(1,0,0,1,0,0)"></g></g></g><g clip-path="url(#cp_fcvoZHwv)" transform="matrix(1,0,0,1,0,0)" opacity="1"><g clip-path="url(#O46e2Lx34n)"><g transform="matrix(1,0,0,1,0,0)" opacity="1" style="user-select: none;"><g opacity="1" transform="matrix(1,0,0,1,50,36.5)"><path fill="rgb(255,255,255)" fill-opacity="1" d="M0 0 M-35.5,-29 C-35.5,-29 35.5,-29 35.5,-29 C35.5,-29 35.5,29 35.5,29 C35.5,29 -35.5,29 -35.5,29 C-35.5,29 -35.5,-29 -35.5,-29z"></path></g><g opacity="1" transform="matrix(1,0,0,1,50,36.5)"><path fill="rgb(102,102,102)" fill-opacity="1" d="M0 0 M35,28.5 C35,28.5 -35,28.5 -35,28.5 C-35,28.5 -35,-28.5 -35,-28.5 C-35,-28.5 35,-28.5 35,-28.5 C35,-28.5 35,28.5 35,28.5zM0 0 M36,-29.5 C36,-29.5 -36,-29.5 -36,-29.5 C-36,-29.5 -36,29.5 -36,29.5 C-36,29.5 36,29.5 36,29.5 C36,29.5 36,-29.5 36,-29.5z"></path></g><g opacity="1" transform="matrix(1,0,0,1,28,42)"><path fill="rgb(179,179,179)" fill-opacity="1" d="M0 0 M8,7 C8,7 -8,7 -8,7 C-8,7 -8,-7 -8,-7 C-8,-7 8,-7 8,-7 C8,-7 8,7 8,7z"></path></g><g opacity="1" transform="matrix(1,0,0,1,28,50)"><path fill="rgb(102,102,102)" fill-opacity="1" d="M0 0 M8,3 C8,3 -8,3 -8,3 C-8,3 -8,-3 -8,-3 C-8,-3 8,-3 8,-3 C8,-3 8,3 8,3z"></path></g><g opacity="1" transform="matrix(1,0,0,1,28,34.5)"><path fill="rgb(139,139,139)" fill-opacity="1" d="M0 0 M8,3.5 C8,3.5 -8,3.5 -8,3.5 C-8,3.5 -8,-3.5 -8,-3.5 C-8,-3.5 8,-3.5 8,-3.5 C8,-3.5 8,3.5 8,3.5z"></path></g><g opacity="1" transform="matrix(1,0,0,1,0,0)"><path stroke-linecap="butt" stroke-linejoin="miter" fill-opacity="0" stroke-miterlimit="10" stroke="rgb(224,224,224)" stroke-opacity="1" stroke-width="1" d="M0 0 M20,44 C20,44 36,44 36,44"></path></g><g opacity="1" transform="matrix(1,0,0,1,0,0)"><path stroke-linecap="butt" stroke-linejoin="miter" fill-opacity="0" stroke-miterlimit="10" stroke="rgb(224,224,224)" stroke-opacity="1" stroke-width="1" d="M0 0 M20,45.5 C20,45.5 36,45.5 36,45.5"></path></g><g opacity="1" transform="matrix(1,0,0,1,0,0)"><path stroke-linecap="butt" stroke-linejoin="miter" fill-opacity="0" stroke-miterlimit="10" stroke="rgb(224,224,224)" stroke-opacity="1" stroke-width="1" d="M0 0 M20,47 C20,47 36,47 36,47"></path></g><g opacity="1" transform="matrix(1,0,0,1,0,0)"><path stroke-linecap="butt" stroke-linejoin="miter" fill-opacity="0" stroke-miterlimit="10" stroke="rgb(224,224,224)" stroke-opacity="1" stroke-width="0.5" d="M0 0 M20,42.5 C20,42.5 36,42.5 36,42.5"></path></g><g opacity="1" transform="matrix(1,0,0,1,0,0)"><path stroke-linecap="butt" stroke-linejoin="miter" fill-opacity="0" stroke-miterlimit="10" stroke="rgb(179,179,179)" stroke-opacity="1" stroke-width="1" d="M0 0 M20,37 C20,37 36,37 36,37"></path></g><g opacity="1" transform="matrix(1,0,0,1,0,0)"><path stroke-linecap="butt" stroke-linejoin="miter" fill-opacity="0" stroke-miterlimit="10" stroke="rgb(179,179,179)" stroke-opacity="1" stroke-width="1" d="M0 0 M20,38.5 C20,38.5 36,38.5 36,38.5"></path></g><g opacity="1" transform="matrix(1,0,0,1,0,0)"><path stroke-linecap="butt" stroke-linejoin="miter" fill-opacity="0" stroke-miterlimit="10" stroke="rgb(179,179,179)" stroke-opacity="1" stroke-width="1" d="M0 0 M20,35.5 C20,35.5 36,35.5 36,35.5"></path></g><g opacity="1" transform="matrix(1,0,0,1,0,0)"><path stroke-linecap="butt" stroke-linejoin="miter" fill-opacity="0" stroke-miterlimit="10" stroke="rgb(179,179,179)" stroke-opacity="1" stroke-width="0.5" d="M0 0 M20,34 C20,34 36,34 36,34"></path></g><g opacity="1" transform="matrix(1,0,0,1,28,46)"><path fill="rgb(249,249,249)" fill-opacity="1" d="M0 0 M-3,1.5 C-3,-0.15700000000000003 -1.657,-1.5 0,-1.5 C1.657,-1.5 3,-0.15700000000000003 3,1.5 C3,1.5 -3,1.5 -3,1.5z"></path></g><g opacity="1" transform="matrix(1,0,0,1,0,0)"><path stroke-linecap="butt" stroke-linejoin="miter" fill-opacity="0" stroke-miterlimit="10" stroke="rgb(179,179,179)" stroke-opacity="1" stroke-width="0.5" d="M0 0 M20,48 C20,48 36,48 36,48"></path></g><g opacity="1" transform="matrix(1,0,0,1,0,0)"><path stroke-linecap="butt" stroke-linejoin="miter" fill-opacity="0" stroke-miterlimit="10" stroke="rgb(139,139,139)" stroke-opacity="1" stroke-width="0.5" d="M0 0 M20,49 C20,49 36,49 36,49"></path></g><g opacity="1" transform="matrix(1,0,0,1,0,0)"><path stroke-linecap="butt" stroke-linejoin="miter" fill-opacity="0" stroke-miterlimit="10" stroke="rgb(139,139,139)" stroke-opacity="1" stroke-width="0.5" d="M0 0 M21,48.5 C21,48.5 36,48.5 36,48.5"></path></g><g opacity="1" transform="matrix(1,0,0,1,0,0)"><path stroke-linecap="butt" stroke-linejoin="miter" fill-opacity="0" stroke-miterlimit="10" stroke="rgb(179,179,179)" stroke-opacity="1" stroke-width="0.5" d="M0 0 M20,49.5 C20,49.5 36,49.5 36,49.5"></path></g><g opacity="1" transform="matrix(1,0,0,1,0,0)"><path stroke-linecap="butt" stroke-linejoin="miter" fill-opacity="0" stroke-miterlimit="10" stroke="rgb(179,179,179)" stroke-opacity="1" stroke-width="0.5" d="M0 0 M34.5,50.5 C34.5,50.5 36,50.5 36,50.5"></path></g><g opacity="1" transform="matrix(1,0,0,1,0,0)"><path stroke-linecap="butt" stroke-linejoin="miter" fill-opacity="0" stroke-miterlimit="10" stroke="rgb(139,139,139)" stroke-opacity="1" stroke-width="0.5" d="M0 0 M32.5,51.5 C32.5,51.5 36,51.5 36,51.5"></path></g><g opacity="1" transform="matrix(1,0,0,1,0,0)"><path stroke-linecap="butt" stroke-linejoin="miter" fill-opacity="0" stroke-miterlimit="10" stroke="rgb(224,224,224)" stroke-opacity="1" stroke-width="0.5" d="M0 0 M24,48 C24,48 32,48 32,48"></path></g><g opacity="1" transform="matrix(1,0,0,1,0,0)"><path stroke-linecap="butt" stroke-linejoin="miter" fill-opacity="0" stroke-miterlimit="10" stroke="rgb(249,249,249)" stroke-opacity="1" stroke-width="0.5" d="M0 0 M24,50 C24,50 32,50 32,50"></path></g><g opacity="1" transform="matrix(1,0,0,1,0,0)"><path stroke-linecap="butt" stroke-linejoin="miter" fill-opacity="0" stroke-miterlimit="10" stroke="rgb(224,224,224)" stroke-opacity="1" stroke-width="0.5" d="M0 0 M23,51 C23,51 31,51 31,51"></path></g><g opacity="1" transform="matrix(1,0,0,1,0,0)"><path stroke-linecap="butt" stroke-linejoin="miter" fill-opacity="0" stroke-miterlimit="10" stroke="rgb(224,224,224)" stroke-opacity="1" stroke-width="0.5" d="M0 0 M24,52 C24,52 32,52 32,52"></path></g><g opacity="1" transform="matrix(1,0,0,1,0,0)"><path stroke-linecap="butt" stroke-linejoin="miter" fill-opacity="0" stroke-miterlimit="10" stroke="rgb(249,249,249)" stroke-opacity="1" stroke-width="0.5" d="M0 0 M20,50.5 C20,50.5 21,50.5 21,50.5"></path></g><g opacity="1" transform="matrix(1,0,0,1,0,0)"><path stroke-linecap="butt" stroke-linejoin="miter" fill-opacity="0" stroke-miterlimit="10" stroke="rgb(249,249,249)" stroke-opacity="1" stroke-width="0.5" d="M0 0 M23,52.5 C23,52.5 26,52.5 26,52.5"></path></g><g opacity="1" transform="matrix(1,0,0,1,0,0)"><path stroke-linecap="butt" stroke-linejoin="miter" fill-opacity="0" stroke-miterlimit="10" stroke="rgb(249,249,249)" stroke-opacity="1" stroke-width="0.5" d="M0 0 M26,50.5 C26,50.5 29,50.5 29,50.5"></path></g><g opacity="1" transform="matrix(1,0,0,1,0,0)"><path stroke-linecap="butt" stroke-linejoin="miter" fill-opacity="0" stroke-miterlimit="10" stroke="rgb(224,224,224)" stroke-opacity="1" stroke-width="0.5" d="M0 0 M26,48.5 C26,48.5 29,48.5 29,48.5"></path></g><g opacity="1" transform="matrix(1,0,0,1,0,0)"><path stroke-linecap="butt" stroke-linejoin="miter" fill-opacity="0" stroke-miterlimit="10" stroke="rgb(249,249,249)" stroke-opacity="1" stroke-width="0.5" d="M0 0 M30,49.5 C30,49.5 33,49.5 33,49.5"></path></g><g opacity="1" transform="matrix(1,0,0,1,0,0)"><path stroke-linecap="butt" stroke-linejoin="miter" fill-opacity="0" stroke-miterlimit="10" stroke="rgb(224,224,224)" stroke-opacity="1" stroke-width="0.5" d="M0 0 M23,49 C23,49 34,49 34,49"></path></g><g opacity="1" transform="matrix(1,0,0,1,0,0)"><path stroke-linecap="butt" stroke-linejoin="miter" fill-opacity="0" stroke-miterlimit="10" stroke="rgb(249,249,249)" stroke-opacity="1" stroke-width="0.5" d="M0 0 M33,51 C33,51 36,51 36,51"></path></g><g opacity="1" transform="matrix(1,0,0,1,28,42)"><path fill="rgb(139,139,139)" fill-opacity="1" d="M0 0 M8,11 C8,11 -8,11 -8,11 C-8,11 -8,-11 -8,-11 C-8,-11 8,-11 8,-11 C8,-11 8,11 8,11zM0 0 M9,-12 C9,-12 -9,-12 -9,-12 C-9,-12 -9,12 -9,12 C-9,12 9,12 9,12 C9,12 9,-12 9,-12z"></path></g><g opacity="1" transform="matrix(1,0,0,1,74.5,57.5)"><path fill="rgb(224,224,224)" fill-opacity="1" d="M0 0 M5,3 C5,3 -5,3 -5,3 C-5.553,3 -6,2.553 -6,2 C-6,2 -6,-2 -6,-2 C-6,-2.553 -5.553,-3 -5,-3 C-5,-3 5,-3 5,-3 C5.553,-3 6,-2.553 6,-2 C6,-2 6,2 6,2 C6,2.553 5.553,3 5,3z"></path><path stroke-linecap="butt" stroke-linejoin="miter" fill-opacity="0" stroke-miterlimit="10" stroke="rgb(179,179,179)" stroke-opacity="1" stroke-width="1" d="M0 0 M5,3 C5,3 -5,3 -5,3 C-5.553,3 -6,2.553 -6,2 C-6,2 -6,-2 -6,-2 C-6,-2.553 -5.553,-3 -5,-3 C-5,-3 5,-3 5,-3 C5.553,-3 6,-2.553 6,-2 C6,-2 6,2 6,2 C6,2.553 5.553,3 5,3z"></path></g><g opacity="1" transform="matrix(1,0,0,1,59.5,57.5)"><path fill="rgb(224,224,224)" fill-opacity="1" d="M0 0 M5,3 C5,3 -5,3 -5,3 C-5.553,3 -6,2.553 -6,2 C-6,2 -6,-2 -6,-2 C-6,-2.553 -5.553,-3 -5,-3 C-5,-3 5,-3 5,-3 C5.553,-3 6,-2.553 6,-2 C6,-2 6,2 6,2 C6,2.553 5.553,3 5,3z"></path><path stroke-linecap="butt" stroke-linejoin="miter" fill-opacity="0" stroke-miterlimit="10" stroke="rgb(179,179,179)" stroke-opacity="1" stroke-width="1" d="M0 0 M5,3 C5,3 -5,3 -5,3 C-5.553,3 -6,2.553 -6,2 C-6,2 -6,-2 -6,-2 C-6,-2.553 -5.553,-3 -5,-3 C-5,-3 5,-3 5,-3 C5.553,-3 6,-2.553 6,-2 C6,-2 6,2 6,2 C6,2.553 5.553,3 5,3z"></path></g><g opacity="1" transform="matrix(1,0,0,1,43.822,33.548)"><path fill="rgb(139,139,139)" fill-opacity="1" d="M0 0 M1.283,2.114 C1.283,2.114 -1.283,2.114 -1.283,2.114 C-1.283,2.114 -1.283,-2.114 -1.283,-2.114 C-1.283,-2.114 -0.756,-2.114 -0.756,-2.114 C-0.756,-2.114 -0.756,1.639 -0.756,1.639 C-0.756,1.639 1.283,1.639 1.283,1.639 C1.283,1.639 1.283,2.114 1.283,2.114z"></path></g><g opacity="1" transform="matrix(1,0,0,1,47.213,34.083)"><path fill="rgb(139,139,139)" fill-opacity="1" d="M0 0 M-1.456,0 C-1.456,-1.017 -0.899,-1.635 0,-1.635 C0.9,-1.635 1.456,-1.017 1.456,0 C1.456,1.014 0.9,1.635 0,1.635 C-0.899,1.635 -1.456,1.014 -1.456,0zM0 0 M0.935,0 C0.935,-0.75 0.598,-1.181 0,-1.181 C-0.597,-1.181 -0.934,-0.75 -0.934,0 C-0.934,0.747 -0.597,1.181 0,1.181 C0.598,1.181 0.935,0.747 0.935,0z"></path></g><g opacity="1" transform="matrix(1,0,0,1,51.103,33.484)"><path fill="rgb(139,139,139)" fill-opacity="1" d="M0 0 M-0.906,1.674 C-0.906,1.674 -0.953,1.674 -0.953,1.674 C-0.953,1.674 -0.953,2.178 -0.953,2.178 C-0.953,2.178 -1.433,2.178 -1.433,2.178 C-1.433,2.178 -1.433,-2.234 -1.433,-2.234 C-1.433,-2.234 -0.929,-2.234 -0.929,-2.234 C-0.929,-2.234 -0.929,-0.482 -0.929,-0.482 C-0.929,-0.482 -0.882,-0.482 -0.882,-0.482 C-0.71,-0.8220000000000001 -0.326,-1.036 0.108,-1.036 C0.911,-1.036 1.433,-0.394 1.433,0.599 C1.433,1.5859999999999999 0.907,2.234 0.108,2.234 C-0.332,2.234 -0.7070000000000001,2.026 -0.906,1.674zM0 0 M-0.941,0.599 C-0.941,1.3279999999999998 -0.584,1.78 -0.009,1.78 C0.567,1.78 0.911,1.337 0.911,0.599 C0.911,-0.139 0.567,-0.582 -0.009,-0.582 C-0.584,-0.582 -0.941,-0.13 -0.941,0.599z"></path></g><g opacity="1" transform="matrix(1,0,0,1,54.803,34.083)"><path fill="rgb(139,139,139)" fill-opacity="1" d="M0 0 M-1.456,0 C-1.456,-1.017 -0.899,-1.635 0,-1.635 C0.9,-1.635 1.456,-1.017 1.456,0 C1.456,1.014 0.9,1.635 0,1.635 C-0.899,1.635 -1.456,1.014 -1.456,0zM0 0 M0.935,0 C0.935,-0.75 0.598,-1.181 0,-1.181 C-0.597,-1.181 -0.934,-0.75 -0.934,0 C-0.934,0.747 -0.597,1.181 0,1.181 C0.598,1.181 0.935,0.747 0.935,0z"></path></g><g opacity="1" transform="matrix(1,0,0,1,58.058,34.055)"><path fill="rgb(139,139,139)" fill-opacity="1" d="M0 0 M-0.828,-1.551 C-0.828,-1.551 -0.348,-1.551 -0.348,-1.551 C-0.348,-1.551 -0.348,-1.082 -0.348,-1.082 C-0.348,-1.082 -0.301,-1.082 -0.301,-1.082 C-0.207,-1.3900000000000001 0.15599999999999997,-1.607 0.576,-1.607 C0.6579999999999999,-1.607 0.764,-1.601 0.828,-1.592 C0.828,-1.592 0.828,-1.088 0.828,-1.088 C0.7869999999999999,-1.1 0.606,-1.117 0.506,-1.117 C0.026000000000000023,-1.117 -0.324,-0.7949999999999999 -0.324,-0.35 C-0.324,-0.35 -0.324,1.607 -0.324,1.607 C-0.324,1.607 -0.828,1.607 -0.828,1.607 C-0.828,1.607 -0.828,-1.551 -0.828,-1.551z"></path></g><g opacity="1" transform="matrix(1,0,0,1,60.43,33.686)"><path fill="rgb(139,139,139)" fill-opacity="1" d="M0 0 M0.156,-1.999 C0.156,-1.999 0.156,-1.182 0.156,-1.182 C0.156,-1.182 0.859,-1.182 0.859,-1.182 C0.859,-1.182 0.859,-0.76 0.859,-0.76 C0.859,-0.76 0.156,-0.76 0.156,-0.76 C0.156,-0.76 0.156,1.027 0.156,1.027 C0.156,1.399 0.296,1.558 0.624,1.558 C0.716,1.558 0.765,1.555 0.859,1.546 C0.859,1.546 0.859,1.971 0.859,1.971 C0.76,1.988 0.6639999999999999,1.999 0.564,1.999 C-0.08600000000000008,1.999 -0.348,1.7599999999999998 -0.348,1.156 C-0.348,1.156 -0.348,-0.76 -0.348,-0.76 C-0.348,-0.76 -0.859,-0.76 -0.859,-0.76 C-0.859,-0.76 -0.859,-1.182 -0.859,-1.182 C-0.859,-1.182 -0.348,-1.182 -0.348,-1.182 C-0.348,-1.182 -0.348,-1.999 -0.348,-1.999 C-0.348,-1.999 0.156,-1.999 0.156,-1.999z"></path></g><g opacity="1" transform="matrix(1,0,0,1,62.495,33.41)"><path fill="rgb(139,139,139)" fill-opacity="1" d="M0 0 M-0.352,-1.9 C-0.352,-2.094 -0.194,-2.251 -0.001,-2.251 C0.192,-2.251 0.352,-2.094 0.352,-1.9 C0.352,-1.7069999999999999 0.192,-1.549 -0.001,-1.549 C-0.194,-1.549 -0.352,-1.7069999999999999 -0.352,-1.9zM0 0 M-0.253,-0.906 C-0.253,-0.906 0.252,-0.906 0.252,-0.906 C0.252,-0.906 0.252,2.252 0.252,2.252 C0.252,2.252 -0.253,2.252 -0.253,2.252 C-0.253,2.252 -0.253,-0.906 -0.253,-0.906z"></path></g><g opacity="1" transform="matrix(1,0,0,1,64.983,34.083)"><path fill="rgb(139,139,139)" fill-opacity="1" d="M0 0 M0.009,-1.635 C0.671,-1.635 1.131,-1.307 1.198,-0.788 C1.198,-0.788 0.7,-0.788 0.7,-0.788 C0.633,-1.04 0.387,-1.207 0.006,-1.207 C-0.369,-1.207 -0.662,-1.017 -0.662,-0.736 C-0.662,-0.519 -0.486,-0.384 -0.114,-0.293 C-0.114,-0.293 0.372,-0.176 0.372,-0.176 C0.967,-0.032 1.254,0.22500000000000003 1.254,0.679 C1.254,1.245 0.706,1.635 -0.012,1.635 C-0.715,1.635 -1.198,1.298 -1.254,0.773 C-1.254,0.773 -0.735,0.773 -0.735,0.773 C-0.65,1.04 -0.398,1.21 0.006,1.21 C0.431,1.21 0.736,1.008 0.736,0.718 C0.736,0.501 0.571,0.35400000000000004 0.235,0.272 C0.235,0.272 -0.307,0.14 -0.307,0.14 C-0.899,-0.002999999999999975 -1.169,-0.25799999999999995 -1.169,-0.715 C-1.169,-1.2389999999999999 -0.662,-1.635 0.009,-1.635z"></path></g><g opacity="1" transform="matrix(1,0,0,1,70.372,34.055)"><path fill="rgb(139,139,139)" fill-opacity="1" d="M0 0 M-1.29,-1.551 C-1.29,-1.551 -0.811,-1.551 -0.811,-1.551 C-0.811,-1.551 -0.811,-1.053 -0.811,-1.053 C-0.811,-1.053 -0.764,-1.053 -0.764,-1.053 C-0.605,-1.402 -0.297,-1.607 0.187,-1.607 C0.8959999999999999,-1.607 1.29,-1.188 1.29,-0.438 C1.29,-0.438 1.29,1.607 1.29,1.607 C1.29,1.607 0.786,1.607 0.786,1.607 C0.786,1.607 0.786,-0.315 0.786,-0.315 C0.786,-0.883 0.546,-1.153 0.042,-1.153 C-0.462,-1.153 -0.786,-0.8160000000000001 -0.786,-0.262 C-0.786,-0.262 -0.786,1.607 -0.786,1.607 C-0.786,1.607 -1.29,1.607 -1.29,1.607 C-1.29,1.607 -1.29,-1.551 -1.29,-1.551z"></path></g><g opacity="1" transform="matrix(1,0,0,1,73.027,33.41)"><path fill="rgb(139,139,139)" fill-opacity="1" d="M0 0 M-0.352,-1.9 C-0.352,-2.094 -0.194,-2.251 -0.001,-2.251 C0.193,-2.251 0.352,-2.094 0.352,-1.9 C0.352,-1.7069999999999999 0.193,-1.549 -0.001,-1.549 C-0.194,-1.549 -0.352,-1.7069999999999999 -0.352,-1.9zM0 0 M-0.253,-0.906 C-0.253,-0.906 0.251,-0.906 0.251,-0.906 C0.251,-0.906 0.251,2.252 0.251,2.252 C0.251,2.252 -0.253,2.252 -0.253,2.252 C-0.253,2.252 -0.253,-0.906 -0.253,-0.906z"></path></g><g opacity="1" transform="matrix(1,0,0,1,75.515,34.083)"><path fill="rgb(139,139,139)" fill-opacity="1" d="M0 0 M0.008,-1.635 C0.67,-1.635 1.131,-1.307 1.197,-0.788 C1.197,-0.788 0.699,-0.788 0.699,-0.788 C0.633,-1.04 0.387,-1.207 0.006,-1.207 C-0.369,-1.207 -0.662,-1.017 -0.662,-0.736 C-0.662,-0.519 -0.486,-0.384 -0.115,-0.293 C-0.115,-0.293 0.371,-0.176 0.371,-0.176 C0.967,-0.032 1.254,0.22500000000000003 1.254,0.679 C1.254,1.245 0.705,1.635 -0.012,1.635 C-0.715,1.635 -1.199,1.298 -1.254,0.773 C-1.254,0.773 -0.736,0.773 -0.736,0.773 C-0.65,1.04 -0.398,1.21 0.006,1.21 C0.43,1.21 0.735,1.008 0.735,0.718 C0.735,0.501 0.5700000000000001,0.35400000000000004 0.235,0.272 C0.235,0.272 -0.308,0.14 -0.308,0.14 C-0.8999999999999999,-0.002999999999999975 -1.17,-0.25799999999999995 -1.17,-0.715 C-1.17,-1.2389999999999999 -0.662,-1.635 0.008,-1.635z"></path></g><g opacity="1" transform="matrix(1,0,0,1,78.022,33.456)"><path fill="rgb(139,139,139)" fill-opacity="1" d="M0 0 M-0.252,-2.206 C-0.252,-2.206 0.252,-2.206 0.252,-2.206 C0.252,-2.206 0.252,2.206 0.252,2.206 C0.252,2.206 -0.252,2.206 -0.252,2.206 C-0.252,2.206 -0.252,-2.206 -0.252,-2.206z"></path></g><g opacity="1" transform="matrix(1,0,0,1,44.262,41.549)"><path fill="rgb(139,139,139)" fill-opacity="1" d="M0 0 M-0.273,-2.114 C0.981,-2.114 1.723,-1.332 1.723,-0.002 C1.723,1.331 0.9839999999999999,2.114 -0.273,2.114 C-0.273,2.114 -1.723,2.114 -1.723,2.114 C-1.723,2.114 -1.723,-2.114 -1.723,-2.114 C-1.723,-2.114 -0.273,-2.114 -0.273,-2.114zM0 0 M-1.195,1.639 C-1.195,1.639 -0.308,1.639 -0.308,1.639 C0.635,1.639 1.184,1.035 1.184,0.004 C1.184,-1.03 0.629,-1.639 -0.308,-1.639 C-0.308,-1.639 -1.195,-1.639 -1.195,-1.639 C-1.195,-1.639 -1.195,1.639 -1.195,1.639z"></path></g><g opacity="1" transform="matrix(1,0,0,1,48.274,42.111)"><path fill="rgb(139,139,139)" fill-opacity="1" d="M0 0 M1.292,1.551 C1.292,1.551 0.812,1.551 0.812,1.551 C0.812,1.551 0.812,1.056 0.812,1.056 C0.812,1.056 0.765,1.056 0.765,1.056 C0.606,1.407 0.27,1.607 -0.214,1.607 C-0.9229999999999999,1.607 -1.292,1.185 -1.292,0.438 C-1.292,0.438 -1.292,-1.607 -1.292,-1.607 C-1.292,-1.607 -0.788,-1.607 -0.788,-1.607 C-0.788,-1.607 -0.788,0.315 -0.788,0.315 C-0.788,0.883 -0.577,1.147 -0.073,1.147 C0.48300000000000004,1.147 0.788,0.8160000000000001 0.788,0.262 C0.788,0.262 0.788,-1.607 0.788,-1.607 C0.788,-1.607 1.292,-1.607 1.292,-1.607 C1.292,-1.607 1.292,1.551 1.292,1.551z"></path></g><g opacity="1" transform="matrix(1,0,0,1,50.959,41.41)"><path fill="rgb(139,139,139)" fill-opacity="1" d="M0 0 M-0.352,-1.9 C-0.352,-2.094 -0.194,-2.251 -0.001,-2.251 C0.193,-2.251 0.352,-2.094 0.352,-1.9 C0.352,-1.7069999999999999 0.193,-1.549 -0.001,-1.549 C-0.194,-1.549 -0.352,-1.7069999999999999 -0.352,-1.9zM0 0 M-0.252,-0.906 C-0.252,-0.906 0.252,-0.906 0.252,-0.906 C0.252,-0.906 0.252,2.252 0.252,2.252 C0.252,2.252 -0.252,2.252 -0.252,2.252 C-0.252,2.252 -0.252,-0.906 -0.252,-0.906z"></path></g><g opacity="1" transform="matrix(1,0,0,1,53.447,42.083)"><path fill="rgb(139,139,139)" fill-opacity="1" d="M0 0 M0.009,-1.635 C0.671,-1.635 1.131,-1.307 1.198,-0.788 C1.198,-0.788 0.7,-0.788 0.7,-0.788 C0.633,-1.04 0.387,-1.207 0.006,-1.207 C-0.369,-1.207 -0.662,-1.017 -0.662,-0.736 C-0.662,-0.519 -0.486,-0.384 -0.114,-0.293 C-0.114,-0.293 0.372,-0.176 0.372,-0.176 C0.967,-0.032 1.254,0.22500000000000003 1.254,0.679 C1.254,1.245 0.706,1.635 -0.012,1.635 C-0.715,1.635 -1.198,1.298 -1.254,0.773 C-1.254,0.773 -0.735,0.773 -0.735,0.773 C-0.65,1.04 -0.398,1.21 0.006,1.21 C0.431,1.21 0.736,1.008 0.736,0.718 C0.736,0.501 0.571,0.35400000000000004 0.235,0.272 C0.235,0.272 -0.307,0.14 -0.307,0.14 C-0.899,-0.002999999999999975 -1.169,-0.25799999999999995 -1.169,-0.715 C-1.169,-1.2389999999999999 -0.662,-1.635 0.009,-1.635z"></path></g><g opacity="1" transform="matrix(1,0,0,1,58.64,42.083)"><path fill="rgb(139,139,139)" fill-opacity="1" d="M0 0 M-1.284,0.695 C-1.284,0.13 -0.867,-0.196 -0.131,-0.24 C-0.131,-0.24 0.78,-0.296 0.78,-0.296 C0.78,-0.296 0.78,-0.583 0.78,-0.583 C0.78,-0.973 0.5369999999999999,-1.186 0.064,-1.186 C-0.313,-1.186 -0.5750000000000001,-1.0430000000000001 -0.646,-0.794 C-0.646,-0.794 -1.156,-0.794 -1.156,-0.794 C-1.089,-1.3010000000000002 -0.5910000000000001,-1.635 0.083,-1.635 C0.854,-1.635 1.284,-1.24 1.284,-0.583 C1.284,-0.583 1.284,1.579 1.284,1.579 C1.284,1.579 0.803,1.579 0.803,1.579 C0.803,1.579 0.803,1.114 0.803,1.114 C0.803,1.114 0.757,1.114 0.757,1.114 C0.551,1.451 0.205,1.635 -0.217,1.635 C-0.828,1.635 -1.284,1.2719999999999998 -1.284,0.695zM0 0 M0.78,0.402 C0.78,0.402 0.78,0.112 0.78,0.112 C0.78,0.112 -0.07,0.168 -0.07,0.168 C-0.55,0.2 -0.762,0.36700000000000005 -0.762,0.683 C-0.762,1.006 -0.488,1.193 -0.122,1.193 C0.397,1.193 0.78,0.853 0.78,0.402z"></path></g><g opacity="1" transform="matrix(1,0,0,1,62.299,42.111)"><path fill="rgb(139,139,139)" fill-opacity="1" d="M0 0 M1.292,1.551 C1.292,1.551 0.812,1.551 0.812,1.551 C0.812,1.551 0.812,1.056 0.812,1.056 C0.812,1.056 0.765,1.056 0.765,1.056 C0.606,1.407 0.27,1.607 -0.214,1.607 C-0.9229999999999999,1.607 -1.292,1.185 -1.292,0.438 C-1.292,0.438 -1.292,-1.607 -1.292,-1.607 C-1.292,-1.607 -0.788,-1.607 -0.788,-1.607 C-0.788,-1.607 -0.788,0.315 -0.788,0.315 C-0.788,0.883 -0.577,1.147 -0.073,1.147 C0.48300000000000004,1.147 0.788,0.8160000000000001 0.788,0.262 C0.788,0.262 0.788,-1.607 0.788,-1.607 C0.788,-1.607 1.292,-1.607 1.292,-1.607 C1.292,-1.607 1.292,1.551 1.292,1.551z"></path></g><g opacity="1" transform="matrix(1,0,0,1,65.279,41.686)"><path fill="rgb(139,139,139)" fill-opacity="1" d="M0 0 M0.156,-1.999 C0.156,-1.999 0.156,-1.182 0.156,-1.182 C0.156,-1.182 0.859,-1.182 0.859,-1.182 C0.859,-1.182 0.859,-0.76 0.859,-0.76 C0.859,-0.76 0.156,-0.76 0.156,-0.76 C0.156,-0.76 0.156,1.027 0.156,1.027 C0.156,1.399 0.296,1.558 0.624,1.558 C0.715,1.558 0.765,1.555 0.859,1.546 C0.859,1.546 0.859,1.971 0.859,1.971 C0.76,1.988 0.662,1.999 0.562,1.999 C-0.08799999999999997,1.999 -0.349,1.7599999999999998 -0.349,1.156 C-0.349,1.156 -0.349,-0.76 -0.349,-0.76 C-0.349,-0.76 -0.859,-0.76 -0.859,-0.76 C-0.859,-0.76 -0.859,-1.182 -0.859,-1.182 C-0.859,-1.182 -0.349,-1.182 -0.349,-1.182 C-0.349,-1.182 -0.349,-1.999 -0.349,-1.999 C-0.349,-1.999 0.156,-1.999 0.156,-1.999z"></path></g><g opacity="1" transform="matrix(1,0,0,1,68.275,42.083)"><path fill="rgb(139,139,139)" fill-opacity="1" d="M0 0 M1.357,0.761 C1.204,1.303 0.717,1.635 0.025,1.635 C-0.85,1.635 -1.398,1.002 -1.398,0.003 C-1.398,-0.99 -0.842,-1.635 0.025,-1.635 C0.879,-1.635 1.398,-1.029 1.398,-0.047 C1.398,-0.047 1.398,0.146 1.398,0.146 C1.398,0.146 -0.872,0.146 -0.872,0.146 C-0.872,0.146 -0.872,0.17 -0.872,0.17 C-0.847,0.794 -0.49700000000000005,1.189 0.038,1.189 C0.44599999999999995,1.189 0.722,1.04 0.853,0.761 C0.853,0.761 1.357,0.761 1.357,0.761zM0 0 M-0.872,-0.261 C-0.872,-0.261 0.868,-0.261 0.868,-0.261 C0.857,-0.8210000000000001 0.523,-1.19 0.021,-1.19 C-0.483,-1.19 -0.835,-0.8210000000000001 -0.872,-0.261z"></path></g><g opacity="1" transform="matrix(1,0,0,1,72.794,42.055)"><path fill="rgb(139,139,139)" fill-opacity="1" d="M0 0 M-2.15,-1.551 C-2.15,-1.551 -1.671,-1.551 -1.671,-1.551 C-1.671,-1.551 -1.671,-1.053 -1.671,-1.053 C-1.671,-1.053 -1.624,-1.053 -1.624,-1.053 C-1.4800000000000002,-1.4049999999999998 -1.164,-1.607 -0.742,-1.607 C-0.314,-1.607 -0.013999999999999985,-1.381 0.132,-1.053 C0.132,-1.053 0.178,-1.053 0.178,-1.053 C0.348,-1.387 0.7089999999999999,-1.607 1.146,-1.607 C1.79,-1.607 2.15,-1.238 2.15,-0.575 C2.15,-0.575 2.15,1.607 2.15,1.607 C2.15,1.607 1.646,1.607 1.646,1.607 C1.646,1.607 1.646,-0.458 1.646,-0.458 C1.646,-0.924 1.427,-1.153 0.982,-1.153 C0.542,-1.153 0.249,-0.8240000000000001 0.249,-0.423 C0.249,-0.423 0.249,1.607 0.249,1.607 C0.249,1.607 -0.255,1.607 -0.255,1.607 C-0.255,1.607 -0.255,-0.537 -0.255,-0.537 C-0.255,-0.912 -0.516,-1.153 -0.915,-1.153 C-1.328,-1.153 -1.646,-0.7949999999999999 -1.646,-0.35 C-1.646,-0.35 -1.646,1.607 -1.646,1.607 C-1.646,1.607 -2.15,1.607 -2.15,1.607 C-2.15,1.607 -2.15,-1.551 -2.15,-1.551z"></path></g></g><g transform="matrix(1,0,0,1,0,0)" opacity="0" style="user-select: none; display: block;"><g opacity="1" transform="matrix(1,0,0,1,74.5,57.5)"><path fill="rgb(179,179,179)" fill-opacity="1" d="M0 0 M5,3 C5,3 -5,3 -5,3 C-5.553,3 -6,2.553 -6,2 C-6,2 -6,-2 -6,-2 C-6,-2.553 -5.553,-3 -5,-3 C-5,-3 5,-3 5,-3 C5.553,-3 6,-2.553 6,-2 C6,-2 6,2 6,2 C6,2.553 5.553,3 5,3z" style="display: block;"></path></g></g></g></g></g></g></svg>