<svg xmlns="http://www.w3.org/2000/svg" viewBox="0 0 100 80"><defs><style>.cls-1,.cls-5{fill:#e1e1e1;}.cls-2{fill:#ccc;}.cls-3{fill:#fff;}.cls-4{fill:#666;}.cls-5{stroke:#8c8c8c;stroke-miterlimit:10;}.cls-6{fill:#8c8c8c;}</style></defs><title>VisualIndex_v3</title><g id="All"><rect class="cls-1" x="50.5" y="0.5" width="49" height="79"/><path class="cls-2" d="M99,1V79H51V1H99m1-1H50V80h50V0Z"/><rect class="cls-1" x="0.5" y="0.5" width="49" height="79"/><path class="cls-2" d="M49,1V79H1V1H49m1-1H0V80H50V0Z"/><rect class="cls-3" x="45.5" y="0.5" width="9" height="79"/><path class="cls-4" d="M54,1V79H46V1h8m1-1H45V80H55V0Z"/><circle class="cls-5" cx="50" cy="40" r="2.5"/></g><g id="Borders"><path class="cls-6" d="M99,1V79H1V1H99m1-1H0V80H100V0Z"/></g></svg>