<svg xmlns="http://www.w3.org/2000/svg" viewBox="0 0 100 80"><defs><style>.cls-1{fill:#e1e1e1;}.cls-2{fill:#ccc;}.cls-3,.cls-5{fill:#fff;}.cls-3{stroke:#b3b3b3;}.cls-3,.cls-5,.cls-6{stroke-linecap:round;stroke-miterlimit:10;}.cls-4{fill:#b3b3b3;}.cls-5,.cls-6{stroke:#666;}.cls-6{fill:none;}.cls-7{fill:#8c8c8c;}</style></defs><title>VisualIndex_v3</title><g id="All"><rect class="cls-1" x="0.5" y="0.5" width="99" height="79"/><path class="cls-2" d="M99,1V79H1V1H99m1-1H0V80H100V0Z"/><rect class="cls-3" x="16.5" y="28.5" width="50" height="22"/><path class="cls-4" d="M40,38.5c0-2.56,1-4.06,2.75-4.06s2.74,1.5,2.74,4.07-1,4-2.74,4S40,41.08,40,38.5Zm4.52,0c0-2.06-.63-3.21-1.77-3.21S41,36.45,41,38.5s.63,3.22,1.78,3.22S44.51,40.58,44.51,38.5Z"/><path class="cls-4" d="M46.7,41.73a.7.7,0,1,1,.7.7A.7.7,0,0,1,46.7,41.73Z"/><path class="cls-4" d="M53.7,35.56v-.08H49.55v-.86h5.13v.9l-3.45,6.85h-1Z"/><path class="cls-4" d="M56,40.31h1a1.56,1.56,0,0,0,1.66,1.4,1.78,1.78,0,0,0,0-3.56A1.77,1.77,0,0,0,57,39h-.91l.42-4.39h4.32v.86H57.31L57.09,38h.09a2,2,0,0,1,1.64-.66,2.44,2.44,0,0,1,2.5,2.59,2.55,2.55,0,0,1-2.71,2.65A2.42,2.42,0,0,1,56,40.31Z"/><rect class="cls-5" x="73.5" y="28.5" width="12" height="22" rx="5.76" ry="5.76"/><polyline class="cls-6" points="77 43.04 79.5 45.28 82 43.04"/><polyline class="cls-6" points="82 36.23 79.5 34 77 36.23"/><path class="cls-2" d="M99,1V79H1V1H99m1-1H0V80H100V0Z"/></g><g id="Borders"><path class="cls-7" d="M99,1V79H1V1H99m1-1H0V80H100V0Z"/></g></svg>