<svg xmlns="http://www.w3.org/2000/svg" viewBox="0 0 100 80"><defs><style>.cls-1{fill:#e1e1e1;}.cls-2{fill:#ccc;}.cls-3{fill:#8c8c8c;}.cls-4{fill:#fff;}.cls-5{fill:#666;}.cls-6{fill:#3083fb;stroke:#3083fb;stroke-miterlimit:10;}</style></defs><title>VisualIndex_v3</title><g id="All"><rect class="cls-1" x="0.5" y="0.5" width="99" height="79"/><path class="cls-2" d="M99,1V79H1V1H99m1-1H0V80H100V0Z"/><rect class="cls-1" x="7.5" y="12.5" width="85" height="60" rx="2.5" ry="2.5"/><path class="cls-3" d="M90,13a2,2,0,0,1,2,2V70a2,2,0,0,1-2,2H10a2,2,0,0,1-2-2V15a2,2,0,0,1,2-2H90m0-1H10a3,3,0,0,0-3,3V70a3,3,0,0,0,3,3H90a3,3,0,0,0,3-3V15a3,3,0,0,0-3-3Z"/><path class="cls-4" d="M57.75,18.5V6.5h12.5A2.5,2.5,0,0,1,72.75,9v7a2.5,2.5,0,0,1-2.5,2.5Z"/><path class="cls-5" d="M70.25,7a2,2,0,0,1,2,2v7a2,2,0,0,1-2,2h-12V7h12m0-1h-13V19h13a3,3,0,0,0,3-3V9a3,3,0,0,0-3-3Z"/><rect class="cls-4" x="42.75" y="6.5" width="15" height="12"/><path class="cls-5" d="M57.25,7V18h-14V7h14m1-1h-16V19h16V6Z"/><path class="cls-6" d="M29.75,6.5h13a0,0,0,0,1,0,0v12a0,0,0,0,1,0,0h-13a3,3,0,0,1-3-3v-6A3,3,0,0,1,29.75,6.5Z"/></g><g id="Borders"><path class="cls-3" d="M99,1V79H1V1H99m1-1H0V80H100V0Z"/></g></svg>