<svg xmlns="http://www.w3.org/2000/svg" viewBox="0 0 100 80"><defs><style>.cls-1{fill:#333;}.cls-2{fill:#666;}.cls-3,.cls-5{fill:none;}.cls-3{stroke:#333;stroke-linecap:square;stroke-miterlimit:10;stroke-width:1.5px;}.cls-4{fill:#fff;}.cls-6{fill:#8c8c8c;}</style></defs><title>VisualIndex_v3</title><g id="All"><rect class="cls-1" width="100" height="80"/><path class="cls-2" d="M100,56H13a6,6,0,0,1-6-6V30a6,6,0,0,1,6-6h87Z"/><line class="cls-3" x1="80" y1="24" x2="80" y2="56.23"/><line class="cls-3" x1="22" y1="24" x2="22" y2="56"/><path class="cls-4" d="M35.42,36.21l-.82,3.23H33.46l1.06-3.23Zm2.45,0L37,39.44H35.91L37,36.21Z"/><path class="cls-4" d="M40.1,39.26H39v-.86H40.1v-.63c0-1.33.69-1.88,1.94-1.88a3.63,3.63,0,0,1,.64.06v.86a3.14,3.14,0,0,0-.58-.05c-.62,0-1,.31-1,1v.6h1.48v.86H41.14v5.6h-1Z"/><path class="cls-4" d="M43.55,43c0-1.16.85-1.82,2.36-1.91L47.77,41v-.59c0-.8-.5-1.24-1.46-1.24-.77,0-1.31.29-1.46.8h-1c.14-1,1.16-1.72,2.54-1.72,1.58,0,2.46.81,2.46,2.15v4.43h-1v-1h-.1a2.23,2.23,0,0,1-2,1.07A2,2,0,0,1,43.55,43Zm4.22-.6v-.59L46,42c-1,.07-1.42.41-1.42,1.06s.56,1,1.31,1A1.7,1.7,0,0,0,47.77,42.45Z"/><path class="cls-4" d="M53,38.28A2.18,2.18,0,0,1,55.41,40h-1A1.32,1.32,0,0,0,53,39.16c-.77,0-1.37.39-1.37,1s.36.72,1.12.91l1,.24c1.22.29,1.81.82,1.81,1.75,0,1.16-1.12,2-2.59,2s-2.43-.69-2.54-1.76h1.06A1.42,1.42,0,0,0,53,44.1c.87,0,1.49-.41,1.49-1s-.34-.74-1-.91l-1.11-.27c-1.21-.29-1.76-.82-1.76-1.75S51.6,38.28,53,38.28Z"/><path class="cls-4" d="M58.54,36.72v1.67H60v.86H58.54v3.66c0,.76.29,1.09,1,1.09L60,44v.87a3.44,3.44,0,0,1-.61.06c-1.33,0-1.86-.49-1.86-1.73V39.26h-1v-.86h1V36.72Z"/><path class="cls-4" d="M61.64,39.44l.82-3.23H63.6l-1.06,3.23Zm2.45,0,.82-3.23H66L65,39.44Z"/><path class="cls-4" d="M89,39.26H87.91v-.86H89v-.63c0-1.33.69-1.88,1.94-1.88a3.63,3.63,0,0,1,.64.06v.86a3.14,3.14,0,0,0-.58-.05c-.62,0-1,.31-1,1v.6H91.5v.86H90v5.6H89Z"/><path class="cls-4" d="M92.43,43c0-1.16.85-1.82,2.36-1.91L96.65,41v-.59c0-.8-.5-1.24-1.46-1.24-.77,0-1.31.29-1.46.8h-1c.14-1,1.16-1.72,2.54-1.72,1.58,0,2.46.81,2.46,2.15v4.43h-1v-1h-.1a2.23,2.23,0,0,1-2,1.07A2,2,0,0,1,92.43,43Zm4.22-.6v-.59L94.92,42c-1,.07-1.42.41-1.42,1.06s.56,1,1.31,1A1.7,1.7,0,0,0,96.65,42.45Z"/><path class="cls-4" d="M11,48.53a1,1,0,1,0,1-1,1,1,0,0,0-1,1"/><path class="cls-4" d="M11,32a1,1,0,1,1,1,1,1,1,0,0,1-1-1"/><path class="cls-4" d="M11.15,48l1.76,1h0l4.54-7.86a1.83,1.83,0,0,0,0-1.83l-4.54-7.86h0l-1.76,1a0,0,0,0,0,0,0l4.46,7.73a0,0,0,0,1,0,0L11.15,48a0,0,0,0,0,0,0"/><rect class="cls-5" width="100" height="80"/></g><g id="Borders"><path class="cls-6" d="M99,1V79H1V1H99m1-1H0V80H100V0Z"/></g></svg>