<svg xmlns="http://www.w3.org/2000/svg" viewBox="0 0 100 80"><defs><style>.cls-1{fill:#333;}.cls-2{fill:#666;}.cls-3{fill:#b3b3b3;}.cls-4{fill:#fff;}.cls-5{fill:#8c8c8c;}</style></defs><title>VisualIndex_v3</title><g id="All"><rect class="cls-1" width="100" height="80"/><rect class="cls-2" x="18" y="24" width="64" height="32" rx="6" ry="6"/><path class="cls-3" d="M71,32a1,1,0,1,1,1,1,1,1,0,0,1-1-1"/><path class="cls-3" d="M71,48.53a1,1,0,1,0,1-1,1,1,0,0,0-1,1"/><path class="cls-3" d="M71.15,32.5l1.76-1h0l4.54,7.86a1.83,1.83,0,0,1,0,1.83L72.94,49h0l-1.76-1a0,0,0,0,1,0,0l4.46-7.73a0,0,0,0,0,0,0l-4.46-7.73a0,0,0,0,1,0,0"/><rect class="cls-4" x="41" y="32" width="18" height="2"/><rect class="cls-4" x="41" y="37" width="18" height="2"/><rect class="cls-4" x="41" y="42" width="18" height="2"/><rect class="cls-4" x="41" y="47" width="18" height="2"/><path class="cls-4" d="M38.62,32.31a1.31,1.31,0,1,0-1.31,1.31,1.31,1.31,0,0,0,1.31-1.31"/><path class="cls-4" d="M38.62,37.55a1.31,1.31,0,1,0-1.31,1.31,1.31,1.31,0,0,0,1.31-1.31"/><path class="cls-4" d="M38.62,42.79a1.31,1.31,0,1,0-1.31,1.31,1.31,1.31,0,0,0,1.31-1.31"/><path class="cls-4" d="M38.62,48a1.31,1.31,0,1,0-1.31,1.31A1.31,1.31,0,0,0,38.62,48"/></g><g id="Borders"><path class="cls-5" d="M99,1V79H1V1H99m1-1H0V80H100V0Z"/></g></svg>