<svg xmlns="http://www.w3.org/2000/svg" viewBox="0 0 100 80"><defs><style>.cls-1{fill:#e1e1e1;}.cls-2{fill:#fff;}.cls-2,.cls-5{stroke:#666;stroke-linecap:round;stroke-miterlimit:10;}.cls-3{fill:#b8d7fb;}.cls-4{fill:#666;}.cls-5{fill:none;}.cls-6{fill:#8c8c8c;}</style></defs><title>VisualIndex_v3</title><g id="All"><rect class="cls-1" width="100" height="80"/><rect class="cls-2" x="19.5" y="29.5" width="81" height="22"/><rect class="cls-3" x="24" y="33" width="32" height="14" rx="2.5" ry="2.5"/><path class="cls-4" d="M28.23,41.6a1,1,0,0,0,1.08,1c.71,0,1.12-.44,1.12-1.26V36.47h.84V41.3a1.83,1.83,0,0,1-1.95,2A1.74,1.74,0,0,1,27.4,41.6Z"/><path class="cls-4" d="M32.57,41.76c0-.89.66-1.41,1.82-1.48l1.44-.09v-.45c0-.62-.39-1-1.13-1s-1,.23-1.13.62h-.81c.11-.8.89-1.33,2-1.33,1.22,0,1.9.63,1.9,1.67v3.42h-.76v-.74h-.07a1.73,1.73,0,0,1-1.54.83A1.52,1.52,0,0,1,32.57,41.76Zm3.27-.46v-.46l-1.35.09c-.76.05-1.09.31-1.09.82s.43.81,1,.81A1.32,1.32,0,0,0,35.83,41.3Z"/><path class="cls-4" d="M38.1,38.17h.76V39h.07a1.5,1.5,0,0,1,1.5-.88,1.63,1.63,0,0,1,1.75,1.85v3.24h-.8v-3c0-.9-.38-1.33-1.18-1.33a1.27,1.27,0,0,0-1.31,1.41v3h-.8Z"/><polyline class="cls-5" points="47.5 39 49.5 41 51.5 39"/><rect class="cls-3" x="64" y="33" width="20" height="14" rx="2.5" ry="2.5"/><path class="cls-3" d="M94.5,33H100a0,0,0,0,1,0,0V47a0,0,0,0,1,0,0H94.5A2.5,2.5,0,0,1,92,44.5v-9A2.5,2.5,0,0,1,94.5,33Z"/><path class="cls-4" d="M69.35,37.4h-.07l-1.7,1.23v-.88l1.78-1.28h.83v6.69h-.84Z"/><polyline class="cls-5" points="75.5 39 77.5 41 79.5 39"/></g><g id="Borders"><path class="cls-6" d="M99,1V79H1V1H99m1-1H0V80H100V0Z"/></g></svg>