<svg xmlns="http://www.w3.org/2000/svg" viewBox="0 0 100 80"><defs><style>.cls-1{fill:#ccc;}.cls-2,.cls-3,.cls-6{fill:#fff;}.cls-3{fill-rule:evenodd;}.cls-4{fill:#8c8c8c;}.cls-5{fill:#666;}.cls-6{stroke:#8c8c8c;}.cls-6,.cls-7{stroke-miterlimit:10;}.cls-7{fill:none;stroke:#ccc;}.cls-8{fill:#e1e1e1;}.cls-9{fill:#ededed;}</style></defs><title>VisualIndex_v3</title><g id="All"><rect class="cls-1" width="100" height="80"/><path class="cls-2" d="M10,72.5A2.5,2.5,0,0,1,7.5,70V17.5h85V70A2.5,2.5,0,0,1,90,72.5Z"/><path class="cls-1" d="M92,18V70a2,2,0,0,1-2,2H10a2,2,0,0,1-2-2V18H92m1-1H7V70a3,3,0,0,0,3,3H90a3,3,0,0,0,3-3V17Z"/><path class="cls-3" d="M7.5,32.5V10A2.5,2.5,0,0,1,10,7.5H90A2.5,2.5,0,0,1,92.5,10V32.5Z"/><path class="cls-4" d="M90,8a2,2,0,0,1,2,2V32H8V10a2,2,0,0,1,2-2H90m0-1H10a3,3,0,0,0-3,3V33H93V10a3,3,0,0,0-3-3Z"/><path class="cls-3" d="M10,72.5A2.5,2.5,0,0,1,7.5,70V64.5h85V70A2.5,2.5,0,0,1,90,72.5Z"/><path class="cls-4" d="M92,65v5a2,2,0,0,1-2,2H10a2,2,0,0,1-2-2V65H92m1-1H7v6a3,3,0,0,0,3,3H90a3,3,0,0,0,3-3V64Z"/><path class="cls-5" d="M90,8a2,2,0,0,1,2,2V70a2,2,0,0,1-2,2H10a2,2,0,0,1-2-2V10a2,2,0,0,1,2-2H90m0-1H10a3,3,0,0,0-3,3V70a3,3,0,0,0,3,3H90a3,3,0,0,0,3-3V10a3,3,0,0,0-3-3Z"/><circle class="cls-2" cx="14" cy="13.5" r="2.5"/><path class="cls-4" d="M14,11.5a2,2,0,1,1-2,2,2,2,0,0,1,2-2m0-1a3,3,0,1,0,3,3,3,3,0,0,0-3-3Z"/><circle class="cls-2" cx="22.4" cy="13.5" r="2.5"/><path class="cls-4" d="M22.4,11.5a2,2,0,1,1-2,2,2,2,0,0,1,2-2m0-1a3,3,0,1,0,3,3,3,3,0,0,0-3-3Z"/><circle class="cls-2" cx="30.8" cy="13.5" r="2.5"/><path class="cls-4" d="M30.8,11.5a2,2,0,1,1-2,2,2,2,0,0,1,2-2m0-1a3,3,0,1,0,3,3,3,3,0,0,0-3-3Z"/><rect class="cls-6" x="11.5" y="20.5" width="11" height="8" rx="1.5" ry="1.5"/><rect class="cls-6" x="22.5" y="20.5" width="11" height="8" rx="1.5" ry="1.5"/><path class="cls-6" d="M54,20.5H64.5a0,0,0,0,1,0,0v8a0,0,0,0,1,0,0H54A1.5,1.5,0,0,1,52.5,27V22A1.5,1.5,0,0,1,54,20.5Z"/><rect class="cls-6" x="64.5" y="20.5" width="12" height="8"/><path class="cls-6" d="M75.5,20.5H86A1.5,1.5,0,0,1,87.5,22v5A1.5,1.5,0,0,1,86,28.5H75.5a0,0,0,0,1,0,0v-8A0,0,0,0,1,75.5,20.5Z"/><line class="cls-7" x1="36.5" y1="33.5" x2="36.5" y2="64"/><rect class="cls-8" x="20" y="38" width="13" height="4"/><rect class="cls-9" x="37" y="33" width="55" height="4"/><rect class="cls-2" x="37" y="37" width="55" height="4.5"/><rect class="cls-2" x="37" y="46" width="55" height="4.5"/><rect class="cls-2" x="37" y="55" width="55" height="4.5"/><rect class="cls-9" x="37" y="41" width="55" height="5"/><rect class="cls-9" x="37" y="50" width="55" height="5"/><rect class="cls-9" x="37" y="59" width="55" height="5"/><rect class="cls-8" x="11" y="37" width="6" height="6"/><rect class="cls-8" x="20" y="47" width="13" height="4"/><rect class="cls-8" x="11" y="45.5" width="6" height="6" rx="3" ry="3"/></g><g id="Borders"><path class="cls-4" d="M99,1V79H1V1H99m1-1H0V80H100V0Z"/></g></svg>